solid button new master2
facet normal 1.451465752212877e-14 1.0 -1.6031058148224293e-45
  outer loop
    vertex -14.1886562383655 2.8899554761283697 4.2
    vertex -12.731525845391038 2.8899554761283484 0.9999999999999998
    vertex -14.1886562383655 2.8899554761283697 0.9999999999999998
  endloop
endfacet
facet normal 1.451465752212877e-14 1.0 -1.6031058148224293e-45
  outer loop
    vertex -12.731525845391038 2.8899554761283484 0.9999999999999998
    vertex -14.1886562383655 2.8899554761283697 4.2
    vertex -12.731525845391038 2.8899554761283484 4.2
  endloop
endfacet
facet normal 1.741758902655496e-14 -1.0 0.0
  outer loop
    vertex -12.718073871432614 7.789955476128349 4.2
    vertex -14.17520426440704 7.789955476128323 1.0000000000000004
    vertex -12.718073871432614 7.789955476128349 1.0000000000000004
  endloop
endfacet
facet normal 1.741758902655496e-14 -1.0 0.0
  outer loop
    vertex -14.17520426440704 7.789955476128323 1.0000000000000004
    vertex -12.718073871432614 7.789955476128349 4.2
    vertex -14.17520426440704 7.789955476128323 4.2
  endloop
endfacet
facet normal 7.721089145931441e-16 1.0 1.6952228353103862e-15
  outer loop
    vertex -15.103365054899031 10.489955476128346 0.9999999999999999
    vertex -6.903365054899029 10.489955476128344 -0.49999999999999994
    vertex -15.103365054899031 10.489955476128346 -0.49999999999999994
  endloop
endfacet
facet normal 7.721089145931441e-16 1.0 1.6952228353103862e-15
  outer loop
    vertex -6.903365054899029 10.489955476128344 -0.49999999999999994
    vertex -15.103365054899031 10.489955476128346 0.9999999999999999
    vertex -8.403365054899043 10.489955476128333 1.0
  endloop
endfacet
facet normal 7.721089145931441e-16 1.0 1.6952228353103862e-15
  outer loop
    vertex -6.903365054899029 10.489955476128344 -0.49999999999999994
    vertex -8.403365054899043 10.489955476128333 1.0
    vertex -6.903365054899029 10.489955476128344 2.2
  endloop
endfacet
facet normal 7.721089145931441e-16 1.0 1.6952228353103862e-15
  outer loop
    vertex -6.903365054899029 10.489955476128344 2.2
    vertex -8.403365054899043 10.489955476128333 1.0
    vertex -8.403365054899043 10.489955476128333 2.2000000000000006
  endloop
endfacet
facet normal 1.1611726017703128e-14 -1.0 0.0
  outer loop
    vertex -12.71807387143259 0.8899554761283712 4.2
    vertex -14.17520426440704 0.8899554761283544 0.9999999999999998
    vertex -12.71807387143259 0.8899554761283712 0.9999999999999998
  endloop
endfacet
facet normal 1.1611726017703128e-14 -1.0 0.0
  outer loop
    vertex -14.17520426440704 0.8899554761283544 0.9999999999999998
    vertex -12.71807387143259 0.8899554761283712 4.2
    vertex -14.17520426440704 0.8899554761283544 4.2
  endloop
endfacet
facet normal -0.9263728461423488 0.3766076870300502 0.0
  outer loop
    vertex -14.325517087501673 2.8532837221268466 4.2
    vertex -14.403365054899032 2.661794685636377 0.9999999999999998
    vertex -14.403365054899032 2.661794685636377 4.2
  endloop
endfacet
facet normal -0.9263728461423488 0.3766076870300502 0.0
  outer loop
    vertex -14.403365054899032 2.661794685636377 0.9999999999999998
    vertex -14.325517087501673 2.8532837221268466 4.2
    vertex -14.325517087501673 2.8532837221268466 0.9999999999999998
  endloop
endfacet
facet normal 0.965925826289051 0.2588190451025857 -0.0
  outer loop
    vertex -12.540036808900567 2.8121075087308895 0.9999999999999998
    vertex -12.503365054899103 2.6752466595947952 4.2
    vertex -12.503365054899103 2.6752466595947952 0.9999999999999998
  endloop
endfacet
facet normal 0.965925826289051 0.2588190451025857 -0.0
  outer loop
    vertex -12.503365054899103 2.6752466595947952 4.2
    vertex -12.540036808900567 2.8121075087308895 0.9999999999999998
    vertex -12.540036808900567 2.8121075087308895 4.2
  endloop
endfacet
facet normal -1.0 2.897603432849109e-14 0.0
  outer loop
    vertex -14.403365054899032 2.661794685636377 4.2
    vertex -14.403365054899078 1.1046642926618624 0.9999999999999998
    vertex -14.403365054899078 1.1046642926618624 4.2
  endloop
endfacet
facet normal -1.0 2.897603432849109e-14 0.0
  outer loop
    vertex -14.403365054899078 1.1046642926618624 0.9999999999999998
    vertex -14.403365054899032 2.661794685636377 4.2
    vertex -14.403365054899032 2.661794685636377 0.9999999999999998
  endloop
endfacet
facet normal -4.225729789409023e-15 1.0 -1.1129823817735899e-14
  outer loop
    vertex -15.103365054899076 3.589955476128311 0.9999999999999999
    vertex -6.903365054899055 3.589955476128336 -0.49999999999999994
    vertex -15.103365054899076 3.589955476128311 -0.49999999999999994
  endloop
endfacet
facet normal -4.225729789409023e-15 1.0 -1.1129823817735899e-14
  outer loop
    vertex -6.903365054899055 3.589955476128336 -0.49999999999999994
    vertex -15.103365054899076 3.589955476128311 0.9999999999999999
    vertex -8.403365054899046 3.5899554761283654 1.0
  endloop
endfacet
facet normal -4.225729789409023e-15 1.0 -1.1129823817735899e-14
  outer loop
    vertex -6.903365054899055 3.589955476128336 -0.49999999999999994
    vertex -8.403365054899046 3.5899554761283654 1.0
    vertex -6.903365054899055 3.589955476128336 1.2000000000000002
  endloop
endfacet
facet normal -4.225729789409023e-15 1.0 -1.1129823817735899e-14
  outer loop
    vertex -6.903365054899055 3.589955476128336 1.2000000000000002
    vertex -8.403365054899046 3.5899554761283654 1.0
    vertex -8.403365054899046 3.5899554761283654 1.2000000000000004
  endloop
endfacet
facet normal -0.9659258262891541 -0.25881904510220033 0.0
  outer loop
    vertex -14.403365054899032 8.004664292661909 4.2
    vertex -14.366693300897614 7.867803443525765 1.0000000000000004
    vertex -14.366693300897614 7.867803443525765 4.2
  endloop
endfacet
facet normal -0.9659258262891541 -0.25881904510220033 0.0
  outer loop
    vertex -14.366693300897614 7.867803443525765 1.0000000000000004
    vertex -14.403365054899032 8.004664292661909 4.2
    vertex -14.403365054899032 8.004664292661909 1.0000000000000004
  endloop
endfacet
facet normal -0.3766076870303353 -0.9263728461422328 0.0
  outer loop
    vertex -14.17520426440704 0.8899554761283544 4.2
    vertex -14.366693300897568 0.9678034435258068 0.9999999999999998
    vertex -14.17520426440704 0.8899554761283544 0.9999999999999998
  endloop
endfacet
facet normal -0.3766076870303353 -0.9263728461422328 0.0
  outer loop
    vertex -14.366693300897568 0.9678034435258068 0.9999999999999998
    vertex -14.17520426440704 0.8899554761283544 4.2
    vertex -14.366693300897568 0.9678034435258068 4.2
  endloop
endfacet
facet normal -0.25881904510283765 0.9659258262889834 -0.0
  outer loop
    vertex -14.325517087501673 2.8532837221268466 4.2
    vertex -14.1886562383655 2.8899554761283697 0.9999999999999998
    vertex -14.325517087501673 2.8532837221268466 0.9999999999999998
  endloop
endfacet
facet normal -0.25881904510283765 0.9659258262889834 -0.0
  outer loop
    vertex -14.1886562383655 2.8899554761283697 0.9999999999999998
    vertex -14.325517087501673 2.8532837221268466 4.2
    vertex -14.1886562383655 2.8899554761283697 4.2
  endloop
endfacet
facet normal 0.37660768703011976 0.9263728461423205 -2.0797665121080447e-32
  outer loop
    vertex -12.73152584539105 9.78995547612833 4.2
    vertex -12.54003680890051 9.712107508730927 1.0000000000000004
    vertex -12.73152584539105 9.78995547612833 1.0000000000000004
  endloop
endfacet
facet normal 0.37660768703011976 0.9263728461423205 -2.0797665121080447e-32
  outer loop
    vertex -12.54003680890051 9.712107508730927 1.0000000000000004
    vertex -12.73152584539105 9.78995547612833 4.2
    vertex -12.54003680890051 9.712107508730927 4.2
  endloop
endfacet
facet normal 1.4487247596407519e-15 -1.0 -3.91205269687015e-16
  outer loop
    vertex -6.903365054899058 0.1899554761283477 -0.49999999999999994
    vertex -8.403365054899037 0.18995547612834335 1.0
    vertex -15.103365054899054 0.189955476128335 -0.49999999999999994
  endloop
endfacet
facet normal 1.4487247596407519e-15 -1.0 -3.91205269687015e-16
  outer loop
    vertex -8.403365054899037 0.18995547612834335 1.0
    vertex -6.903365054899058 0.1899554761283477 -0.49999999999999994
    vertex -6.903365054899058 0.1899554761283477 2.2
  endloop
endfacet
facet normal 1.4487247596407519e-15 -1.0 -3.91205269687015e-16
  outer loop
    vertex -15.103365054899054 0.189955476128335 -0.49999999999999994
    vertex -8.403365054899037 0.18995547612834335 1.0
    vertex -15.103365054899054 0.189955476128335 0.9999999999999999
  endloop
endfacet
facet normal 1.4487247596407519e-15 -1.0 -3.91205269687015e-16
  outer loop
    vertex -8.403365054899037 0.18995547612834335 1.0
    vertex -6.903365054899058 0.1899554761283477 2.2
    vertex -8.403365054899037 0.18995547612834335 2.2000000000000006
  endloop
endfacet
facet normal 0.9263728461423004 -0.37660768703016884 -0.0
  outer loop
    vertex -12.503365054899056 8.01811626662033 1.0000000000000004
    vertex -12.581213022296472 7.826627230129793 4.2
    vertex -12.581213022296472 7.826627230129793 1.0000000000000004
  endloop
endfacet
facet normal 0.9263728461423004 -0.37660768703016884 -0.0
  outer loop
    vertex -12.581213022296472 7.826627230129793 4.2
    vertex -12.503365054899056 8.01811626662033 1.0000000000000004
    vertex -12.503365054899056 8.01811626662033 4.2
  endloop
endfacet
facet normal -1.0 -2.406765377195719e-16 4.99109111955379e-16
  outer loop
    vertex -8.403365054899043 10.489955476128333 2.2000000000000006
    vertex -8.403365054899037 0.18995547612834335 1.0
    vertex -8.403365054899037 0.18995547612834335 2.2000000000000006
  endloop
endfacet
facet normal -1.0 -2.406765377195719e-16 4.99109111955379e-16
  outer loop
    vertex -8.403365054899037 0.18995547612834335 1.0
    vertex -8.403365054899043 10.489955476128333 2.2000000000000006
    vertex -8.403365054899046 3.5899554761283654 1.2000000000000004
  endloop
endfacet
facet normal -1.0 -2.406765377195719e-16 4.99109111955379e-16
  outer loop
    vertex -8.403365054899046 3.5899554761283654 1.2000000000000004
    vertex -8.403365054899043 10.489955476128333 2.2000000000000006
    vertex -8.403365054899037 7.08995547612833 1.2000000000000004
  endloop
endfacet
facet normal -1.0 -2.406765377195719e-16 4.99109111955379e-16
  outer loop
    vertex -8.403365054899037 7.08995547612833 1.2000000000000004
    vertex -8.403365054899043 10.489955476128333 2.2000000000000006
    vertex -8.403365054899037 7.08995547612833 1.0
  endloop
endfacet
facet normal -1.0 -2.406765377195719e-16 4.99109111955379e-16
  outer loop
    vertex -8.403365054899037 7.08995547612833 1.0
    vertex -8.403365054899043 10.489955476128333 2.2000000000000006
    vertex -8.403365054899043 10.489955476128333 1.0
  endloop
endfacet
facet normal -1.0 -2.406765377195719e-16 4.99109111955379e-16
  outer loop
    vertex -8.403365054899046 3.5899554761283654 1.0
    vertex -8.403365054899037 0.18995547612834335 1.0
    vertex -8.403365054899046 3.5899554761283654 1.2000000000000004
  endloop
endfacet
facet normal -5.8058630088514614e-15 1.0 -6.412423259289671e-46
  outer loop
    vertex -14.188656238365523 9.789955476128323 4.2
    vertex -12.73152584539105 9.78995547612833 1.0000000000000004
    vertex -14.188656238365523 9.789955476128323 1.0000000000000004
  endloop
endfacet
facet normal -5.8058630088514614e-15 1.0 -6.412423259289671e-46
  outer loop
    vertex -12.73152584539105 9.78995547612833 1.0000000000000004
    vertex -14.188656238365523 9.789955476128323 4.2
    vertex -12.73152584539105 9.78995547612833 4.2
  endloop
endfacet
facet normal 0.0 0.0 1.0
  outer loop
    vertex -15.103365054899054 0.189955476128335 0.9999999999999999
    vertex -14.366693300897568 0.9678034435258068 0.9999999999999998
    vertex -14.403365054899078 1.1046642926618624 0.9999999999999998
  endloop
endfacet
facet normal 0.0 0.0 1.0
  outer loop
    vertex -14.366693300897568 0.9678034435258068 0.9999999999999998
    vertex -15.103365054899054 0.189955476128335 0.9999999999999999
    vertex -14.17520426440704 0.8899554761283544 0.9999999999999998
  endloop
endfacet
facet normal 0.0 0.0 1.0
  outer loop
    vertex -14.17520426440704 0.8899554761283544 0.9999999999999998
    vertex -15.103365054899054 0.189955476128335 0.9999999999999999
    vertex -8.403365054899037 0.18995547612834335 1.0
  endloop
endfacet
facet normal 0.0 0.0 1.0
  outer loop
    vertex -14.17520426440704 0.8899554761283544 0.9999999999999998
    vertex -8.403365054899037 0.18995547612834335 1.0
    vertex -12.71807387143259 0.8899554761283712 0.9999999999999998
  endloop
endfacet
facet normal 0.0 0.0 1.0
  outer loop
    vertex -12.71807387143259 0.8899554761283712 0.9999999999999998
    vertex -8.403365054899037 0.18995547612834335 1.0
    vertex -12.581213022296472 0.9266272301298275 0.9999999999999998
  endloop
endfacet
facet normal 0.0 0.0 1.0
  outer loop
    vertex -12.581213022296472 0.9266272301298275 0.9999999999999998
    vertex -8.403365054899037 0.18995547612834335 1.0
    vertex -12.503365054899035 1.1181162666203528 0.9999999999999998
  endloop
endfacet
facet normal 0.0 0.0 1.0
  outer loop
    vertex -12.503365054899035 1.1181162666203528 0.9999999999999998
    vertex -8.403365054899037 0.18995547612834335 1.0
    vertex -8.403365054899046 3.5899554761283654 1.0
  endloop
endfacet
facet normal 0.0 0.0 1.0
  outer loop
    vertex -15.103365054899076 3.589955476128311 0.9999999999999999
    vertex -14.1886562383655 2.8899554761283697 0.9999999999999998
    vertex -8.403365054899046 3.5899554761283654 1.0
  endloop
endfacet
facet normal 0.0 0.0 1.0
  outer loop
    vertex -14.1886562383655 2.8899554761283697 0.9999999999999998
    vertex -15.103365054899076 3.589955476128311 0.9999999999999999
    vertex -14.325517087501673 2.8532837221268466 0.9999999999999998
  endloop
endfacet
facet normal 0.0 0.0 1.0
  outer loop
    vertex -14.325517087501673 2.8532837221268466 0.9999999999999998
    vertex -15.103365054899076 3.589955476128311 0.9999999999999999
    vertex -14.403365054899032 2.661794685636377 0.9999999999999998
  endloop
endfacet
facet normal 0.0 0.0 1.0
  outer loop
    vertex -14.403365054899032 2.661794685636377 0.9999999999999998
    vertex -15.103365054899076 3.589955476128311 0.9999999999999999
    vertex -15.103365054899054 0.189955476128335 0.9999999999999999
  endloop
endfacet
facet normal 0.0 0.0 1.0
  outer loop
    vertex -14.403365054899032 2.661794685636377 0.9999999999999998
    vertex -15.103365054899054 0.189955476128335 0.9999999999999999
    vertex -14.403365054899078 1.1046642926618624 0.9999999999999998
  endloop
endfacet
facet normal 0.0 0.0 1.0
  outer loop
    vertex -8.403365054899046 3.5899554761283654 1.0
    vertex -14.1886562383655 2.8899554761283697 0.9999999999999998
    vertex -12.731525845391038 2.8899554761283484 0.9999999999999998
  endloop
endfacet
facet normal 0.0 0.0 1.0
  outer loop
    vertex -8.403365054899046 3.5899554761283654 1.0
    vertex -12.731525845391038 2.8899554761283484 0.9999999999999998
    vertex -12.540036808900567 2.8121075087308895 0.9999999999999998
  endloop
endfacet
facet normal 0.0 0.0 1.0
  outer loop
    vertex -8.403365054899046 3.5899554761283654 1.0
    vertex -12.540036808900567 2.8121075087308895 0.9999999999999998
    vertex -12.503365054899103 2.6752466595947952 0.9999999999999998
  endloop
endfacet
facet normal 0.0 0.0 1.0
  outer loop
    vertex -8.403365054899046 3.5899554761283654 1.0
    vertex -12.503365054899103 2.6752466595947952 0.9999999999999998
    vertex -12.503365054899035 1.1181162666203528 0.9999999999999998
  endloop
endfacet
facet normal 0.2588190451023749 -0.9659258262891075 1.4292941998729062e-32
  outer loop
    vertex -12.581213022296472 7.826627230129793 4.2
    vertex -12.718073871432614 7.789955476128349 1.0000000000000004
    vertex -12.581213022296472 7.826627230129793 1.0000000000000004
  endloop
endfacet
facet normal 0.2588190451023749 -0.9659258262891075 1.4292941998729062e-32
  outer loop
    vertex -12.718073871432614 7.789955476128349 1.0000000000000004
    vertex -12.581213022296472 7.826627230129793 4.2
    vertex -12.718073871432614 7.789955476128349 4.2
  endloop
endfacet
facet normal 0.0 0.0 1.0
  outer loop
    vertex -14.366693300897568 0.9678034435258068 4.2
    vertex -14.403365054899032 2.661794685636377 4.2
    vertex -14.403365054899078 1.1046642926618624 4.2
  endloop
endfacet
facet normal 0.0 0.0 1.0
  outer loop
    vertex -14.403365054899032 2.661794685636377 4.2
    vertex -14.366693300897568 0.9678034435258068 4.2
    vertex -14.325517087501673 2.8532837221268466 4.2
  endloop
endfacet
facet normal 0.0 0.0 1.0
  outer loop
    vertex -14.325517087501673 2.8532837221268466 4.2
    vertex -14.366693300897568 0.9678034435258068 4.2
    vertex -14.17520426440704 0.8899554761283544 4.2
  endloop
endfacet
facet normal 0.0 0.0 1.0
  outer loop
    vertex -14.325517087501673 2.8532837221268466 4.2
    vertex -14.17520426440704 0.8899554761283544 4.2
    vertex -14.1886562383655 2.8899554761283697 4.2
  endloop
endfacet
facet normal 0.0 0.0 1.0
  outer loop
    vertex -14.1886562383655 2.8899554761283697 4.2
    vertex -14.17520426440704 0.8899554761283544 4.2
    vertex -12.731525845391038 2.8899554761283484 4.2
  endloop
endfacet
facet normal 0.0 0.0 1.0
  outer loop
    vertex -12.731525845391038 2.8899554761283484 4.2
    vertex -14.17520426440704 0.8899554761283544 4.2
    vertex -12.71807387143259 0.8899554761283712 4.2
  endloop
endfacet
facet normal 0.0 0.0 1.0
  outer loop
    vertex -12.731525845391038 2.8899554761283484 4.2
    vertex -12.71807387143259 0.8899554761283712 4.2
    vertex -12.540036808900567 2.8121075087308895 4.2
  endloop
endfacet
facet normal 0.0 0.0 1.0
  outer loop
    vertex -12.540036808900567 2.8121075087308895 4.2
    vertex -12.71807387143259 0.8899554761283712 4.2
    vertex -12.581213022296472 0.9266272301298275 4.2
  endloop
endfacet
facet normal 0.0 0.0 1.0
  outer loop
    vertex -12.540036808900567 2.8121075087308895 4.2
    vertex -12.581213022296472 0.9266272301298275 4.2
    vertex -12.503365054899035 1.1181162666203528 4.2
  endloop
endfacet
facet normal 0.0 0.0 1.0
  outer loop
    vertex -12.540036808900567 2.8121075087308895 4.2
    vertex -12.503365054899035 1.1181162666203528 4.2
    vertex -12.503365054899103 2.6752466595947952 4.2
  endloop
endfacet
facet normal -1.0 -6.635215253053925e-15 0.0
  outer loop
    vertex -15.103365054899076 3.589955476128311 0.9999999999999999
    vertex -15.103365054899054 0.189955476128335 -0.49999999999999994
    vertex -15.103365054899054 0.189955476128335 0.9999999999999999
  endloop
endfacet
facet normal -1.0 -6.635215253053925e-15 0.0
  outer loop
    vertex -15.103365054899054 0.189955476128335 -0.49999999999999994
    vertex -15.103365054899076 3.589955476128311 0.9999999999999999
    vertex -15.103365054899076 3.589955476128311 -0.49999999999999994
  endloop
endfacet
facet normal 0.9263728461422538 -0.376607687030284 -0.0
  outer loop
    vertex -12.503365054899035 1.1181162666203528 0.9999999999999998
    vertex -12.581213022296472 0.9266272301298275 4.2
    vertex -12.581213022296472 0.9266272301298275 0.9999999999999998
  endloop
endfacet
facet normal 0.9263728461422538 -0.376607687030284 -0.0
  outer loop
    vertex -12.581213022296472 0.9266272301298275 4.2
    vertex -12.503365054899035 1.1181162666203528 0.9999999999999998
    vertex -12.503365054899035 1.1181162666203528 4.2
  endloop
endfacet
facet normal 0.25881904510249365 -0.9659258262890756 -1.4292941998735614e-32
  outer loop
    vertex -12.581213022296472 0.9266272301298275 4.2
    vertex -12.71807387143259 0.8899554761283712 0.9999999999999998
    vertex -12.581213022296472 0.9266272301298275 0.9999999999999998
  endloop
endfacet
facet normal 0.25881904510249365 -0.9659258262890756 -1.4292941998735614e-32
  outer loop
    vertex -12.71807387143259 0.8899554761283712 0.9999999999999998
    vertex -12.581213022296472 0.9266272301298275 4.2
    vertex -12.71807387143259 0.8899554761283712 4.2
  endloop
endfacet
facet normal -1.0 0.0 0.0
  outer loop
    vertex -15.103365054899031 10.489955476128346 0.9999999999999999
    vertex -15.103365054899031 7.0899554761283525 -0.49999999999999994
    vertex -15.103365054899031 7.0899554761283525 0.9999999999999999
  endloop
endfacet
facet normal -1.0 0.0 0.0
  outer loop
    vertex -15.103365054899031 7.0899554761283525 -0.49999999999999994
    vertex -15.103365054899031 10.489955476128346 0.9999999999999999
    vertex -15.103365054899031 10.489955476128346 -0.49999999999999994
  endloop
endfacet
facet normal 1.0 7.244008582123016e-15 -0.0
  outer loop
    vertex -12.503365054899069 9.575246659594793 1.0000000000000004
    vertex -12.503365054899056 8.01811626662033 4.2
    vertex -12.503365054899056 8.01811626662033 1.0000000000000004
  endloop
endfacet
facet normal 1.0 7.244008582123016e-15 -0.0
  outer loop
    vertex -12.503365054899056 8.01811626662033 4.2
    vertex -12.503365054899069 9.575246659594793 1.0000000000000004
    vertex -12.503365054899069 9.575246659594793 4.2
  endloop
endfacet
facet normal 0.37660768703045927 0.9263728461421825 -4.781197040822674e-33
  outer loop
    vertex -12.731525845391038 2.8899554761283484 4.2
    vertex -12.540036808900567 2.8121075087308895 0.9999999999999998
    vertex -12.731525845391038 2.8899554761283484 0.9999999999999998
  endloop
endfacet
facet normal 0.37660768703045927 0.9263728461421825 -4.781197040822674e-33
  outer loop
    vertex -12.540036808900567 2.8121075087308895 0.9999999999999998
    vertex -12.731525845391038 2.8899554761283484 4.2
    vertex -12.540036808900567 2.8121075087308895 4.2
  endloop
endfacet
facet normal 0.0 0.0 -1.0
  outer loop
    vertex -8.403365054899037 7.08995547612833 1.2000000000000004
    vertex -6.903365054899055 3.589955476128336 1.2000000000000002
    vertex -8.403365054899046 3.5899554761283654 1.2000000000000004
  endloop
endfacet
facet normal 0.0 0.0 -1.0
  outer loop
    vertex -6.903365054899055 3.589955476128336 1.2000000000000002
    vertex -8.403365054899037 7.08995547612833 1.2000000000000004
    vertex -6.903365054899041 7.08995547612833 1.2000000000000002
  endloop
endfacet
facet normal -2.8462988732838685e-15 -1.0 -9.36262781723317e-16
  outer loop
    vertex -6.903365054899041 7.08995547612833 1.2000000000000002
    vertex -15.103365054899031 7.0899554761283525 -0.49999999999999994
    vertex -6.903365054899041 7.08995547612833 -0.49999999999999994
  endloop
endfacet
facet normal -2.8462988732838685e-15 -1.0 -9.36262781723317e-16
  outer loop
    vertex -15.103365054899031 7.0899554761283525 -0.49999999999999994
    vertex -6.903365054899041 7.08995547612833 1.2000000000000002
    vertex -8.403365054899037 7.08995547612833 1.0
  endloop
endfacet
facet normal -2.8462988732838685e-15 -1.0 -9.36262781723317e-16
  outer loop
    vertex -15.103365054899031 7.0899554761283525 -0.49999999999999994
    vertex -8.403365054899037 7.08995547612833 1.0
    vertex -15.103365054899031 7.0899554761283525 0.9999999999999999
  endloop
endfacet
facet normal -2.8462988732838685e-15 -1.0 -9.36262781723317e-16
  outer loop
    vertex -8.403365054899037 7.08995547612833 1.0
    vertex -6.903365054899041 7.08995547612833 1.2000000000000002
    vertex -8.403365054899037 7.08995547612833 1.2000000000000004
  endloop
endfacet
facet normal -1.4284908040267554e-18 -4.407225270100859e-33 -1.0
  outer loop
    vertex -6.903365054899055 3.589955476128336 -0.49999999999999994
    vertex -15.103365054899054 0.189955476128335 -0.49999999999999994
    vertex -15.103365054899076 3.589955476128311 -0.49999999999999994
  endloop
endfacet
facet normal -1.4284908040267554e-18 -4.407225270100859e-33 -1.0
  outer loop
    vertex -15.103365054899054 0.189955476128335 -0.49999999999999994
    vertex -6.903365054899055 3.589955476128336 -0.49999999999999994
    vertex -6.903365054899058 0.1899554761283477 -0.49999999999999994
  endloop
endfacet
facet normal 0.0 0.0 1.0
  outer loop
    vertex -14.403365054899032 8.004664292661909 4.2
    vertex -14.32551708750164 9.75328372212688 4.2
    vertex -14.403365054899089 9.561794685636338 4.2
  endloop
endfacet
facet normal 0.0 0.0 1.0
  outer loop
    vertex -14.32551708750164 9.75328372212688 4.2
    vertex -14.403365054899032 8.004664292661909 4.2
    vertex -14.366693300897614 7.867803443525765 4.2
  endloop
endfacet
facet normal 0.0 0.0 1.0
  outer loop
    vertex -14.32551708750164 9.75328372212688 4.2
    vertex -14.366693300897614 7.867803443525765 4.2
    vertex -14.17520426440704 7.789955476128323 4.2
  endloop
endfacet
facet normal 0.0 0.0 1.0
  outer loop
    vertex -14.32551708750164 9.75328372212688 4.2
    vertex -14.17520426440704 7.789955476128323 4.2
    vertex -14.188656238365523 9.789955476128323 4.2
  endloop
endfacet
facet normal 0.0 0.0 1.0
  outer loop
    vertex -14.188656238365523 9.789955476128323 4.2
    vertex -14.17520426440704 7.789955476128323 4.2
    vertex -12.73152584539105 9.78995547612833 4.2
  endloop
endfacet
facet normal 0.0 0.0 1.0
  outer loop
    vertex -12.73152584539105 9.78995547612833 4.2
    vertex -14.17520426440704 7.789955476128323 4.2
    vertex -12.718073871432614 7.789955476128349 4.2
  endloop
endfacet
facet normal 0.0 0.0 1.0
  outer loop
    vertex -12.73152584539105 9.78995547612833 4.2
    vertex -12.718073871432614 7.789955476128349 4.2
    vertex -12.54003680890051 9.712107508730927 4.2
  endloop
endfacet
facet normal 0.0 0.0 1.0
  outer loop
    vertex -12.54003680890051 9.712107508730927 4.2
    vertex -12.718073871432614 7.789955476128349 4.2
    vertex -12.581213022296472 7.826627230129793 4.2
  endloop
endfacet
facet normal 0.0 0.0 1.0
  outer loop
    vertex -12.54003680890051 9.712107508730927 4.2
    vertex -12.581213022296472 7.826627230129793 4.2
    vertex -12.503365054899056 8.01811626662033 4.2
  endloop
endfacet
facet normal 0.0 0.0 1.0
  outer loop
    vertex -12.54003680890051 9.712107508730927 4.2
    vertex -12.503365054899056 8.01811626662033 4.2
    vertex -12.503365054899069 9.575246659594793 4.2
  endloop
endfacet
facet normal -0.37660768703021236 -0.9263728461422829 0.0
  outer loop
    vertex -14.17520426440704 7.789955476128323 4.2
    vertex -14.366693300897614 7.867803443525765 1.0000000000000004
    vertex -14.17520426440704 7.789955476128323 1.0000000000000004
  endloop
endfacet
facet normal -0.37660768703021236 -0.9263728461422829 0.0
  outer loop
    vertex -14.366693300897614 7.867803443525765 1.0000000000000004
    vertex -14.17520426440704 7.789955476128323 4.2
    vertex -14.366693300897614 7.867803443525765 4.2
  endloop
endfacet
facet normal -0.965925826288953 -0.25881904510295123 0.0
  outer loop
    vertex -14.403365054899078 1.1046642926618624 4.2
    vertex -14.366693300897568 0.9678034435258068 0.9999999999999998
    vertex -14.366693300897568 0.9678034435258068 4.2
  endloop
endfacet
facet normal -0.965925826288953 -0.25881904510295123 0.0
  outer loop
    vertex -14.366693300897568 0.9678034435258068 0.9999999999999998
    vertex -14.403365054899078 1.1046642926618624 4.2
    vertex -14.403365054899078 1.1046642926618624 0.9999999999999998
  endloop
endfacet
facet normal -1.0 -3.622004291061586e-14 0.0
  outer loop
    vertex -14.403365054899089 9.561794685636338 4.2
    vertex -14.403365054899032 8.004664292661909 1.0000000000000004
    vertex -14.403365054899032 8.004664292661909 4.2
  endloop
endfacet
facet normal -1.0 -3.622004291061586e-14 0.0
  outer loop
    vertex -14.403365054899032 8.004664292661909 1.0000000000000004
    vertex -14.403365054899089 9.561794685636338 4.2
    vertex -14.403365054899089 9.561794685636338 1.0000000000000004
  endloop
endfacet
facet normal 0.965925826289109 0.2588190451023687 -0.0
  outer loop
    vertex -12.54003680890051 9.712107508730927 1.0000000000000004
    vertex -12.503365054899069 9.575246659594793 4.2
    vertex -12.503365054899069 9.575246659594793 1.0000000000000004
  endloop
endfacet
facet normal 0.965925826289109 0.2588190451023687 -0.0
  outer loop
    vertex -12.503365054899069 9.575246659594793 4.2
    vertex -12.54003680890051 9.712107508730927 1.0000000000000004
    vertex -12.54003680890051 9.712107508730927 4.2
  endloop
endfacet
facet normal -1.4284908040267575e-18 2.5891194711014667e-33 -1.0
  outer loop
    vertex -6.903365054899029 10.489955476128344 -0.49999999999999994
    vertex -15.103365054899031 7.0899554761283525 -0.49999999999999994
    vertex -15.103365054899031 10.489955476128346 -0.49999999999999994
  endloop
endfacet
facet normal -1.4284908040267575e-18 2.5891194711014667e-33 -1.0
  outer loop
    vertex -15.103365054899031 7.0899554761283525 -0.49999999999999994
    vertex -6.903365054899029 10.489955476128344 -0.49999999999999994
    vertex -6.903365054899041 7.08995547612833 -0.49999999999999994
  endloop
endfacet
facet normal -0.9263728461422474 0.3766076870302999 0.0
  outer loop
    vertex -14.32551708750164 9.75328372212688 4.2
    vertex -14.403365054899089 9.561794685636338 1.0000000000000004
    vertex -14.403365054899089 9.561794685636338 4.2
  endloop
endfacet
facet normal -0.9263728461422474 0.3766076870302999 0.0
  outer loop
    vertex -14.403365054899089 9.561794685636338 1.0000000000000004
    vertex -14.32551708750164 9.75328372212688 4.2
    vertex -14.32551708750164 9.75328372212688 1.0000000000000004
  endloop
endfacet
facet normal 0.0 0.0 1.0
  outer loop
    vertex -15.103365054899031 7.0899554761283525 0.9999999999999999
    vertex -14.366693300897614 7.867803443525765 1.0000000000000004
    vertex -15.103365054899031 10.489955476128346 0.9999999999999999
  endloop
endfacet
facet normal 0.0 0.0 1.0
  outer loop
    vertex -14.366693300897614 7.867803443525765 1.0000000000000004
    vertex -15.103365054899031 7.0899554761283525 0.9999999999999999
    vertex -14.17520426440704 7.789955476128323 1.0000000000000004
  endloop
endfacet
facet normal 0.0 0.0 1.0
  outer loop
    vertex -14.17520426440704 7.789955476128323 1.0000000000000004
    vertex -15.103365054899031 7.0899554761283525 0.9999999999999999
    vertex -8.403365054899037 7.08995547612833 1.0
  endloop
endfacet
facet normal 0.0 0.0 1.0
  outer loop
    vertex -15.103365054899031 10.489955476128346 0.9999999999999999
    vertex -14.366693300897614 7.867803443525765 1.0000000000000004
    vertex -14.403365054899032 8.004664292661909 1.0000000000000004
  endloop
endfacet
facet normal 0.0 0.0 1.0
  outer loop
    vertex -15.103365054899031 10.489955476128346 0.9999999999999999
    vertex -14.403365054899032 8.004664292661909 1.0000000000000004
    vertex -14.403365054899089 9.561794685636338 1.0000000000000004
  endloop
endfacet
facet normal 0.0 0.0 1.0
  outer loop
    vertex -14.17520426440704 7.789955476128323 1.0000000000000004
    vertex -8.403365054899037 7.08995547612833 1.0
    vertex -12.718073871432614 7.789955476128349 1.0000000000000004
  endloop
endfacet
facet normal 0.0 0.0 1.0
  outer loop
    vertex -12.718073871432614 7.789955476128349 1.0000000000000004
    vertex -8.403365054899037 7.08995547612833 1.0
    vertex -12.581213022296472 7.826627230129793 1.0000000000000004
  endloop
endfacet
facet normal 0.0 0.0 1.0
  outer loop
    vertex -12.581213022296472 7.826627230129793 1.0000000000000004
    vertex -8.403365054899037 7.08995547612833 1.0
    vertex -12.503365054899056 8.01811626662033 1.0000000000000004
  endloop
endfacet
facet normal 0.0 0.0 1.0
  outer loop
    vertex -12.503365054899056 8.01811626662033 1.0000000000000004
    vertex -8.403365054899037 7.08995547612833 1.0
    vertex -8.403365054899043 10.489955476128333 1.0
  endloop
endfacet
facet normal 0.0 0.0 1.0
  outer loop
    vertex -15.103365054899031 10.489955476128346 0.9999999999999999
    vertex -14.188656238365523 9.789955476128323 1.0000000000000004
    vertex -8.403365054899043 10.489955476128333 1.0
  endloop
endfacet
facet normal 0.0 0.0 1.0
  outer loop
    vertex -14.188656238365523 9.789955476128323 1.0000000000000004
    vertex -15.103365054899031 10.489955476128346 0.9999999999999999
    vertex -14.32551708750164 9.75328372212688 1.0000000000000004
  endloop
endfacet
facet normal 0.0 0.0 1.0
  outer loop
    vertex -14.32551708750164 9.75328372212688 1.0000000000000004
    vertex -15.103365054899031 10.489955476128346 0.9999999999999999
    vertex -14.403365054899089 9.561794685636338 1.0000000000000004
  endloop
endfacet
facet normal 0.0 0.0 1.0
  outer loop
    vertex -8.403365054899043 10.489955476128333 1.0
    vertex -14.188656238365523 9.789955476128323 1.0000000000000004
    vertex -12.73152584539105 9.78995547612833 1.0000000000000004
  endloop
endfacet
facet normal 0.0 0.0 1.0
  outer loop
    vertex -8.403365054899043 10.489955476128333 1.0
    vertex -12.73152584539105 9.78995547612833 1.0000000000000004
    vertex -12.54003680890051 9.712107508730927 1.0000000000000004
  endloop
endfacet
facet normal 0.0 0.0 1.0
  outer loop
    vertex -8.403365054899043 10.489955476128333 1.0
    vertex -12.54003680890051 9.712107508730927 1.0000000000000004
    vertex -12.503365054899069 9.575246659594793 1.0000000000000004
  endloop
endfacet
facet normal 0.0 0.0 1.0
  outer loop
    vertex -8.403365054899043 10.489955476128333 1.0
    vertex -12.503365054899069 9.575246659594793 1.0000000000000004
    vertex -12.503365054899056 8.01811626662033 1.0000000000000004
  endloop
endfacet
facet normal 1.0 4.346405149273865e-14 -0.0
  outer loop
    vertex -12.503365054899103 2.6752466595947952 0.9999999999999998
    vertex -12.503365054899035 1.1181162666203528 4.2
    vertex -12.503365054899035 1.1181162666203528 0.9999999999999998
  endloop
endfacet
facet normal 1.0 4.346405149273865e-14 -0.0
  outer loop
    vertex -12.503365054899035 1.1181162666203528 4.2
    vertex -12.503365054899103 2.6752466595947952 0.9999999999999998
    vertex -12.503365054899103 2.6752466595947952 4.2
  endloop
endfacet
facet normal -0.25881904510239867 0.9659258262891011 -0.0
  outer loop
    vertex -14.32551708750164 9.75328372212688 4.2
    vertex -14.188656238365523 9.789955476128323 1.0000000000000004
    vertex -14.32551708750164 9.75328372212688 1.0000000000000004
  endloop
endfacet
facet normal -0.25881904510239867 0.9659258262891011 -0.0
  outer loop
    vertex -14.188656238365523 9.789955476128323 1.0000000000000004
    vertex -14.32551708750164 9.75328372212688 4.2
    vertex -14.188656238365523 9.789955476128323 4.2
  endloop
endfacet
facet normal 1.0 -2.8616472683977166e-15 -1.0211255421438643e-15
  outer loop
    vertex -6.903365054899029 10.489955476128344 -0.49999999999999994
    vertex -6.903365054899041 7.08995547612833 1.2000000000000002
    vertex -6.903365054899041 7.08995547612833 -0.49999999999999994
  endloop
endfacet
facet normal 1.0 -2.8616472683977166e-15 -1.0211255421438643e-15
  outer loop
    vertex -6.903365054899041 7.08995547612833 1.2000000000000002
    vertex -6.903365054899029 10.489955476128344 -0.49999999999999994
    vertex -6.903365054899036 7.796497134788647 2.2
  endloop
endfacet
facet normal 1.0 -2.8616472683977166e-15 -1.0211255421438643e-15
  outer loop
    vertex -6.903365054899036 7.796497134788647 2.2
    vertex -6.903365054899029 10.489955476128344 -0.49999999999999994
    vertex -6.903365054899031 9.796497134788646 2.2
  endloop
endfacet
facet normal 1.0 -2.8616472683977166e-15 -1.0211255421438643e-15
  outer loop
    vertex -6.903365054899031 9.796497134788646 2.2
    vertex -6.903365054899029 10.489955476128344 -0.49999999999999994
    vertex -6.903365054899029 10.489955476128344 2.2
  endloop
endfacet
facet normal 1.0 -2.8616472683977166e-15 -1.0211255421438643e-15
  outer loop
    vertex -6.903365054899055 3.589955476128336 -0.49999999999999994
    vertex -6.903365054899058 0.1899554761283477 2.2
    vertex -6.903365054899058 0.1899554761283477 -0.49999999999999994
  endloop
endfacet
facet normal 1.0 -2.8616472683977166e-15 -1.0211255421438643e-15
  outer loop
    vertex -6.903365054899058 0.1899554761283477 2.2
    vertex -6.903365054899055 3.589955476128336 -0.49999999999999994
    vertex -6.903365054899058 0.382534491649371 2.2
  endloop
endfacet
facet normal 1.0 -2.8616472683977166e-15 -1.0211255421438643e-15
  outer loop
    vertex -6.903365054899058 0.382534491649371 2.2
    vertex -6.903365054899055 3.589955476128336 -0.49999999999999994
    vertex -6.9033650548990515 2.3825344916493707 2.2
  endloop
endfacet
facet normal 1.0 -2.8616472683977166e-15 -1.0211255421438643e-15
  outer loop
    vertex -6.9033650548990515 2.3825344916493707 2.2
    vertex -6.903365054899055 3.589955476128336 -0.49999999999999994
    vertex -6.903365054899055 3.589955476128336 1.2000000000000002
  endloop
endfacet
facet normal 1.0 -2.8616472683977166e-15 -1.0211255421438643e-15
  outer loop
    vertex -6.9033650548990515 2.3825344916493707 2.2
    vertex -6.903365054899055 3.589955476128336 1.2000000000000002
    vertex -6.903365054899036 7.796497134788647 2.2
  endloop
endfacet
facet normal 1.0 -2.8616472683977166e-15 -1.0211255421438643e-15
  outer loop
    vertex -6.903365054899036 7.796497134788647 2.2
    vertex -6.903365054899055 3.589955476128336 1.2000000000000002
    vertex -6.903365054899041 7.08995547612833 1.2000000000000002
  endloop
endfacet
facet normal -0.9263728461422891 0.3766076870301973 2.73724269618858e-32
  outer loop
    vertex -0.02215203260257892 2.8633282459985376 4.2
    vertex -0.10000000000000013 2.6718392095080032 1.0000000000000004
    vertex -0.10000000000000013 2.6718392095080032 4.2
  endloop
endfacet
facet normal -0.9263728461422891 0.3766076870301973 2.73724269618858e-32
  outer loop
    vertex -0.10000000000000013 2.6718392095080032 1.0000000000000004
    vertex -0.02215203260257892 2.8633282459985376 4.2
    vertex -0.02215203260257892 2.8633282459985376 1.0000000000000004
  endloop
endfacet
facet normal -0.258819045102521 0.9659258262890683 2.482267678214451e-32
  outer loop
    vertex -0.02215203260257892 2.8633282459985376 4.2
    vertex 0.1147088165335455 2.9 1.0000000000000004
    vertex -0.02215203260257892 2.8633282459985376 1.0000000000000004
  endloop
endfacet
facet normal -0.258819045102521 0.9659258262890683 2.482267678214451e-32
  outer loop
    vertex 0.1147088165335455 2.9 1.0000000000000004
    vertex -0.02215203260257892 2.8633282459985376 4.2
    vertex 0.1147088165335455 2.9 4.2
  endloop
endfacet
facet normal -1.0 1.6978145114350866e-16 2.1435582371759157e-32
  outer loop
    vertex -0.10000000000000013 2.6718392095080032 4.2
    vertex -0.1000000000000004 1.114708816533545 1.0000000000000004
    vertex -0.1000000000000004 1.114708816533545 4.2
  endloop
endfacet
facet normal -1.0 1.6978145114350866e-16 2.1435582371759157e-32
  outer loop
    vertex -0.1000000000000004 1.114708816533545 1.0000000000000004
    vertex -0.10000000000000013 2.6718392095080032 4.2
    vertex -0.10000000000000013 2.6718392095080032 1.0000000000000004
  endloop
endfacet
facet normal -0.9659258262890683 -0.2588190451025205 1.554053164494613e-32
  outer loop
    vertex -0.1000000000000004 1.114708816533545 4.2
    vertex -0.0633282459985384 0.9778479673974215 1.0000000000000004
    vertex -0.0633282459985384 0.9778479673974215 4.2
  endloop
endfacet
facet normal -0.9659258262890683 -0.2588190451025205 1.554053164494613e-32
  outer loop
    vertex -0.0633282459985384 0.9778479673974215 1.0000000000000004
    vertex -0.1000000000000004 1.114708816533545 4.2
    vertex -0.1000000000000004 1.114708816533545 1.0000000000000004
  endloop
endfacet
facet normal -0.0 1.0 1.9954679020768948e-32
  outer loop
    vertex 0.1147088165335455 2.9 4.2
    vertex 1.5718392095080034 2.9 1.0000000000000004
    vertex 0.1147088165335455 2.9 1.0000000000000004
  endloop
endfacet
facet normal -0.0 1.0 1.9954679020768948e-32
  outer loop
    vertex 1.5718392095080034 2.9 1.0000000000000004
    vertex 0.1147088165335455 2.9 4.2
    vertex 1.5718392095080034 2.9 4.2
  endloop
endfacet
facet normal 0.37660768703019853 0.9263728461422884 1.0412667701152028e-32
  outer loop
    vertex 1.5718392095080034 2.9 4.2
    vertex 1.7633282459985375 2.8221520326025784 1.0000000000000004
    vertex 1.5718392095080034 2.9 1.0000000000000004
  endloop
endfacet
facet normal 0.37660768703019853 0.9263728461422884 1.0412667701152028e-32
  outer loop
    vertex 1.7633282459985375 2.8221520326025784 1.0000000000000004
    vertex 1.5718392095080034 2.9 4.2
    vertex 1.7633282459985375 2.8221520326025784 4.2
  endloop
endfacet
facet normal 0.9659258262890683 0.2588190451025213 -1.5540531644946114e-32
  outer loop
    vertex 1.7633282459985375 2.8221520326025784 1.0000000000000004
    vertex 1.7999999999999998 2.6852911834664543 4.2
    vertex 1.7999999999999998 2.6852911834664543 1.0000000000000004
  endloop
endfacet
facet normal 0.9659258262890683 0.2588190451025213 -1.5540531644946114e-32
  outer loop
    vertex 1.7999999999999998 2.6852911834664543 4.2
    vertex 1.7633282459985375 2.8221520326025784 1.0000000000000004
    vertex 1.7633282459985375 2.8221520326025784 4.2
  endloop
endfacet
facet normal 1.0 -0.0 -2.1435582371759152e-32
  outer loop
    vertex 1.7999999999999998 2.6852911834664543 1.0000000000000004
    vertex 1.7999999999999998 1.1281607904919964 4.2
    vertex 1.7999999999999998 1.1281607904919964 1.0000000000000004
  endloop
endfacet
facet normal 1.0 -0.0 -2.1435582371759152e-32
  outer loop
    vertex 1.7999999999999998 1.1281607904919964 4.2
    vertex 1.7999999999999998 2.6852911834664543 1.0000000000000004
    vertex 1.7999999999999998 2.6852911834664543 4.2
  endloop
endfacet
facet normal 0.9263728461422893 -0.37660768703019687 -2.7372426961885794e-32
  outer loop
    vertex 1.7999999999999998 1.1281607904919964 1.0000000000000004
    vertex 1.7221520326025788 0.9366717540014619 4.2
    vertex 1.7221520326025788 0.9366717540014619 1.0000000000000004
  endloop
endfacet
facet normal 0.9263728461422893 -0.37660768703019687 -2.7372426961885794e-32
  outer loop
    vertex 1.7221520326025788 0.9366717540014619 4.2
    vertex 1.7999999999999998 1.1281607904919964 1.0000000000000004
    vertex 1.7999999999999998 1.1281607904919964 4.2
  endloop
endfacet
facet normal 0.2588190451025213 -0.9659258262890683 -2.482267678214452e-32
  outer loop
    vertex 1.7221520326025788 0.9366717540014619 4.2
    vertex 1.5852911834664545 0.8999999999999996 1.0000000000000004
    vertex 1.7221520326025788 0.9366717540014619 1.0000000000000004
  endloop
endfacet
facet normal 0.2588190451025213 -0.9659258262890683 -2.482267678214452e-32
  outer loop
    vertex 1.5852911834664545 0.8999999999999996 1.0000000000000004
    vertex 1.7221520326025788 0.9366717540014619 4.2
    vertex 1.5852911834664545 0.8999999999999996 4.2
  endloop
endfacet
facet normal -1.2095547935107345e-16 -1.0 -1.9954679020768943e-32
  outer loop
    vertex 1.5852911834664545 0.8999999999999996 4.2
    vertex 0.12816079049199655 0.8999999999999998 1.0000000000000004
    vertex 1.5852911834664545 0.8999999999999996 1.0000000000000004
  endloop
endfacet
facet normal -1.2095547935107345e-16 -1.0 -1.9954679020768943e-32
  outer loop
    vertex 0.12816079049199655 0.8999999999999998 1.0000000000000004
    vertex 1.5852911834664545 0.8999999999999996 4.2
    vertex 0.12816079049199655 0.8999999999999998 4.2
  endloop
endfacet
facet normal -0.3766076870301988 -0.9263728461422883 -1.041266770115202e-32
  outer loop
    vertex 0.12816079049199655 0.8999999999999998 4.2
    vertex -0.0633282459985384 0.9778479673974215 1.0000000000000004
    vertex 0.12816079049199655 0.8999999999999998 1.0000000000000004
  endloop
endfacet
facet normal -0.3766076870301988 -0.9263728461422883 -1.041266770115202e-32
  outer loop
    vertex -0.0633282459985384 0.9778479673974215 1.0000000000000004
    vertex 0.12816079049199655 0.8999999999999998 4.2
    vertex -0.0633282459985384 0.9778479673974215 4.2
  endloop
endfacet
facet normal 0.9263728461422885 -0.37660768703019853 -3.285427695914523e-32
  outer loop
    vertex 1.7999999999999998 8.028160790491997 0.9999999999999998
    vertex 1.722152032602578 7.836671754001461 4.2
    vertex 1.722152032602578 7.836671754001461 0.9999999999999998
  endloop
endfacet
facet normal 0.9263728461422885 -0.37660768703019853 -3.285427695914523e-32
  outer loop
    vertex 1.722152032602578 7.836671754001461 4.2
    vertex 1.7999999999999998 8.028160790491997 0.9999999999999998
    vertex 1.7999999999999998 8.028160790491997 4.2
  endloop
endfacet
facet normal 0.2588190451025124 -0.9659258262890705 -3.807556951391594e-34
  outer loop
    vertex 1.722152032602578 7.836671754001461 4.2
    vertex 1.5852911834664527 7.8 0.9999999999999998
    vertex 1.722152032602578 7.836671754001461 0.9999999999999998
  endloop
endfacet
facet normal 0.2588190451025124 -0.9659258262890705 -3.807556951391594e-34
  outer loop
    vertex 1.5852911834664527 7.8 0.9999999999999998
    vertex 1.722152032602578 7.836671754001461 4.2
    vertex 1.5852911834664527 7.8 4.2
  endloop
endfacet
facet normal 1.0 -0.0 -3.9621276129660943e-32
  outer loop
    vertex 1.7999999999999998 9.585291183466452 0.9999999999999998
    vertex 1.7999999999999998 8.028160790491997 4.2
    vertex 1.7999999999999998 8.028160790491997 0.9999999999999998
  endloop
endfacet
facet normal 1.0 -0.0 -3.9621276129660943e-32
  outer loop
    vertex 1.7999999999999998 8.028160790491997 4.2
    vertex 1.7999999999999998 9.585291183466452 0.9999999999999998
    vertex 1.7999999999999998 9.585291183466452 4.2
  endloop
endfacet
facet normal -0.0 -1.0 1.0222301640299745e-32
  outer loop
    vertex 1.5852911834664527 7.8 4.2
    vertex 0.1281607904919992 7.8 0.9999999999999998
    vertex 1.5852911834664527 7.8 0.9999999999999998
  endloop
endfacet
facet normal -0.0 -1.0 1.0222301640299745e-32
  outer loop
    vertex 0.1281607904919992 7.8 0.9999999999999998
    vertex 1.5852911834664527 7.8 4.2
    vertex 0.1281607904919992 7.8 4.2
  endloop
endfacet
facet normal -0.37660768703019354 -0.9263728461422905 2.43913398250257e-32
  outer loop
    vertex 0.1281607904919992 7.8 4.2
    vertex -0.06332824599853802 7.877847967397421 0.9999999999999998
    vertex 0.1281607904919992 7.8 0.9999999999999998
  endloop
endfacet
facet normal -0.37660768703019354 -0.9263728461422905 2.43913398250257e-32
  outer loop
    vertex -0.06332824599853802 7.877847967397421 0.9999999999999998
    vertex 0.1281607904919992 7.8 4.2
    vertex -0.06332824599853802 7.877847967397421 4.2
  endloop
endfacet
facet normal -0.9659258262890683 -0.2588190451025212 4.091694023346239e-32
  outer loop
    vertex -0.1000000000000004 8.014708816533545 4.2
    vertex -0.06332824599853802 7.877847967397421 0.9999999999999998
    vertex -0.06332824599853802 7.877847967397421 4.2
  endloop
endfacet
facet normal -0.9659258262890683 -0.2588190451025212 4.091694023346239e-32
  outer loop
    vertex -0.06332824599853802 7.877847967397421 0.9999999999999998
    vertex -0.1000000000000004 8.014708816533545 4.2
    vertex -0.1000000000000004 8.014708816533545 0.9999999999999998
  endloop
endfacet
facet normal -1.0 1.697814511435088e-16 3.9621276129660943e-32
  outer loop
    vertex -0.10000000000000013 9.571839209508003 4.2
    vertex -0.1000000000000004 8.014708816533545 0.9999999999999998
    vertex -0.1000000000000004 8.014708816533545 4.2
  endloop
endfacet
facet normal -1.0 1.697814511435088e-16 3.9621276129660943e-32
  outer loop
    vertex -0.1000000000000004 8.014708816533545 0.9999999999999998
    vertex -0.10000000000000013 9.571839209508003 4.2
    vertex -0.10000000000000013 9.571839209508003 0.9999999999999998
  endloop
endfacet
facet normal -0.9263728461422884 0.3766076870301988 3.285427695914522e-32
  outer loop
    vertex -0.022152032602578836 9.763328245998537 4.2
    vertex -0.10000000000000013 9.571839209508003 0.9999999999999998
    vertex -0.10000000000000013 9.571839209508003 4.2
  endloop
endfacet
facet normal -0.9263728461422884 0.3766076870301988 3.285427695914522e-32
  outer loop
    vertex -0.10000000000000013 9.571839209508003 0.9999999999999998
    vertex -0.022152032602578836 9.763328245998537 4.2
    vertex -0.022152032602578836 9.763328245998537 0.9999999999999998
  endloop
endfacet
facet normal -0.25881904510252113 0.9659258262890683 3.807556951395274e-34
  outer loop
    vertex -0.022152032602578836 9.763328245998537 4.2
    vertex 0.11470881653354684 9.799999999999999 0.9999999999999998
    vertex -0.022152032602578836 9.763328245998537 0.9999999999999998
  endloop
endfacet
facet normal -0.25881904510252113 0.9659258262890683 3.807556951395274e-34
  outer loop
    vertex 0.11470881653354684 9.799999999999999 0.9999999999999998
    vertex -0.022152032602578836 9.763328245998537 4.2
    vertex 0.11470881653354684 9.799999999999999 4.2
  endloop
endfacet
facet normal -0.0 1.0 -1.0222301640299746e-32
  outer loop
    vertex 0.11470881653354684 9.799999999999999 4.2
    vertex 1.5718392095080007 9.799999999999999 0.9999999999999998
    vertex 0.11470881653354684 9.799999999999999 0.9999999999999998
  endloop
endfacet
facet normal -0.0 1.0 -1.0222301640299746e-32
  outer loop
    vertex 1.5718392095080007 9.799999999999999 0.9999999999999998
    vertex 0.11470881653354684 9.799999999999999 4.2
    vertex 1.5718392095080007 9.799999999999999 4.2
  endloop
endfacet
facet normal 0.3766076870301941 0.9263728461422903 -2.4391339825025725e-32
  outer loop
    vertex 1.5718392095080007 9.799999999999999 4.2
    vertex 1.7633282459985375 9.722152032602578 0.9999999999999998
    vertex 1.5718392095080007 9.799999999999999 0.9999999999999998
  endloop
endfacet
facet normal 0.3766076870301941 0.9263728461422903 -2.4391339825025725e-32
  outer loop
    vertex 1.7633282459985375 9.722152032602578 0.9999999999999998
    vertex 1.5718392095080007 9.799999999999999 4.2
    vertex 1.7633282459985375 9.722152032602578 4.2
  endloop
endfacet
facet normal 0.9659258262890684 0.2588190451025207 -4.09169402334624e-32
  outer loop
    vertex 1.7633282459985375 9.722152032602578 0.9999999999999998
    vertex 1.7999999999999998 9.585291183466452 4.2
    vertex 1.7999999999999998 9.585291183466452 0.9999999999999998
  endloop
endfacet
facet normal 0.9659258262890684 0.2588190451025207 -4.09169402334624e-32
  outer loop
    vertex 1.7999999999999998 9.585291183466452 4.2
    vertex 1.7633282459985375 9.722152032602578 0.9999999999999998
    vertex 1.7633282459985375 9.722152032602578 4.2
  endloop
endfacet
facet normal -0.0 1.0 -0.0
  outer loop
    vertex -5.700000000000001 3.5999999999999996 1.2000000000000002
    vertex 2.4999999999999996 3.5999999999999996 -0.49999999999999994
    vertex -5.700000000000001 3.5999999999999996 -0.49999999999999994
  endloop
endfacet
facet normal -0.0 1.0 -0.0
  outer loop
    vertex 2.4999999999999996 3.5999999999999996 -0.49999999999999994
    vertex -5.700000000000001 3.5999999999999996 1.2000000000000002
    vertex -4.200000000000001 3.5999999999999996 0.9999999999999999
  endloop
endfacet
facet normal -0.0 1.0 -0.0
  outer loop
    vertex -4.200000000000001 3.5999999999999996 0.9999999999999999
    vertex -5.700000000000001 3.5999999999999996 1.2000000000000002
    vertex -4.200000000000001 3.5999999999999996 1.2000000000000002
  endloop
endfacet
facet normal -0.0 1.0 -0.0
  outer loop
    vertex 2.4999999999999996 3.5999999999999996 0.9999999999999999
    vertex 2.4999999999999996 3.5999999999999996 -0.49999999999999994
    vertex -4.200000000000001 3.5999999999999996 0.9999999999999999
  endloop
endfacet
facet normal 0.0 0.0 -1.0
  outer loop
    vertex -4.200000000000001 7.1 1.2000000000000002
    vertex -5.700000000000001 3.5999999999999996 1.2000000000000002
    vertex -5.700000000000002 7.1 1.2000000000000002
  endloop
endfacet
facet normal 0.0 0.0 -1.0
  outer loop
    vertex -5.700000000000001 3.5999999999999996 1.2000000000000002
    vertex -4.200000000000001 7.1 1.2000000000000002
    vertex -4.200000000000001 3.5999999999999996 1.2000000000000002
  endloop
endfacet
facet normal -1.0 -8.429895475476762e-17 -6.791302477046348e-18
  outer loop
    vertex -5.700000000000002 7.796497134788647 2.2
    vertex -5.700000000000001 3.5999999999999996 1.2000000000000002
    vertex -5.700000000000001 2.382534491649371 2.2
  endloop
endfacet
facet normal -1.0 -8.429895475476762e-17 -6.791302477046348e-18
  outer loop
    vertex -5.700000000000001 3.5999999999999996 1.2000000000000002
    vertex -5.700000000000002 7.796497134788647 2.2
    vertex -5.700000000000002 7.1 1.2000000000000002
  endloop
endfacet
facet normal -1.0 -8.429895475476762e-17 -6.791302477046348e-18
  outer loop
    vertex -5.700000000000002 7.1 1.2000000000000002
    vertex -5.700000000000002 7.796497134788647 2.2
    vertex -5.700000000000002 7.1 -0.49999999999999994
  endloop
endfacet
facet normal -1.0 -8.429895475476762e-17 -6.791302477046348e-18
  outer loop
    vertex -5.700000000000002 7.1 -0.49999999999999994
    vertex -5.700000000000002 7.796497134788647 2.2
    vertex -5.700000000000002 10.5 -0.49999999999999994
  endloop
endfacet
facet normal -1.0 -8.429895475476762e-17 -6.791302477046348e-18
  outer loop
    vertex -5.700000000000002 10.5 -0.49999999999999994
    vertex -5.700000000000002 7.796497134788647 2.2
    vertex -5.700000000000002 9.796497134788646 2.2
  endloop
endfacet
facet normal -1.0 -8.429895475476762e-17 -6.791302477046348e-18
  outer loop
    vertex -5.700000000000002 10.5 -0.49999999999999994
    vertex -5.700000000000002 9.796497134788646 2.2
    vertex -5.700000000000002 10.5 2.2
  endloop
endfacet
facet normal -1.0 -8.429895475476762e-17 -6.791302477046348e-18
  outer loop
    vertex -5.700000000000001 0.382534491649371 2.2
    vertex -5.700000000000001 0.20000000000000004 -0.49999999999999994
    vertex -5.700000000000001 0.20000000000000004 2.2
  endloop
endfacet
facet normal -1.0 -8.429895475476762e-17 -6.791302477046348e-18
  outer loop
    vertex -5.700000000000001 0.20000000000000004 -0.49999999999999994
    vertex -5.700000000000001 0.382534491649371 2.2
    vertex -5.700000000000001 3.5999999999999996 -0.49999999999999994
  endloop
endfacet
facet normal -1.0 -8.429895475476762e-17 -6.791302477046348e-18
  outer loop
    vertex -5.700000000000001 3.5999999999999996 -0.49999999999999994
    vertex -5.700000000000001 0.382534491649371 2.2
    vertex -5.700000000000001 2.382534491649371 2.2
  endloop
endfacet
facet normal -1.0 -8.429895475476762e-17 -6.791302477046348e-18
  outer loop
    vertex -5.700000000000001 3.5999999999999996 -0.49999999999999994
    vertex -5.700000000000001 2.382534491649371 2.2
    vertex -5.700000000000001 3.5999999999999996 1.2000000000000002
  endloop
endfacet
facet normal 0.0 0.0 -1.0
  outer loop
    vertex 2.4999999999999996 10.5 -0.49999999999999994
    vertex -5.700000000000002 7.1 -0.49999999999999994
    vertex -5.700000000000002 10.5 -0.49999999999999994
  endloop
endfacet
facet normal 0.0 0.0 -1.0
  outer loop
    vertex -5.700000000000002 7.1 -0.49999999999999994
    vertex 2.4999999999999996 10.5 -0.49999999999999994
    vertex 2.4999999999999996 7.1 -0.49999999999999994
  endloop
endfacet
facet normal 0.0 0.0 -1.0
  outer loop
    vertex 2.4999999999999996 3.5999999999999996 -0.49999999999999994
    vertex -5.700000000000001 0.20000000000000004 -0.49999999999999994
    vertex -5.700000000000001 3.5999999999999996 -0.49999999999999994
  endloop
endfacet
facet normal 0.0 0.0 -1.0
  outer loop
    vertex -5.700000000000001 0.20000000000000004 -0.49999999999999994
    vertex 2.4999999999999996 3.5999999999999996 -0.49999999999999994
    vertex 2.4999999999999996 0.20000000000000004 -0.49999999999999994
  endloop
endfacet
facet normal -0.0 1.0 -0.0
  outer loop
    vertex -5.700000000000002 10.5 -0.49999999999999994
    vertex -4.200000000000001 10.5 0.9999999999999999
    vertex 2.4999999999999996 10.5 -0.49999999999999994
  endloop
endfacet
facet normal -0.0 1.0 -0.0
  outer loop
    vertex -4.200000000000001 10.5 0.9999999999999999
    vertex -5.700000000000002 10.5 -0.49999999999999994
    vertex -5.700000000000002 10.5 2.2
  endloop
endfacet
facet normal -0.0 1.0 -0.0
  outer loop
    vertex -4.200000000000001 10.5 0.9999999999999999
    vertex -5.700000000000002 10.5 2.2
    vertex -4.200000000000001 10.5 2.2
  endloop
endfacet
facet normal -0.0 1.0 -0.0
  outer loop
    vertex 2.4999999999999996 10.5 0.9999999999999999
    vertex 2.4999999999999996 10.5 -0.49999999999999994
    vertex -4.200000000000001 10.5 0.9999999999999999
  endloop
endfacet
facet normal -0.0 -0.0 1.0
  outer loop
    vertex -4.200000000000001 0.19999999999999962 2.2
    vertex -5.700000000000001 0.382534491649371 2.2
    vertex -5.700000000000001 0.20000000000000004 2.2
  endloop
endfacet
facet normal -0.0 -0.0 1.0
  outer loop
    vertex -5.700000000000001 0.382534491649371 2.2
    vertex -4.200000000000001 0.19999999999999962 2.2
    vertex -5.427890261067746 0.382534491649371 2.2
  endloop
endfacet
facet normal -0.0 -0.0 1.0
  outer loop
    vertex -5.427890261067746 0.382534491649371 2.2
    vertex -4.200000000000001 0.19999999999999962 2.2
    vertex -5.427890261067746 2.3825344916493707 2.2
  endloop
endfacet
facet normal -0.0 -0.0 1.0
  outer loop
    vertex -5.427890261067746 2.3825344916493707 2.2
    vertex -4.200000000000001 0.19999999999999962 2.2
    vertex -5.427890261067746 7.796497134788647 2.2
  endloop
endfacet
facet normal -0.0 -0.0 1.0
  outer loop
    vertex -5.427890261067746 7.796497134788647 2.2
    vertex -4.200000000000001 0.19999999999999962 2.2
    vertex -5.427890261067746 9.796497134788646 2.2
  endloop
endfacet
facet normal -0.0 -0.0 1.0
  outer loop
    vertex -5.427890261067746 9.796497134788646 2.2
    vertex -5.700000000000002 10.5 2.2
    vertex -5.700000000000002 9.796497134788646 2.2
  endloop
endfacet
facet normal -0.0 -0.0 1.0
  outer loop
    vertex -5.700000000000002 10.5 2.2
    vertex -5.427890261067746 9.796497134788646 2.2
    vertex -4.200000000000001 10.5 2.2
  endloop
endfacet
facet normal -0.0 -0.0 1.0
  outer loop
    vertex -4.200000000000001 10.5 2.2
    vertex -5.427890261067746 9.796497134788646 2.2
    vertex -4.200000000000001 0.19999999999999962 2.2
  endloop
endfacet
facet normal -0.0 -0.0 1.0
  outer loop
    vertex -5.700000000000001 2.382534491649371 2.2
    vertex -5.427890261067746 7.796497134788647 2.2
    vertex -5.700000000000002 7.796497134788647 2.2
  endloop
endfacet
facet normal -0.0 -0.0 1.0
  outer loop
    vertex -5.427890261067746 7.796497134788647 2.2
    vertex -5.700000000000001 2.382534491649371 2.2
    vertex -5.427890261067746 2.3825344916493707 2.2
  endloop
endfacet
facet normal 0.0 -1.0 0.0
  outer loop
    vertex 2.4999999999999996 7.1 0.9999999999999999
    vertex -5.700000000000002 7.1 -0.49999999999999994
    vertex 2.4999999999999996 7.1 -0.49999999999999994
  endloop
endfacet
facet normal 0.0 -1.0 0.0
  outer loop
    vertex -5.700000000000002 7.1 -0.49999999999999994
    vertex 2.4999999999999996 7.1 0.9999999999999999
    vertex -4.200000000000001 7.1 0.9999999999999999
  endloop
endfacet
facet normal 0.0 -1.0 0.0
  outer loop
    vertex -5.700000000000002 7.1 -0.49999999999999994
    vertex -4.200000000000001 7.1 0.9999999999999999
    vertex -5.700000000000002 7.1 1.2000000000000002
  endloop
endfacet
facet normal 0.0 -1.0 0.0
  outer loop
    vertex -5.700000000000002 7.1 1.2000000000000002
    vertex -4.200000000000001 7.1 0.9999999999999999
    vertex -4.200000000000001 7.1 1.2000000000000002
  endloop
endfacet
facet normal 1.0556658898122562e-17 -1.0 -3.005542886289011e-16
  outer loop
    vertex 2.4999999999999996 0.20000000000000004 0.9999999999999999
    vertex -5.700000000000001 0.20000000000000004 -0.49999999999999994
    vertex 2.4999999999999996 0.20000000000000004 -0.49999999999999994
  endloop
endfacet
facet normal 1.0556658898122562e-17 -1.0 -3.005542886289011e-16
  outer loop
    vertex -5.700000000000001 0.20000000000000004 -0.49999999999999994
    vertex 2.4999999999999996 0.20000000000000004 0.9999999999999999
    vertex -4.200000000000001 0.19999999999999962 0.9999999999999999
  endloop
endfacet
facet normal 1.0556658898122562e-17 -1.0 -3.005542886289011e-16
  outer loop
    vertex -5.700000000000001 0.20000000000000004 -0.49999999999999994
    vertex -4.200000000000001 0.19999999999999962 0.9999999999999999
    vertex -5.700000000000001 0.20000000000000004 2.2
  endloop
endfacet
facet normal 1.0556658898122562e-17 -1.0 -3.005542886289011e-16
  outer loop
    vertex -5.700000000000001 0.20000000000000004 2.2
    vertex -4.200000000000001 0.19999999999999962 0.9999999999999999
    vertex -4.200000000000001 0.19999999999999962 2.2
  endloop
endfacet
facet normal 1.0 0.0 0.0
  outer loop
    vertex 2.4999999999999996 3.5999999999999996 -0.49999999999999994
    vertex 2.4999999999999996 0.20000000000000004 0.9999999999999999
    vertex 2.4999999999999996 0.20000000000000004 -0.49999999999999994
  endloop
endfacet
facet normal 1.0 0.0 0.0
  outer loop
    vertex 2.4999999999999996 0.20000000000000004 0.9999999999999999
    vertex 2.4999999999999996 3.5999999999999996 -0.49999999999999994
    vertex 2.4999999999999996 3.5999999999999996 0.9999999999999999
  endloop
endfacet
facet normal 0.0 0.0 1.0
  outer loop
    vertex -4.200000000000001 0.19999999999999962 0.9999999999999999
    vertex -0.0633282459985384 0.9778479673974215 1.0000000000000004
    vertex -4.200000000000001 3.5999999999999996 0.9999999999999999
  endloop
endfacet
facet normal 0.0 0.0 1.0
  outer loop
    vertex -0.0633282459985384 0.9778479673974215 1.0000000000000004
    vertex -4.200000000000001 0.19999999999999962 0.9999999999999999
    vertex 0.12816079049199655 0.8999999999999998 1.0000000000000004
  endloop
endfacet
facet normal 0.0 0.0 1.0
  outer loop
    vertex 0.12816079049199655 0.8999999999999998 1.0000000000000004
    vertex -4.200000000000001 0.19999999999999962 0.9999999999999999
    vertex 2.4999999999999996 0.20000000000000004 0.9999999999999999
  endloop
endfacet
facet normal 0.0 0.0 1.0
  outer loop
    vertex -4.200000000000001 3.5999999999999996 0.9999999999999999
    vertex -0.0633282459985384 0.9778479673974215 1.0000000000000004
    vertex -0.1000000000000004 1.114708816533545 1.0000000000000004
  endloop
endfacet
facet normal 0.0 0.0 1.0
  outer loop
    vertex 0.12816079049199655 0.8999999999999998 1.0000000000000004
    vertex 2.4999999999999996 0.20000000000000004 0.9999999999999999
    vertex 1.5852911834664545 0.8999999999999996 1.0000000000000004
  endloop
endfacet
facet normal 0.0 0.0 1.0
  outer loop
    vertex 1.5852911834664545 0.8999999999999996 1.0000000000000004
    vertex 2.4999999999999996 0.20000000000000004 0.9999999999999999
    vertex 1.7221520326025788 0.9366717540014619 1.0000000000000004
  endloop
endfacet
facet normal 0.0 0.0 1.0
  outer loop
    vertex 1.7221520326025788 0.9366717540014619 1.0000000000000004
    vertex 2.4999999999999996 0.20000000000000004 0.9999999999999999
    vertex 1.7999999999999998 1.1281607904919964 1.0000000000000004
  endloop
endfacet
facet normal 0.0 0.0 1.0
  outer loop
    vertex 1.7999999999999998 1.1281607904919964 1.0000000000000004
    vertex 2.4999999999999996 0.20000000000000004 0.9999999999999999
    vertex 1.7999999999999998 2.6852911834664543 1.0000000000000004
  endloop
endfacet
facet normal 0.0 0.0 1.0
  outer loop
    vertex -4.200000000000001 3.5999999999999996 0.9999999999999999
    vertex -0.02215203260257892 2.8633282459985376 1.0000000000000004
    vertex 2.4999999999999996 3.5999999999999996 0.9999999999999999
  endloop
endfacet
facet normal 0.0 0.0 1.0
  outer loop
    vertex -0.02215203260257892 2.8633282459985376 1.0000000000000004
    vertex -4.200000000000001 3.5999999999999996 0.9999999999999999
    vertex -0.10000000000000013 2.6718392095080032 1.0000000000000004
  endloop
endfacet
facet normal 0.0 0.0 1.0
  outer loop
    vertex -0.10000000000000013 2.6718392095080032 1.0000000000000004
    vertex -4.200000000000001 3.5999999999999996 0.9999999999999999
    vertex -0.1000000000000004 1.114708816533545 1.0000000000000004
  endloop
endfacet
facet normal 0.0 0.0 1.0
  outer loop
    vertex 2.4999999999999996 3.5999999999999996 0.9999999999999999
    vertex -0.02215203260257892 2.8633282459985376 1.0000000000000004
    vertex 0.1147088165335455 2.9 1.0000000000000004
  endloop
endfacet
facet normal 0.0 0.0 1.0
  outer loop
    vertex 2.4999999999999996 3.5999999999999996 0.9999999999999999
    vertex 0.1147088165335455 2.9 1.0000000000000004
    vertex 1.5718392095080034 2.9 1.0000000000000004
  endloop
endfacet
facet normal 0.0 0.0 1.0
  outer loop
    vertex 2.4999999999999996 3.5999999999999996 0.9999999999999999
    vertex 1.5718392095080034 2.9 1.0000000000000004
    vertex 1.7633282459985375 2.8221520326025784 1.0000000000000004
  endloop
endfacet
facet normal 0.0 0.0 1.0
  outer loop
    vertex 2.4999999999999996 3.5999999999999996 0.9999999999999999
    vertex 1.7633282459985375 2.8221520326025784 1.0000000000000004
    vertex 1.7999999999999998 2.6852911834664543 1.0000000000000004
  endloop
endfacet
facet normal 0.0 0.0 1.0
  outer loop
    vertex 2.4999999999999996 3.5999999999999996 0.9999999999999999
    vertex 1.7999999999999998 2.6852911834664543 1.0000000000000004
    vertex 2.4999999999999996 0.20000000000000004 0.9999999999999999
  endloop
endfacet
facet normal 1.0 0.0 0.0
  outer loop
    vertex -4.200000000000001 10.5 0.9999999999999999
    vertex -4.200000000000001 7.1 1.2000000000000002
    vertex -4.200000000000001 7.1 0.9999999999999999
  endloop
endfacet
facet normal 1.0 0.0 0.0
  outer loop
    vertex -4.200000000000001 3.5999999999999996 0.9999999999999999
    vertex -4.200000000000001 0.19999999999999962 2.2
    vertex -4.200000000000001 0.19999999999999962 0.9999999999999999
  endloop
endfacet
facet normal 1.0 0.0 0.0
  outer loop
    vertex -4.200000000000001 0.19999999999999962 2.2
    vertex -4.200000000000001 3.5999999999999996 0.9999999999999999
    vertex -4.200000000000001 3.5999999999999996 1.2000000000000002
  endloop
endfacet
facet normal 1.0 0.0 0.0
  outer loop
    vertex -4.200000000000001 0.19999999999999962 2.2
    vertex -4.200000000000001 3.5999999999999996 1.2000000000000002
    vertex -4.200000000000001 10.5 2.2
  endloop
endfacet
facet normal 1.0 0.0 0.0
  outer loop
    vertex -4.200000000000001 10.5 2.2
    vertex -4.200000000000001 3.5999999999999996 1.2000000000000002
    vertex -4.200000000000001 7.1 1.2000000000000002
  endloop
endfacet
facet normal 1.0 0.0 0.0
  outer loop
    vertex -4.200000000000001 10.5 2.2
    vertex -4.200000000000001 7.1 1.2000000000000002
    vertex -4.200000000000001 10.5 0.9999999999999999
  endloop
endfacet
facet normal 1.0 0.0 0.0
  outer loop
    vertex 2.4999999999999996 10.5 -0.49999999999999994
    vertex 2.4999999999999996 7.1 0.9999999999999999
    vertex 2.4999999999999996 7.1 -0.49999999999999994
  endloop
endfacet
facet normal 1.0 0.0 0.0
  outer loop
    vertex 2.4999999999999996 7.1 0.9999999999999999
    vertex 2.4999999999999996 10.5 -0.49999999999999994
    vertex 2.4999999999999996 10.5 0.9999999999999999
  endloop
endfacet
facet normal 0.0 0.0 1.0
  outer loop
    vertex -4.200000000000001 7.1 0.9999999999999999
    vertex -0.06332824599853802 7.877847967397421 0.9999999999999998
    vertex -4.200000000000001 10.5 0.9999999999999999
  endloop
endfacet
facet normal 0.0 0.0 1.0
  outer loop
    vertex -0.06332824599853802 7.877847967397421 0.9999999999999998
    vertex -4.200000000000001 7.1 0.9999999999999999
    vertex 0.1281607904919992 7.8 0.9999999999999998
  endloop
endfacet
facet normal 0.0 0.0 1.0
  outer loop
    vertex 0.1281607904919992 7.8 0.9999999999999998
    vertex -4.200000000000001 7.1 0.9999999999999999
    vertex 2.4999999999999996 7.1 0.9999999999999999
  endloop
endfacet
facet normal 0.0 0.0 1.0
  outer loop
    vertex -4.200000000000001 10.5 0.9999999999999999
    vertex -0.06332824599853802 7.877847967397421 0.9999999999999998
    vertex -0.1000000000000004 8.014708816533545 0.9999999999999998
  endloop
endfacet
facet normal 0.0 0.0 1.0
  outer loop
    vertex 0.1281607904919992 7.8 0.9999999999999998
    vertex 2.4999999999999996 7.1 0.9999999999999999
    vertex 1.5852911834664527 7.8 0.9999999999999998
  endloop
endfacet
facet normal 0.0 0.0 1.0
  outer loop
    vertex 1.5852911834664527 7.8 0.9999999999999998
    vertex 2.4999999999999996 7.1 0.9999999999999999
    vertex 1.722152032602578 7.836671754001461 0.9999999999999998
  endloop
endfacet
facet normal 0.0 0.0 1.0
  outer loop
    vertex 1.722152032602578 7.836671754001461 0.9999999999999998
    vertex 2.4999999999999996 7.1 0.9999999999999999
    vertex 1.7999999999999998 8.028160790491997 0.9999999999999998
  endloop
endfacet
facet normal 0.0 0.0 1.0
  outer loop
    vertex 1.7999999999999998 8.028160790491997 0.9999999999999998
    vertex 2.4999999999999996 7.1 0.9999999999999999
    vertex 1.7999999999999998 9.585291183466452 0.9999999999999998
  endloop
endfacet
facet normal 0.0 0.0 1.0
  outer loop
    vertex -4.200000000000001 10.5 0.9999999999999999
    vertex -0.022152032602578836 9.763328245998537 0.9999999999999998
    vertex 2.4999999999999996 10.5 0.9999999999999999
  endloop
endfacet
facet normal 0.0 0.0 1.0
  outer loop
    vertex -0.022152032602578836 9.763328245998537 0.9999999999999998
    vertex -4.200000000000001 10.5 0.9999999999999999
    vertex -0.10000000000000013 9.571839209508003 0.9999999999999998
  endloop
endfacet
facet normal 0.0 0.0 1.0
  outer loop
    vertex -0.10000000000000013 9.571839209508003 0.9999999999999998
    vertex -4.200000000000001 10.5 0.9999999999999999
    vertex -0.1000000000000004 8.014708816533545 0.9999999999999998
  endloop
endfacet
facet normal 0.0 0.0 1.0
  outer loop
    vertex 2.4999999999999996 10.5 0.9999999999999999
    vertex -0.022152032602578836 9.763328245998537 0.9999999999999998
    vertex 0.11470881653354684 9.799999999999999 0.9999999999999998
  endloop
endfacet
facet normal 0.0 0.0 1.0
  outer loop
    vertex 2.4999999999999996 10.5 0.9999999999999999
    vertex 0.11470881653354684 9.799999999999999 0.9999999999999998
    vertex 1.5718392095080007 9.799999999999999 0.9999999999999998
  endloop
endfacet
facet normal 0.0 0.0 1.0
  outer loop
    vertex 2.4999999999999996 10.5 0.9999999999999999
    vertex 1.5718392095080007 9.799999999999999 0.9999999999999998
    vertex 1.7633282459985375 9.722152032602578 0.9999999999999998
  endloop
endfacet
facet normal 0.0 0.0 1.0
  outer loop
    vertex 2.4999999999999996 10.5 0.9999999999999999
    vertex 1.7633282459985375 9.722152032602578 0.9999999999999998
    vertex 1.7999999999999998 9.585291183466452 0.9999999999999998
  endloop
endfacet
facet normal 0.0 0.0 1.0
  outer loop
    vertex 2.4999999999999996 10.5 0.9999999999999999
    vertex 1.7999999999999998 9.585291183466452 0.9999999999999998
    vertex 2.4999999999999996 7.1 0.9999999999999999
  endloop
endfacet
facet normal 0.0 0.0 1.0
  outer loop
    vertex -0.0633282459985384 0.9778479673974215 4.2
    vertex -0.10000000000000013 2.6718392095080032 4.2
    vertex -0.1000000000000004 1.114708816533545 4.2
  endloop
endfacet
facet normal 0.0 0.0 1.0
  outer loop
    vertex -0.10000000000000013 2.6718392095080032 4.2
    vertex -0.0633282459985384 0.9778479673974215 4.2
    vertex -0.02215203260257892 2.8633282459985376 4.2
  endloop
endfacet
facet normal 0.0 0.0 1.0
  outer loop
    vertex -0.02215203260257892 2.8633282459985376 4.2
    vertex -0.0633282459985384 0.9778479673974215 4.2
    vertex 0.12816079049199655 0.8999999999999998 4.2
  endloop
endfacet
facet normal 0.0 0.0 1.0
  outer loop
    vertex -0.02215203260257892 2.8633282459985376 4.2
    vertex 0.12816079049199655 0.8999999999999998 4.2
    vertex 0.1147088165335455 2.9 4.2
  endloop
endfacet
facet normal 0.0 0.0 1.0
  outer loop
    vertex 0.1147088165335455 2.9 4.2
    vertex 0.12816079049199655 0.8999999999999998 4.2
    vertex 1.5718392095080034 2.9 4.2
  endloop
endfacet
facet normal 0.0 0.0 1.0
  outer loop
    vertex 1.5718392095080034 2.9 4.2
    vertex 0.12816079049199655 0.8999999999999998 4.2
    vertex 1.5852911834664545 0.8999999999999996 4.2
  endloop
endfacet
facet normal 0.0 0.0 1.0
  outer loop
    vertex 1.5718392095080034 2.9 4.2
    vertex 1.5852911834664545 0.8999999999999996 4.2
    vertex 1.7633282459985375 2.8221520326025784 4.2
  endloop
endfacet
facet normal 0.0 0.0 1.0
  outer loop
    vertex 1.7633282459985375 2.8221520326025784 4.2
    vertex 1.5852911834664545 0.8999999999999996 4.2
    vertex 1.7221520326025788 0.9366717540014619 4.2
  endloop
endfacet
facet normal 0.0 0.0 1.0
  outer loop
    vertex 1.7633282459985375 2.8221520326025784 4.2
    vertex 1.7221520326025788 0.9366717540014619 4.2
    vertex 1.7999999999999998 1.1281607904919964 4.2
  endloop
endfacet
facet normal 0.0 0.0 1.0
  outer loop
    vertex 1.7633282459985375 2.8221520326025784 4.2
    vertex 1.7999999999999998 1.1281607904919964 4.2
    vertex 1.7999999999999998 2.6852911834664543 4.2
  endloop
endfacet
facet normal 0.0 0.0 1.0
  outer loop
    vertex -0.06332824599853802 7.877847967397421 4.2
    vertex -0.10000000000000013 9.571839209508003 4.2
    vertex -0.1000000000000004 8.014708816533545 4.2
  endloop
endfacet
facet normal 0.0 0.0 1.0
  outer loop
    vertex -0.10000000000000013 9.571839209508003 4.2
    vertex -0.06332824599853802 7.877847967397421 4.2
    vertex -0.022152032602578836 9.763328245998537 4.2
  endloop
endfacet
facet normal 0.0 0.0 1.0
  outer loop
    vertex -0.022152032602578836 9.763328245998537 4.2
    vertex -0.06332824599853802 7.877847967397421 4.2
    vertex 0.1281607904919992 7.8 4.2
  endloop
endfacet
facet normal 0.0 0.0 1.0
  outer loop
    vertex -0.022152032602578836 9.763328245998537 4.2
    vertex 0.1281607904919992 7.8 4.2
    vertex 0.11470881653354684 9.799999999999999 4.2
  endloop
endfacet
facet normal 0.0 0.0 1.0
  outer loop
    vertex 0.11470881653354684 9.799999999999999 4.2
    vertex 0.1281607904919992 7.8 4.2
    vertex 1.5718392095080007 9.799999999999999 4.2
  endloop
endfacet
facet normal 0.0 0.0 1.0
  outer loop
    vertex 1.5718392095080007 9.799999999999999 4.2
    vertex 0.1281607904919992 7.8 4.2
    vertex 1.5852911834664527 7.8 4.2
  endloop
endfacet
facet normal 0.0 0.0 1.0
  outer loop
    vertex 1.5718392095080007 9.799999999999999 4.2
    vertex 1.5852911834664527 7.8 4.2
    vertex 1.7633282459985375 9.722152032602578 4.2
  endloop
endfacet
facet normal 0.0 0.0 1.0
  outer loop
    vertex 1.7633282459985375 9.722152032602578 4.2
    vertex 1.5852911834664527 7.8 4.2
    vertex 1.722152032602578 7.836671754001461 4.2
  endloop
endfacet
facet normal 0.0 0.0 1.0
  outer loop
    vertex 1.7633282459985375 9.722152032602578 4.2
    vertex 1.722152032602578 7.836671754001461 4.2
    vertex 1.7999999999999998 8.028160790491997 4.2
  endloop
endfacet
facet normal 0.0 0.0 1.0
  outer loop
    vertex 1.7633282459985375 9.722152032602578 4.2
    vertex 1.7999999999999998 8.028160790491997 4.2
    vertex 1.7999999999999998 9.585291183466452 4.2
  endloop
endfacet
facet normal -0.0 -0.0 1.0
  outer loop
    vertex -6.903365054899058 0.1899554761283477 2.2
    vertex -7.227890261067746 0.382534491649371 2.2
    vertex -8.403365054899037 0.18995547612834335 2.2000000000000006
  endloop
endfacet
facet normal -0.0 -0.0 1.0
  outer loop
    vertex -7.227890261067746 0.382534491649371 2.2
    vertex -6.903365054899058 0.1899554761283477 2.2
    vertex -6.903365054899058 0.382534491649371 2.2
  endloop
endfacet
facet normal -0.0 -0.0 1.0
  outer loop
    vertex -6.9033650548990515 2.3825344916493707 2.2
    vertex -7.227890261067746 7.796497134788647 2.2
    vertex -7.227890261067746 2.3825344916493707 2.2
  endloop
endfacet
facet normal -0.0 -0.0 1.0
  outer loop
    vertex -7.227890261067746 7.796497134788647 2.2
    vertex -6.9033650548990515 2.3825344916493707 2.2
    vertex -6.903365054899036 7.796497134788647 2.2
  endloop
endfacet
facet normal -0.0 -0.0 1.0
  outer loop
    vertex -8.403365054899043 10.489955476128333 2.2000000000000006
    vertex -7.227890261067746 9.796497134788646 2.2
    vertex -6.903365054899029 10.489955476128344 2.2
  endloop
endfacet
facet normal -0.0 -0.0 1.0
  outer loop
    vertex -7.227890261067746 9.796497134788646 2.2
    vertex -8.403365054899043 10.489955476128333 2.2000000000000006
    vertex -8.403365054899037 0.18995547612834335 2.2000000000000006
  endloop
endfacet
facet normal -0.0 -0.0 1.0
  outer loop
    vertex -7.227890261067746 9.796497134788646 2.2
    vertex -8.403365054899037 0.18995547612834335 2.2000000000000006
    vertex -7.227890261067746 0.382534491649371 2.2
  endloop
endfacet
facet normal -0.0 -0.0 1.0
  outer loop
    vertex -7.227890261067746 9.796497134788646 2.2
    vertex -7.227890261067746 0.382534491649371 2.2
    vertex -7.227890261067746 2.3825344916493707 2.2
  endloop
endfacet
facet normal -0.0 -0.0 1.0
  outer loop
    vertex -7.227890261067746 9.796497134788646 2.2
    vertex -7.227890261067746 2.3825344916493707 2.2
    vertex -7.227890261067746 7.796497134788647 2.2
  endloop
endfacet
facet normal -0.0 -0.0 1.0
  outer loop
    vertex -6.903365054899029 10.489955476128344 2.2
    vertex -7.227890261067746 9.796497134788646 2.2
    vertex -6.903365054899031 9.796497134788646 2.2
  endloop
endfacet
facet normal 0.0 0.0 -1.0
  outer loop
    vertex -6.903365054899031 9.796497134788646 2.2
    vertex -5.700000000000002 7.796497134788647 2.2
    vertex -6.903365054899036 7.796497134788647 2.2
  endloop
endfacet
facet normal 0.0 0.0 -1.0
  outer loop
    vertex -5.700000000000002 7.796497134788647 2.2
    vertex -6.903365054899031 9.796497134788646 2.2
    vertex -5.700000000000002 9.796497134788646 2.2
  endloop
endfacet
facet normal -0.0 1.0 -0.0
  outer loop
    vertex -7.227890261067746 9.796497134788646 3.1999999999999997
    vertex -6.903365054899031 9.796497134788646 2.2
    vertex -7.227890261067746 9.796497134788646 2.2
  endloop
endfacet
facet normal -0.0 1.0 -0.0
  outer loop
    vertex -6.903365054899031 9.796497134788646 2.2
    vertex -7.227890261067746 9.796497134788646 3.1999999999999997
    vertex -5.700000000000002 9.796497134788646 2.2
  endloop
endfacet
facet normal -0.0 1.0 -0.0
  outer loop
    vertex -5.700000000000002 9.796497134788646 2.2
    vertex -7.227890261067746 9.796497134788646 3.1999999999999997
    vertex -5.427890261067746 9.796497134788646 2.2
  endloop
endfacet
facet normal -0.0 1.0 -0.0
  outer loop
    vertex -5.427890261067746 9.796497134788646 2.2
    vertex -7.227890261067746 9.796497134788646 3.1999999999999997
    vertex -5.427890261067746 9.796497134788646 3.1999999999999997
  endloop
endfacet
facet normal 1.0 -0.0 0.0
  outer loop
    vertex -5.427890261067746 9.796497134788646 2.2
    vertex -5.427890261067746 7.796497134788647 3.1999999999999997
    vertex -5.427890261067746 7.796497134788647 2.2
  endloop
endfacet
facet normal 1.0 -0.0 0.0
  outer loop
    vertex -5.427890261067746 7.796497134788647 3.1999999999999997
    vertex -5.427890261067746 9.796497134788646 2.2
    vertex -5.427890261067746 9.796497134788646 3.1999999999999997
  endloop
endfacet
facet normal -0.0 -0.0 1.0
  outer loop
    vertex -5.427890261067746 7.796497134788647 3.1999999999999997
    vertex -7.227890261067746 9.796497134788646 3.1999999999999997
    vertex -7.227890261067746 7.796497134788647 3.1999999999999997
  endloop
endfacet
facet normal -0.0 -0.0 1.0
  outer loop
    vertex -7.227890261067746 9.796497134788646 3.1999999999999997
    vertex -5.427890261067746 7.796497134788647 3.1999999999999997
    vertex -5.427890261067746 9.796497134788646 3.1999999999999997
  endloop
endfacet
facet normal -1.0 -0.0 -0.0
  outer loop
    vertex -7.227890261067746 9.796497134788646 3.1999999999999997
    vertex -7.227890261067746 7.796497134788647 2.2
    vertex -7.227890261067746 7.796497134788647 3.1999999999999997
  endloop
endfacet
facet normal -1.0 -0.0 -0.0
  outer loop
    vertex -7.227890261067746 7.796497134788647 2.2
    vertex -7.227890261067746 9.796497134788646 3.1999999999999997
    vertex -7.227890261067746 9.796497134788646 2.2
  endloop
endfacet
facet normal 0.0 -1.0 0.0
  outer loop
    vertex -5.427890261067746 7.796497134788647 3.1999999999999997
    vertex -5.700000000000002 7.796497134788647 2.2
    vertex -5.427890261067746 7.796497134788647 2.2
  endloop
endfacet
facet normal 0.0 -1.0 0.0
  outer loop
    vertex -5.700000000000002 7.796497134788647 2.2
    vertex -5.427890261067746 7.796497134788647 3.1999999999999997
    vertex -6.903365054899036 7.796497134788647 2.2
  endloop
endfacet
facet normal 0.0 -1.0 0.0
  outer loop
    vertex -6.903365054899036 7.796497134788647 2.2
    vertex -5.427890261067746 7.796497134788647 3.1999999999999997
    vertex -7.227890261067746 7.796497134788647 2.2
  endloop
endfacet
facet normal 0.0 -1.0 0.0
  outer loop
    vertex -7.227890261067746 7.796497134788647 2.2
    vertex -5.427890261067746 7.796497134788647 3.1999999999999997
    vertex -7.227890261067746 7.796497134788647 3.1999999999999997
  endloop
endfacet
facet normal 0.0 0.0 -1.0
  outer loop
    vertex -6.9033650548990515 2.3825344916493707 2.2
    vertex -5.700000000000001 0.382534491649371 2.2
    vertex -6.903365054899058 0.382534491649371 2.2
  endloop
endfacet
facet normal 0.0 0.0 -1.0
  outer loop
    vertex -5.700000000000001 0.382534491649371 2.2
    vertex -6.9033650548990515 2.3825344916493707 2.2
    vertex -5.700000000000001 2.382534491649371 2.2
  endloop
endfacet
facet normal 0.0 -1.0 0.0
  outer loop
    vertex -5.427890261067746 0.382534491649371 3.1999999999999997
    vertex -5.700000000000001 0.382534491649371 2.2
    vertex -5.427890261067746 0.382534491649371 2.2
  endloop
endfacet
facet normal 0.0 -1.0 0.0
  outer loop
    vertex -5.700000000000001 0.382534491649371 2.2
    vertex -5.427890261067746 0.382534491649371 3.1999999999999997
    vertex -6.903365054899058 0.382534491649371 2.2
  endloop
endfacet
facet normal 0.0 -1.0 0.0
  outer loop
    vertex -6.903365054899058 0.382534491649371 2.2
    vertex -5.427890261067746 0.382534491649371 3.1999999999999997
    vertex -7.227890261067746 0.382534491649371 2.2
  endloop
endfacet
facet normal 0.0 -1.0 0.0
  outer loop
    vertex -7.227890261067746 0.382534491649371 2.2
    vertex -5.427890261067746 0.382534491649371 3.1999999999999997
    vertex -7.227890261067746 0.382534491649371 3.1999999999999997
  endloop
endfacet
facet normal -0.0 -0.0 1.0
  outer loop
    vertex -5.427890261067746 0.382534491649371 3.1999999999999997
    vertex -7.227890261067746 2.3825344916493707 3.1999999999999997
    vertex -7.227890261067746 0.382534491649371 3.1999999999999997
  endloop
endfacet
facet normal -0.0 -0.0 1.0
  outer loop
    vertex -7.227890261067746 2.3825344916493707 3.1999999999999997
    vertex -5.427890261067746 0.382534491649371 3.1999999999999997
    vertex -5.427890261067746 2.3825344916493707 3.1999999999999997
  endloop
endfacet
facet normal -1.0 -0.0 -0.0
  outer loop
    vertex -7.227890261067746 2.3825344916493707 3.1999999999999997
    vertex -7.227890261067746 0.382534491649371 2.2
    vertex -7.227890261067746 0.382534491649371 3.1999999999999997
  endloop
endfacet
facet normal -1.0 -0.0 -0.0
  outer loop
    vertex -7.227890261067746 0.382534491649371 2.2
    vertex -7.227890261067746 2.3825344916493707 3.1999999999999997
    vertex -7.227890261067746 2.3825344916493707 2.2
  endloop
endfacet
facet normal 1.0 -0.0 0.0
  outer loop
    vertex -5.427890261067746 2.3825344916493707 2.2
    vertex -5.427890261067746 0.382534491649371 3.1999999999999997
    vertex -5.427890261067746 0.382534491649371 2.2
  endloop
endfacet
facet normal 1.0 -0.0 0.0
  outer loop
    vertex -5.427890261067746 0.382534491649371 3.1999999999999997
    vertex -5.427890261067746 2.3825344916493707 2.2
    vertex -5.427890261067746 2.3825344916493707 3.1999999999999997
  endloop
endfacet
facet normal -8.616364253748221e-17 1.0 -1.246995708633699e-17
  outer loop
    vertex -7.227890261067746 2.3825344916493707 3.1999999999999997
    vertex -6.9033650548990515 2.3825344916493707 2.2
    vertex -7.227890261067746 2.3825344916493707 2.2
  endloop
endfacet
facet normal -8.616364253748221e-17 1.0 -1.246995708633699e-17
  outer loop
    vertex -6.9033650548990515 2.3825344916493707 2.2
    vertex -7.227890261067746 2.3825344916493707 3.1999999999999997
    vertex -5.700000000000001 2.382534491649371 2.2
  endloop
endfacet
facet normal -8.616364253748221e-17 1.0 -1.246995708633699e-17
  outer loop
    vertex -5.700000000000001 2.382534491649371 2.2
    vertex -7.227890261067746 2.3825344916493707 3.1999999999999997
    vertex -5.427890261067746 2.3825344916493707 2.2
  endloop
endfacet
facet normal -8.616364253748221e-17 1.0 -1.246995708633699e-17
  outer loop
    vertex -5.427890261067746 2.3825344916493707 2.2
    vertex -7.227890261067746 2.3825344916493707 3.1999999999999997
    vertex -5.427890261067746 2.3825344916493707 3.1999999999999997
  endloop
endfacet
endsolid button new master2
