solid Sensor Buttons
facet normal 7.721089145931441e-16 1.0 1.6952228353103862e-15
  outer loop
    vertex -18.70336505489903 10.489955476128346 0.9999999999999999
    vertex -6.903365054899029 10.489955476128344 -0.49999999999999994
    vertex -18.70336505489903 10.489955476128346 -0.49999999999999994
  endloop
endfacet
facet normal 7.721089145931441e-16 1.0 1.6952228353103862e-15
  outer loop
    vertex -6.903365054899029 10.489955476128344 -0.49999999999999994
    vertex -18.70336505489903 10.489955476128346 0.9999999999999999
    vertex -8.903365054899043 10.489955476128333 1.0000000000000004
  endloop
endfacet
facet normal 7.721089145931441e-16 1.0 1.6952228353103862e-15
  outer loop
    vertex -6.903365054899029 10.489955476128344 -0.49999999999999994
    vertex -8.903365054899043 10.489955476128333 1.0000000000000004
    vertex -6.903365054899029 10.489955476128344 2.2
  endloop
endfacet
facet normal 7.721089145931441e-16 1.0 1.6952228353103862e-15
  outer loop
    vertex -6.903365054899029 10.489955476128344 2.2
    vertex -8.903365054899043 10.489955476128333 1.0000000000000004
    vertex -8.903365054899043 10.489955476128333 2.2000000000000006
  endloop
endfacet
facet normal -4.225729789409023e-15 1.0 -1.1129823817735899e-14
  outer loop
    vertex -18.703365054899077 3.589955476128287 0.9999999999999999
    vertex -6.903365054899055 3.589955476128336 -0.49999999999999994
    vertex -18.703365054899077 3.589955476128287 -0.49999999999999994
  endloop
endfacet
facet normal -4.225729789409023e-15 1.0 -1.1129823817735899e-14
  outer loop
    vertex -6.903365054899055 3.589955476128336 -0.49999999999999994
    vertex -18.703365054899077 3.589955476128287 0.9999999999999999
    vertex -8.903365054899046 3.5899554761283654 1.0000000000000004
  endloop
endfacet
facet normal -4.225729789409023e-15 1.0 -1.1129823817735899e-14
  outer loop
    vertex -6.903365054899055 3.589955476128336 -0.49999999999999994
    vertex -8.903365054899046 3.5899554761283654 1.0000000000000004
    vertex -6.903365054899055 3.589955476128336 1.2000000000000002
  endloop
endfacet
facet normal -4.225729789409023e-15 1.0 -1.1129823817735899e-14
  outer loop
    vertex -6.903365054899055 3.589955476128336 1.2000000000000002
    vertex -8.903365054899046 3.5899554761283654 1.0000000000000004
    vertex -8.903365054899046 3.5899554761283654 1.2000000000000008
  endloop
endfacet
facet normal 1.4487247596407519e-15 -1.0 -3.91205269687015e-16
  outer loop
    vertex -6.903365054899058 0.1899554761283477 -0.49999999999999994
    vertex -8.903365054899037 0.18995547612834324 1.0000000000000004
    vertex -18.703365054899052 0.18995547612831112 -0.49999999999999994
  endloop
endfacet
facet normal 1.4487247596407519e-15 -1.0 -3.91205269687015e-16
  outer loop
    vertex -8.903365054899037 0.18995547612834324 1.0000000000000004
    vertex -6.903365054899058 0.1899554761283477 -0.49999999999999994
    vertex -6.903365054899058 0.1899554761283477 2.2
  endloop
endfacet
facet normal 1.4487247596407519e-15 -1.0 -3.91205269687015e-16
  outer loop
    vertex -18.703365054899052 0.18995547612831112 -0.49999999999999994
    vertex -8.903365054899037 0.18995547612834324 1.0000000000000004
    vertex -18.703365054899052 0.18995547612831112 0.9999999999999999
  endloop
endfacet
facet normal 1.4487247596407519e-15 -1.0 -3.91205269687015e-16
  outer loop
    vertex -8.903365054899037 0.18995547612834324 1.0000000000000004
    vertex -6.903365054899058 0.1899554761283477 2.2
    vertex -8.903365054899037 0.18995547612834324 2.2000000000000006
  endloop
endfacet
facet normal -1.0 -2.406765377195719e-16 4.99109111955379e-16
  outer loop
    vertex -8.903365054899043 10.489955476128333 2.2000000000000006
    vertex -8.903365054899037 0.18995547612834324 1.0000000000000004
    vertex -8.903365054899037 0.18995547612834324 2.2000000000000006
  endloop
endfacet
facet normal -1.0 -2.406765377195719e-16 4.99109111955379e-16
  outer loop
    vertex -8.903365054899037 0.18995547612834324 1.0000000000000004
    vertex -8.903365054899043 10.489955476128333 2.2000000000000006
    vertex -8.903365054899046 3.5899554761283654 1.2000000000000008
  endloop
endfacet
facet normal -1.0 -2.406765377195719e-16 4.99109111955379e-16
  outer loop
    vertex -8.903365054899046 3.5899554761283654 1.2000000000000008
    vertex -8.903365054899043 10.489955476128333 2.2000000000000006
    vertex -8.903365054899037 7.08995547612833 1.2000000000000008
  endloop
endfacet
facet normal -1.0 -2.406765377195719e-16 4.99109111955379e-16
  outer loop
    vertex -8.903365054899037 7.08995547612833 1.2000000000000008
    vertex -8.903365054899043 10.489955476128333 2.2000000000000006
    vertex -8.903365054899037 7.08995547612833 1.0000000000000004
  endloop
endfacet
facet normal -1.0 -2.406765377195719e-16 4.99109111955379e-16
  outer loop
    vertex -8.903365054899037 7.08995547612833 1.0000000000000004
    vertex -8.903365054899043 10.489955476128333 2.2000000000000006
    vertex -8.903365054899043 10.489955476128333 1.0000000000000004
  endloop
endfacet
facet normal -1.0 -2.406765377195719e-16 4.99109111955379e-16
  outer loop
    vertex -8.903365054899046 3.5899554761283654 1.0000000000000004
    vertex -8.903365054899037 0.18995547612834324 1.0000000000000004
    vertex -8.903365054899046 3.5899554761283654 1.2000000000000008
  endloop
endfacet
facet normal -5.395344035487034e-17 -2.595282486681359e-31 1.0
  outer loop
    vertex -18.703365054899052 0.18995547612831112 0.9999999999999999
    vertex -17.942020012873183 0.9613450420258475 0.9999999999999998
    vertex -18.00336505489903 1.1094450744690023 0.9999999999999998
  endloop
endfacet
facet normal -5.395344035487034e-17 -2.595282486681359e-31 1.0
  outer loop
    vertex -17.942020012873183 0.9613450420258475 0.9999999999999998
    vertex -18.703365054899052 0.18995547612831112 0.9999999999999999
    vertex -17.79391998043003 0.8999999999999959 0.9999999999999998
  endloop
endfacet
facet normal -5.395344035487034e-17 -2.595282486681359e-31 1.0
  outer loop
    vertex -17.79391998043003 0.8999999999999959 0.9999999999999998
    vertex -18.703365054899052 0.18995547612831112 0.9999999999999999
    vertex -8.903365054899037 0.18995547612834324 1.0000000000000004
  endloop
endfacet
facet normal -5.395344035487034e-17 -2.595282486681359e-31 1.0
  outer loop
    vertex -17.79391998043003 0.8999999999999959 0.9999999999999998
    vertex -8.903365054899037 0.18995547612834324 1.0000000000000004
    vertex -16.312810129368035 0.8999999999999987 0.9999999999999998
  endloop
endfacet
facet normal -5.395344035487034e-17 -2.595282486681359e-31 1.0
  outer loop
    vertex -16.312810129368035 0.8999999999999987 0.9999999999999998
    vertex -8.903365054899037 0.18995547612834324 1.0000000000000004
    vertex -16.164710096924882 0.9613450420258484 0.9999999999999998
  endloop
endfacet
facet normal -5.395344035487034e-17 -2.595282486681359e-31 1.0
  outer loop
    vertex -16.164710096924882 0.9613450420258484 0.9999999999999998
    vertex -8.903365054899037 0.18995547612834324 1.0000000000000004
    vertex -16.10336505489903 1.1094450744690023 0.9999999999999998
  endloop
endfacet
facet normal -5.395344035487034e-17 -2.595282486681359e-31 1.0
  outer loop
    vertex -16.10336505489903 1.1094450744690023 0.9999999999999998
    vertex -8.903365054899037 0.18995547612834324 1.0000000000000004
    vertex -8.903365054899046 3.5899554761283654 1.0000000000000004
  endloop
endfacet
facet normal -5.395344035487034e-17 -2.595282486681359e-31 1.0
  outer loop
    vertex -18.703365054899077 3.589955476128287 0.9999999999999999
    vertex -17.79391998043003 2.8999999999999986 0.9999999999999998
    vertex -8.903365054899046 3.5899554761283654 1.0000000000000004
  endloop
endfacet
facet normal -5.395344035487034e-17 -2.595282486681359e-31 1.0
  outer loop
    vertex -17.79391998043003 2.8999999999999986 0.9999999999999998
    vertex -18.703365054899077 3.589955476128287 0.9999999999999999
    vertex -17.942020012873183 2.838654957974149 0.9999999999999998
  endloop
endfacet
facet normal -5.395344035487034e-17 -2.595282486681359e-31 1.0
  outer loop
    vertex -17.942020012873183 2.838654957974149 0.9999999999999998
    vertex -18.703365054899077 3.589955476128287 0.9999999999999999
    vertex -18.00336505489903 2.690554925530995 0.9999999999999998
  endloop
endfacet
facet normal -5.395344035487034e-17 -2.595282486681359e-31 1.0
  outer loop
    vertex -18.00336505489903 2.690554925530995 0.9999999999999998
    vertex -18.703365054899077 3.589955476128287 0.9999999999999999
    vertex -18.703365054899052 0.18995547612831112 0.9999999999999999
  endloop
endfacet
facet normal -5.395344035487034e-17 -2.595282486681359e-31 1.0
  outer loop
    vertex -18.00336505489903 2.690554925530995 0.9999999999999998
    vertex -18.703365054899052 0.18995547612831112 0.9999999999999999
    vertex -18.00336505489903 1.1094450744690023 0.9999999999999998
  endloop
endfacet
facet normal -5.395344035487034e-17 -2.595282486681359e-31 1.0
  outer loop
    vertex -8.903365054899046 3.5899554761283654 1.0000000000000004
    vertex -17.79391998043003 2.8999999999999986 0.9999999999999998
    vertex -16.312810129368035 2.8999999999999986 0.9999999999999998
  endloop
endfacet
facet normal -5.395344035487034e-17 -2.595282486681359e-31 1.0
  outer loop
    vertex -8.903365054899046 3.5899554761283654 1.0000000000000004
    vertex -16.312810129368035 2.8999999999999986 0.9999999999999998
    vertex -16.164710096924882 2.838654957974149 0.9999999999999998
  endloop
endfacet
facet normal -5.395344035487034e-17 -2.595282486681359e-31 1.0
  outer loop
    vertex -8.903365054899046 3.5899554761283654 1.0000000000000004
    vertex -16.164710096924882 2.838654957974149 0.9999999999999998
    vertex -16.103365054899033 2.690554925530995 0.9999999999999998
  endloop
endfacet
facet normal -5.395344035487034e-17 -2.595282486681359e-31 1.0
  outer loop
    vertex -8.903365054899046 3.5899554761283654 1.0000000000000004
    vertex -16.103365054899033 2.690554925530995 0.9999999999999998
    vertex -16.10336505489903 1.1094450744690023 0.9999999999999998
  endloop
endfacet
facet normal -1.0 -6.635215253053925e-15 0.0
  outer loop
    vertex -18.703365054899077 3.589955476128287 0.9999999999999999
    vertex -18.703365054899052 0.18995547612831112 -0.49999999999999994
    vertex -18.703365054899052 0.18995547612831112 0.9999999999999999
  endloop
endfacet
facet normal -1.0 -6.635215253053925e-15 0.0
  outer loop
    vertex -18.703365054899052 0.18995547612831112 -0.49999999999999994
    vertex -18.703365054899077 3.589955476128287 0.9999999999999999
    vertex -18.703365054899077 3.589955476128287 -0.49999999999999994
  endloop
endfacet
facet normal -1.0 0.0 0.0
  outer loop
    vertex -18.70336505489903 10.489955476128346 0.9999999999999999
    vertex -18.70336505489903 7.0899554761283525 -0.49999999999999994
    vertex -18.70336505489903 7.0899554761283525 0.9999999999999999
  endloop
endfacet
facet normal -1.0 0.0 0.0
  outer loop
    vertex -18.70336505489903 7.0899554761283525 -0.49999999999999994
    vertex -18.70336505489903 10.489955476128346 0.9999999999999999
    vertex -18.70336505489903 10.489955476128346 -0.49999999999999994
  endloop
endfacet
facet normal 0.0 0.0 -1.0
  outer loop
    vertex -8.903365054899037 7.08995547612833 1.2000000000000008
    vertex -6.903365054899055 3.589955476128336 1.2000000000000002
    vertex -8.903365054899046 3.5899554761283654 1.2000000000000008
  endloop
endfacet
facet normal 0.0 0.0 -1.0
  outer loop
    vertex -6.903365054899055 3.589955476128336 1.2000000000000002
    vertex -8.903365054899037 7.08995547612833 1.2000000000000008
    vertex -6.903365054899041 7.08995547612833 1.2000000000000002
  endloop
endfacet
facet normal -2.8462988732838685e-15 -1.0 -9.36262781723317e-16
  outer loop
    vertex -6.903365054899041 7.08995547612833 1.2000000000000002
    vertex -18.70336505489903 7.0899554761283525 -0.49999999999999994
    vertex -6.903365054899041 7.08995547612833 -0.49999999999999994
  endloop
endfacet
facet normal -2.8462988732838685e-15 -1.0 -9.36262781723317e-16
  outer loop
    vertex -18.70336505489903 7.0899554761283525 -0.49999999999999994
    vertex -6.903365054899041 7.08995547612833 1.2000000000000002
    vertex -8.903365054899037 7.08995547612833 1.0000000000000004
  endloop
endfacet
facet normal -2.8462988732838685e-15 -1.0 -9.36262781723317e-16
  outer loop
    vertex -18.70336505489903 7.0899554761283525 -0.49999999999999994
    vertex -8.903365054899037 7.08995547612833 1.0000000000000004
    vertex -18.70336505489903 7.0899554761283525 0.9999999999999999
  endloop
endfacet
facet normal -2.8462988732838685e-15 -1.0 -9.36262781723317e-16
  outer loop
    vertex -8.903365054899037 7.08995547612833 1.0000000000000004
    vertex -6.903365054899041 7.08995547612833 1.2000000000000002
    vertex -8.903365054899037 7.08995547612833 1.2000000000000008
  endloop
endfacet
facet normal -1.4284908040267554e-18 -4.407225270100859e-33 -1.0
  outer loop
    vertex -6.903365054899055 3.589955476128336 -0.49999999999999994
    vertex -18.703365054899052 0.18995547612831112 -0.49999999999999994
    vertex -18.703365054899077 3.589955476128287 -0.49999999999999994
  endloop
endfacet
facet normal -1.4284908040267554e-18 -4.407225270100859e-33 -1.0
  outer loop
    vertex -18.703365054899052 0.18995547612831112 -0.49999999999999994
    vertex -6.903365054899055 3.589955476128336 -0.49999999999999994
    vertex -6.903365054899058 0.1899554761283477 -0.49999999999999994
  endloop
endfacet
facet normal -1.4284908040267575e-18 2.5891194711014667e-33 -1.0
  outer loop
    vertex -6.903365054899029 10.489955476128344 -0.49999999999999994
    vertex -18.70336505489903 7.0899554761283525 -0.49999999999999994
    vertex -18.70336505489903 10.489955476128346 -0.49999999999999994
  endloop
endfacet
facet normal -1.4284908040267575e-18 2.5891194711014667e-33 -1.0
  outer loop
    vertex -18.70336505489903 7.0899554761283525 -0.49999999999999994
    vertex -6.903365054899029 10.489955476128344 -0.49999999999999994
    vertex -6.903365054899041 7.08995547612833 -0.49999999999999994
  endloop
endfacet
facet normal -5.3953440354870536e-17 -4.437891922550186e-32 1.0
  outer loop
    vertex -18.70336505489903 7.0899554761283525 0.9999999999999999
    vertex -18.00336505489903 8.027762845737303 0.9999999999999999
    vertex -18.70336505489903 10.489955476128346 0.9999999999999999
  endloop
endfacet
facet normal -5.3953440354870536e-17 -4.437891922550186e-32 1.0
  outer loop
    vertex -18.00336505489903 8.027762845737303 0.9999999999999999
    vertex -18.70336505489903 7.0899554761283525 0.9999999999999999
    vertex -17.93665486188492 7.86671019301411 0.9999999999999999
  endloop
endfacet
facet normal -5.3953440354870536e-17 -4.437891922550186e-32 1.0
  outer loop
    vertex -17.93665486188492 7.86671019301411 0.9999999999999999
    vertex -18.70336505489903 7.0899554761283525 0.9999999999999999
    vertex -17.77560220916173 7.8 0.9999999999999999
  endloop
endfacet
facet normal -5.3953440354870536e-17 -4.437891922550186e-32 1.0
  outer loop
    vertex -17.77560220916173 7.8 0.9999999999999999
    vertex -18.70336505489903 7.0899554761283525 0.9999999999999999
    vertex -8.903365054899037 7.08995547612833 1.0000000000000004
  endloop
endfacet
facet normal -5.3953440354870536e-17 -4.437891922550186e-32 1.0
  outer loop
    vertex -17.77560220916173 7.8 0.9999999999999999
    vertex -8.903365054899037 7.08995547612833 1.0000000000000004
    vertex -16.331127900636336 7.8 0.9999999999999999
  endloop
endfacet
facet normal -5.3953440354870536e-17 -4.437891922550186e-32 1.0
  outer loop
    vertex -16.331127900636336 7.8 0.9999999999999999
    vertex -8.903365054899037 7.08995547612833 1.0000000000000004
    vertex -16.170075247913143 7.866710193014111 0.9999999999999999
  endloop
endfacet
facet normal -5.3953440354870536e-17 -4.437891922550186e-32 1.0
  outer loop
    vertex -16.170075247913143 7.866710193014111 0.9999999999999999
    vertex -8.903365054899037 7.08995547612833 1.0000000000000004
    vertex -16.103365054899033 8.027762845737303 0.9999999999999999
  endloop
endfacet
facet normal -5.3953440354870536e-17 -4.437891922550186e-32 1.0
  outer loop
    vertex -16.103365054899033 8.027762845737303 0.9999999999999999
    vertex -8.903365054899037 7.08995547612833 1.0000000000000004
    vertex -8.903365054899043 10.489955476128333 1.0000000000000004
  endloop
endfacet
facet normal -5.3953440354870536e-17 -4.437891922550186e-32 1.0
  outer loop
    vertex -18.70336505489903 10.489955476128346 0.9999999999999999
    vertex -17.77560220916173 9.799999999999995 0.9999999999999999
    vertex -8.903365054899043 10.489955476128333 1.0000000000000004
  endloop
endfacet
facet normal -5.3953440354870536e-17 -4.437891922550186e-32 1.0
  outer loop
    vertex -17.77560220916173 9.799999999999995 0.9999999999999999
    vertex -18.70336505489903 10.489955476128346 0.9999999999999999
    vertex -17.93665486188492 9.733289806985887 0.9999999999999999
  endloop
endfacet
facet normal -5.3953440354870536e-17 -4.437891922550186e-32 1.0
  outer loop
    vertex -17.93665486188492 9.733289806985887 0.9999999999999999
    vertex -18.70336505489903 10.489955476128346 0.9999999999999999
    vertex -18.00336505489903 9.572237154262696 0.9999999999999999
  endloop
endfacet
facet normal -5.3953440354870536e-17 -4.437891922550186e-32 1.0
  outer loop
    vertex -18.00336505489903 9.572237154262696 0.9999999999999999
    vertex -18.70336505489903 10.489955476128346 0.9999999999999999
    vertex -18.00336505489903 8.027762845737303 0.9999999999999999
  endloop
endfacet
facet normal -5.3953440354870536e-17 -4.437891922550186e-32 1.0
  outer loop
    vertex -8.903365054899043 10.489955476128333 1.0000000000000004
    vertex -17.77560220916173 9.799999999999995 0.9999999999999999
    vertex -16.331127900636336 9.799999999999999 0.9999999999999999
  endloop
endfacet
facet normal -5.3953440354870536e-17 -4.437891922550186e-32 1.0
  outer loop
    vertex -8.903365054899043 10.489955476128333 1.0000000000000004
    vertex -16.331127900636336 9.799999999999999 0.9999999999999999
    vertex -16.170075247913143 9.733289806985887 0.9999999999999999
  endloop
endfacet
facet normal -5.3953440354870536e-17 -4.437891922550186e-32 1.0
  outer loop
    vertex -8.903365054899043 10.489955476128333 1.0000000000000004
    vertex -16.170075247913143 9.733289806985887 0.9999999999999999
    vertex -16.103365054899037 9.572237154262696 0.9999999999999999
  endloop
endfacet
facet normal -5.3953440354870536e-17 -4.437891922550186e-32 1.0
  outer loop
    vertex -8.903365054899043 10.489955476128333 1.0000000000000004
    vertex -16.103365054899037 9.572237154262696 0.9999999999999999
    vertex -16.103365054899033 8.027762845737303 0.9999999999999999
  endloop
endfacet
facet normal 1.0 -2.8616472683977166e-15 -1.0211255421438643e-15
  outer loop
    vertex -6.903365054899029 10.489955476128344 -0.49999999999999994
    vertex -6.903365054899041 7.08995547612833 1.2000000000000002
    vertex -6.903365054899041 7.08995547612833 -0.49999999999999994
  endloop
endfacet
facet normal 1.0 -2.8616472683977166e-15 -1.0211255421438643e-15
  outer loop
    vertex -6.903365054899041 7.08995547612833 1.2000000000000002
    vertex -6.903365054899029 10.489955476128344 -0.49999999999999994
    vertex -6.903365054899036 7.796497134788647 2.2
  endloop
endfacet
facet normal 1.0 -2.8616472683977166e-15 -1.0211255421438643e-15
  outer loop
    vertex -6.903365054899036 7.796497134788647 2.2
    vertex -6.903365054899029 10.489955476128344 -0.49999999999999994
    vertex -6.903365054899031 9.796497134788646 2.2
  endloop
endfacet
facet normal 1.0 -2.8616472683977166e-15 -1.0211255421438643e-15
  outer loop
    vertex -6.903365054899031 9.796497134788646 2.2
    vertex -6.903365054899029 10.489955476128344 -0.49999999999999994
    vertex -6.903365054899029 10.489955476128344 2.2
  endloop
endfacet
facet normal 1.0 -2.8616472683977166e-15 -1.0211255421438643e-15
  outer loop
    vertex -6.903365054899055 3.589955476128336 -0.49999999999999994
    vertex -6.903365054899058 0.1899554761283477 2.2
    vertex -6.903365054899058 0.1899554761283477 -0.49999999999999994
  endloop
endfacet
facet normal 1.0 -2.8616472683977166e-15 -1.0211255421438643e-15
  outer loop
    vertex -6.903365054899058 0.1899554761283477 2.2
    vertex -6.903365054899055 3.589955476128336 -0.49999999999999994
    vertex -6.903365054899058 0.382534491649371 2.2
  endloop
endfacet
facet normal 1.0 -2.8616472683977166e-15 -1.0211255421438643e-15
  outer loop
    vertex -6.903365054899058 0.382534491649371 2.2
    vertex -6.903365054899055 3.589955476128336 -0.49999999999999994
    vertex -6.9033650548990515 2.3825344916493707 2.2
  endloop
endfacet
facet normal 1.0 -2.8616472683977166e-15 -1.0211255421438643e-15
  outer loop
    vertex -6.9033650548990515 2.3825344916493707 2.2
    vertex -6.903365054899055 3.589955476128336 -0.49999999999999994
    vertex -6.903365054899055 3.589955476128336 1.2000000000000002
  endloop
endfacet
facet normal 1.0 -2.8616472683977166e-15 -1.0211255421438643e-15
  outer loop
    vertex -6.9033650548990515 2.3825344916493707 2.2
    vertex -6.903365054899055 3.589955476128336 1.2000000000000002
    vertex -6.903365054899036 7.796497134788647 2.2
  endloop
endfacet
facet normal 1.0 -2.8616472683977166e-15 -1.0211255421438643e-15
  outer loop
    vertex -6.903365054899036 7.796497134788647 2.2
    vertex -6.903365054899055 3.589955476128336 1.2000000000000002
    vertex -6.903365054899041 7.08995547612833 1.2000000000000002
  endloop
endfacet
facet normal -0.0 1.0 -0.0
  outer loop
    vertex -5.700000000000001 3.5999999999999996 1.2000000000000002
    vertex 6.1 3.5999999999999996 -0.49999999999999994
    vertex -5.700000000000001 3.5999999999999996 -0.49999999999999994
  endloop
endfacet
facet normal -0.0 1.0 -0.0
  outer loop
    vertex 6.1 3.5999999999999996 -0.49999999999999994
    vertex -5.700000000000001 3.5999999999999996 1.2000000000000002
    vertex -3.7 3.5999999999999996 0.9999999999999999
  endloop
endfacet
facet normal -0.0 1.0 -0.0
  outer loop
    vertex -3.7 3.5999999999999996 0.9999999999999999
    vertex -5.700000000000001 3.5999999999999996 1.2000000000000002
    vertex -3.7 3.5999999999999996 1.2000000000000002
  endloop
endfacet
facet normal -0.0 1.0 -0.0
  outer loop
    vertex 6.1 3.5999999999999996 0.9999999999999999
    vertex 6.1 3.5999999999999996 -0.49999999999999994
    vertex -3.7 3.5999999999999996 0.9999999999999999
  endloop
endfacet
facet normal 0.0 0.0 -1.0
  outer loop
    vertex -3.7 7.1 1.2000000000000002
    vertex -5.700000000000001 3.5999999999999996 1.2000000000000002
    vertex -5.700000000000002 7.1 1.2000000000000002
  endloop
endfacet
facet normal 0.0 0.0 -1.0
  outer loop
    vertex -5.700000000000001 3.5999999999999996 1.2000000000000002
    vertex -3.7 7.1 1.2000000000000002
    vertex -3.7 3.5999999999999996 1.2000000000000002
  endloop
endfacet
facet normal -1.0 -8.429895475476762e-17 -6.791302477046348e-18
  outer loop
    vertex -5.700000000000002 7.796497134788647 2.2
    vertex -5.700000000000001 3.5999999999999996 1.2000000000000002
    vertex -5.700000000000001 2.382534491649371 2.2
  endloop
endfacet
facet normal -1.0 -8.429895475476762e-17 -6.791302477046348e-18
  outer loop
    vertex -5.700000000000001 3.5999999999999996 1.2000000000000002
    vertex -5.700000000000002 7.796497134788647 2.2
    vertex -5.700000000000002 7.1 1.2000000000000002
  endloop
endfacet
facet normal -1.0 -8.429895475476762e-17 -6.791302477046348e-18
  outer loop
    vertex -5.700000000000002 7.1 1.2000000000000002
    vertex -5.700000000000002 7.796497134788647 2.2
    vertex -5.700000000000002 7.1 -0.49999999999999994
  endloop
endfacet
facet normal -1.0 -8.429895475476762e-17 -6.791302477046348e-18
  outer loop
    vertex -5.700000000000002 7.1 -0.49999999999999994
    vertex -5.700000000000002 7.796497134788647 2.2
    vertex -5.700000000000002 10.5 -0.49999999999999994
  endloop
endfacet
facet normal -1.0 -8.429895475476762e-17 -6.791302477046348e-18
  outer loop
    vertex -5.700000000000002 10.5 -0.49999999999999994
    vertex -5.700000000000002 7.796497134788647 2.2
    vertex -5.700000000000002 9.796497134788646 2.2
  endloop
endfacet
facet normal -1.0 -8.429895475476762e-17 -6.791302477046348e-18
  outer loop
    vertex -5.700000000000002 10.5 -0.49999999999999994
    vertex -5.700000000000002 9.796497134788646 2.2
    vertex -5.700000000000002 10.5 2.2
  endloop
endfacet
facet normal -1.0 -8.429895475476762e-17 -6.791302477046348e-18
  outer loop
    vertex -5.700000000000001 0.382534491649371 2.2
    vertex -5.700000000000001 0.20000000000000004 -0.49999999999999994
    vertex -5.700000000000001 0.20000000000000004 2.2
  endloop
endfacet
facet normal -1.0 -8.429895475476762e-17 -6.791302477046348e-18
  outer loop
    vertex -5.700000000000001 0.20000000000000004 -0.49999999999999994
    vertex -5.700000000000001 0.382534491649371 2.2
    vertex -5.700000000000001 3.5999999999999996 -0.49999999999999994
  endloop
endfacet
facet normal -1.0 -8.429895475476762e-17 -6.791302477046348e-18
  outer loop
    vertex -5.700000000000001 3.5999999999999996 -0.49999999999999994
    vertex -5.700000000000001 0.382534491649371 2.2
    vertex -5.700000000000001 2.382534491649371 2.2
  endloop
endfacet
facet normal -1.0 -8.429895475476762e-17 -6.791302477046348e-18
  outer loop
    vertex -5.700000000000001 3.5999999999999996 -0.49999999999999994
    vertex -5.700000000000001 2.382534491649371 2.2
    vertex -5.700000000000001 3.5999999999999996 1.2000000000000002
  endloop
endfacet
facet normal 0.0 0.0 -1.0
  outer loop
    vertex 6.1 10.5 -0.49999999999999994
    vertex -5.700000000000002 7.1 -0.49999999999999994
    vertex -5.700000000000002 10.5 -0.49999999999999994
  endloop
endfacet
facet normal 0.0 0.0 -1.0
  outer loop
    vertex -5.700000000000002 7.1 -0.49999999999999994
    vertex 6.1 10.5 -0.49999999999999994
    vertex 6.1 7.1 -0.49999999999999994
  endloop
endfacet
facet normal 0.0 0.0 -1.0
  outer loop
    vertex 6.1 3.5999999999999996 -0.49999999999999994
    vertex -5.700000000000001 0.20000000000000004 -0.49999999999999994
    vertex -5.700000000000001 3.5999999999999996 -0.49999999999999994
  endloop
endfacet
facet normal 0.0 0.0 -1.0
  outer loop
    vertex -5.700000000000001 0.20000000000000004 -0.49999999999999994
    vertex 6.1 3.5999999999999996 -0.49999999999999994
    vertex 6.1 0.20000000000000004 -0.49999999999999994
  endloop
endfacet
facet normal -0.0 1.0 -0.0
  outer loop
    vertex -5.700000000000002 10.5 -0.49999999999999994
    vertex -3.7 10.5 0.9999999999999999
    vertex 6.1 10.5 -0.49999999999999994
  endloop
endfacet
facet normal -0.0 1.0 -0.0
  outer loop
    vertex -3.7 10.5 0.9999999999999999
    vertex -5.700000000000002 10.5 -0.49999999999999994
    vertex -5.700000000000002 10.5 2.2
  endloop
endfacet
facet normal -0.0 1.0 -0.0
  outer loop
    vertex -3.7 10.5 0.9999999999999999
    vertex -5.700000000000002 10.5 2.2
    vertex -3.7 10.5 2.2
  endloop
endfacet
facet normal -0.0 1.0 -0.0
  outer loop
    vertex 6.1 10.5 0.9999999999999999
    vertex 6.1 10.5 -0.49999999999999994
    vertex -3.7 10.5 0.9999999999999999
  endloop
endfacet
facet normal -0.0 -0.0 1.0
  outer loop
    vertex -3.7 0.19999999999999962 2.2
    vertex -5.700000000000001 0.382534491649371 2.2
    vertex -5.700000000000001 0.20000000000000004 2.2
  endloop
endfacet
facet normal -0.0 -0.0 1.0
  outer loop
    vertex -5.700000000000001 0.382534491649371 2.2
    vertex -3.7 0.19999999999999962 2.2
    vertex -5.427890261067746 0.382534491649371 2.2
  endloop
endfacet
facet normal -0.0 -0.0 1.0
  outer loop
    vertex -5.427890261067746 0.382534491649371 2.2
    vertex -3.7 0.19999999999999962 2.2
    vertex -5.427890261067746 2.3825344916493707 2.2
  endloop
endfacet
facet normal -0.0 -0.0 1.0
  outer loop
    vertex -5.427890261067746 2.3825344916493707 2.2
    vertex -3.7 0.19999999999999962 2.2
    vertex -5.427890261067746 7.796497134788647 2.2
  endloop
endfacet
facet normal -0.0 -0.0 1.0
  outer loop
    vertex -5.427890261067746 7.796497134788647 2.2
    vertex -3.7 0.19999999999999962 2.2
    vertex -5.427890261067746 9.796497134788646 2.2
  endloop
endfacet
facet normal -0.0 -0.0 1.0
  outer loop
    vertex -5.427890261067746 9.796497134788646 2.2
    vertex -5.700000000000002 10.5 2.2
    vertex -5.700000000000002 9.796497134788646 2.2
  endloop
endfacet
facet normal -0.0 -0.0 1.0
  outer loop
    vertex -5.700000000000002 10.5 2.2
    vertex -5.427890261067746 9.796497134788646 2.2
    vertex -3.7 10.5 2.2
  endloop
endfacet
facet normal -0.0 -0.0 1.0
  outer loop
    vertex -3.7 10.5 2.2
    vertex -5.427890261067746 9.796497134788646 2.2
    vertex -3.7 0.19999999999999962 2.2
  endloop
endfacet
facet normal -0.0 -0.0 1.0
  outer loop
    vertex -5.700000000000001 2.382534491649371 2.2
    vertex -5.427890261067746 7.796497134788647 2.2
    vertex -5.700000000000002 7.796497134788647 2.2
  endloop
endfacet
facet normal -0.0 -0.0 1.0
  outer loop
    vertex -5.427890261067746 7.796497134788647 2.2
    vertex -5.700000000000001 2.382534491649371 2.2
    vertex -5.427890261067746 2.3825344916493707 2.2
  endloop
endfacet
facet normal 0.0 -1.0 0.0
  outer loop
    vertex 6.1 7.1 0.9999999999999999
    vertex -5.700000000000002 7.1 -0.49999999999999994
    vertex 6.1 7.1 -0.49999999999999994
  endloop
endfacet
facet normal 0.0 -1.0 0.0
  outer loop
    vertex -5.700000000000002 7.1 -0.49999999999999994
    vertex 6.1 7.1 0.9999999999999999
    vertex -3.7 7.1 0.9999999999999999
  endloop
endfacet
facet normal 0.0 -1.0 0.0
  outer loop
    vertex -5.700000000000002 7.1 -0.49999999999999994
    vertex -3.7 7.1 0.9999999999999999
    vertex -5.700000000000002 7.1 1.2000000000000002
  endloop
endfacet
facet normal 0.0 -1.0 0.0
  outer loop
    vertex -5.700000000000002 7.1 1.2000000000000002
    vertex -3.7 7.1 0.9999999999999999
    vertex -3.7 7.1 1.2000000000000002
  endloop
endfacet
facet normal 1.0556658898122562e-17 -1.0 -3.005542886289011e-16
  outer loop
    vertex 6.1 0.20000000000000004 0.9999999999999999
    vertex -5.700000000000001 0.20000000000000004 -0.49999999999999994
    vertex 6.1 0.20000000000000004 -0.49999999999999994
  endloop
endfacet
facet normal 1.0556658898122562e-17 -1.0 -3.005542886289011e-16
  outer loop
    vertex -5.700000000000001 0.20000000000000004 -0.49999999999999994
    vertex 6.1 0.20000000000000004 0.9999999999999999
    vertex -3.7 0.19999999999999962 0.9999999999999999
  endloop
endfacet
facet normal 1.0556658898122562e-17 -1.0 -3.005542886289011e-16
  outer loop
    vertex -5.700000000000001 0.20000000000000004 -0.49999999999999994
    vertex -3.7 0.19999999999999962 0.9999999999999999
    vertex -5.700000000000001 0.20000000000000004 2.2
  endloop
endfacet
facet normal 1.0556658898122562e-17 -1.0 -3.005542886289011e-16
  outer loop
    vertex -5.700000000000001 0.20000000000000004 2.2
    vertex -3.7 0.19999999999999962 0.9999999999999999
    vertex -3.7 0.19999999999999962 2.2
  endloop
endfacet
facet normal 1.0 0.0 0.0
  outer loop
    vertex 6.1 3.5999999999999996 -0.49999999999999994
    vertex 6.1 0.20000000000000004 0.9999999999999999
    vertex 6.1 0.20000000000000004 -0.49999999999999994
  endloop
endfacet
facet normal 1.0 0.0 0.0
  outer loop
    vertex 6.1 0.20000000000000004 0.9999999999999999
    vertex 6.1 3.5999999999999996 -0.49999999999999994
    vertex 6.1 3.5999999999999996 0.9999999999999999
  endloop
endfacet
facet normal -0.0 -0.0 1.0
  outer loop
    vertex -3.7 0.19999999999999962 0.9999999999999999
    vertex 3.7436560997359543 0.9023974404883808 1.0000000000000002
    vertex -3.7 3.5999999999999996 0.9999999999999999
  endloop
endfacet
facet normal -0.0 -0.0 1.0
  outer loop
    vertex 3.7436560997359543 0.9023974404883808 1.0000000000000002
    vertex -3.7 0.19999999999999962 0.9999999999999999
    vertex 6.1 0.20000000000000004 0.9999999999999999
  endloop
endfacet
facet normal -0.0 -0.0 1.0
  outer loop
    vertex -3.7 3.5999999999999996 0.9999999999999999
    vertex 3.7436560997359543 0.9023974404883808 1.0000000000000002
    vertex 3.5820786304275387 0.9820786304275391 1.0000000000000002
  endloop
endfacet
facet normal -0.0 -0.0 1.0
  outer loop
    vertex -3.7 3.5999999999999996 0.9999999999999999
    vertex 3.5820786304275387 0.9820786304275391 1.0000000000000002
    vertex 3.499999999999999 1.180233973186712 1.0000000000000002
  endloop
endfacet
facet normal -0.0 -0.0 1.0
  outer loop
    vertex 3.7436560997359543 0.9023974404883808 1.0000000000000002
    vertex 6.1 0.20000000000000004 0.9999999999999999
    vertex 3.7802339731867116 0.9000000000000005 1.0000000000000002
  endloop
endfacet
facet normal -0.0 -0.0 1.0
  outer loop
    vertex 3.7802339731867116 0.9000000000000005 1.0000000000000002
    vertex 6.1 0.20000000000000004 0.9999999999999999
    vertex 5.119766026813289 0.9000000000000002 1.0000000000000002
  endloop
endfacet
facet normal -0.0 -0.0 1.0
  outer loop
    vertex 5.119766026813289 0.9000000000000002 1.0000000000000002
    vertex 6.1 0.20000000000000004 0.9999999999999999
    vertex 5.317921369572462 0.9820786304275391 1.0000000000000002
  endloop
endfacet
facet normal -0.0 -0.0 1.0
  outer loop
    vertex 5.317921369572462 0.9820786304275391 1.0000000000000002
    vertex 6.1 0.20000000000000004 0.9999999999999999
    vertex 5.39760255951162 1.1436560997359544 1.0000000000000002
  endloop
endfacet
facet normal -0.0 -0.0 1.0
  outer loop
    vertex 5.39760255951162 1.1436560997359544 1.0000000000000002
    vertex 6.1 0.20000000000000004 0.9999999999999999
    vertex 5.4 1.180233973186712 1.0000000000000002
  endloop
endfacet
facet normal -0.0 -0.0 1.0
  outer loop
    vertex 5.4 1.180233973186712 1.0000000000000002
    vertex 6.1 0.20000000000000004 0.9999999999999999
    vertex 5.4 2.6612237571239215 1.0000000000000002
  endloop
endfacet
facet normal -0.0 -0.0 1.0
  outer loop
    vertex -3.7 3.5999999999999996 0.9999999999999999
    vertex 3.7387762428760785 2.9000000000000012 1.0000000000000002
    vertex 6.1 3.5999999999999996 0.9999999999999999
  endloop
endfacet
facet normal -0.0 -0.0 1.0
  outer loop
    vertex 3.7387762428760785 2.9000000000000012 1.0000000000000002
    vertex -3.7 3.5999999999999996 0.9999999999999999
    vertex 3.5699359423521573 2.830064057647843 1.0000000000000002
  endloop
endfacet
facet normal -0.0 -0.0 1.0
  outer loop
    vertex 3.5699359423521573 2.830064057647843 1.0000000000000002
    vertex -3.7 3.5999999999999996 0.9999999999999999
    vertex 3.5020427638584453 2.6923903108991465 1.0000000000000002
  endloop
endfacet
facet normal -0.0 -0.0 1.0
  outer loop
    vertex 3.5020427638584453 2.6923903108991465 1.0000000000000002
    vertex -3.7 3.5999999999999996 0.9999999999999999
    vertex 3.5 2.6612237571239215 1.0000000000000002
  endloop
endfacet
facet normal -0.0 -0.0 1.0
  outer loop
    vertex 3.5 2.6612237571239215 1.0000000000000002
    vertex -3.7 3.5999999999999996 0.9999999999999999
    vertex 3.499999999999999 1.180233973186712 1.0000000000000002
  endloop
endfacet
facet normal -0.0 -0.0 1.0
  outer loop
    vertex 6.1 3.5999999999999996 0.9999999999999999
    vertex 3.7387762428760785 2.9000000000000012 1.0000000000000002
    vertex 5.1612237571239215 2.9000000000000004 1.0000000000000002
  endloop
endfacet
facet normal -0.0 -0.0 1.0
  outer loop
    vertex 6.1 3.5999999999999996 0.9999999999999999
    vertex 5.1612237571239215 2.9000000000000004 1.0000000000000002
    vertex 5.192390310899146 2.8979572361415546 1.0000000000000002
  endloop
endfacet
facet normal -0.0 -0.0 1.0
  outer loop
    vertex 6.1 3.5999999999999996 0.9999999999999999
    vertex 5.192390310899146 2.8979572361415546 1.0000000000000002
    vertex 5.330064057647842 2.8300640576478426 1.0000000000000002
  endloop
endfacet
facet normal -0.0 -0.0 1.0
  outer loop
    vertex 6.1 3.5999999999999996 0.9999999999999999
    vertex 5.330064057647842 2.8300640576478426 1.0000000000000002
    vertex 5.4 2.6612237571239215 1.0000000000000002
  endloop
endfacet
facet normal -0.0 -0.0 1.0
  outer loop
    vertex 6.1 3.5999999999999996 0.9999999999999999
    vertex 5.4 2.6612237571239215 1.0000000000000002
    vertex 6.1 0.20000000000000004 0.9999999999999999
  endloop
endfacet
facet normal 1.0 0.0 0.0
  outer loop
    vertex -3.7 10.5 0.9999999999999999
    vertex -3.7 7.1 1.2000000000000002
    vertex -3.7 7.1 0.9999999999999999
  endloop
endfacet
facet normal 1.0 0.0 0.0
  outer loop
    vertex -3.7 3.5999999999999996 0.9999999999999999
    vertex -3.7 0.19999999999999962 2.2
    vertex -3.7 0.19999999999999962 0.9999999999999999
  endloop
endfacet
facet normal 1.0 0.0 0.0
  outer loop
    vertex -3.7 0.19999999999999962 2.2
    vertex -3.7 3.5999999999999996 0.9999999999999999
    vertex -3.7 3.5999999999999996 1.2000000000000002
  endloop
endfacet
facet normal 1.0 0.0 0.0
  outer loop
    vertex -3.7 0.19999999999999962 2.2
    vertex -3.7 3.5999999999999996 1.2000000000000002
    vertex -3.7 10.5 2.2
  endloop
endfacet
facet normal 1.0 0.0 0.0
  outer loop
    vertex -3.7 10.5 2.2
    vertex -3.7 3.5999999999999996 1.2000000000000002
    vertex -3.7 7.1 1.2000000000000002
  endloop
endfacet
facet normal 1.0 0.0 0.0
  outer loop
    vertex -3.7 10.5 2.2
    vertex -3.7 7.1 1.2000000000000002
    vertex -3.7 10.5 0.9999999999999999
  endloop
endfacet
facet normal 1.0 0.0 0.0
  outer loop
    vertex 6.1 10.5 -0.49999999999999994
    vertex 6.1 7.1 0.9999999999999999
    vertex 6.1 7.1 -0.49999999999999994
  endloop
endfacet
facet normal 1.0 0.0 0.0
  outer loop
    vertex 6.1 7.1 0.9999999999999999
    vertex 6.1 10.5 -0.49999999999999994
    vertex 6.1 10.5 0.9999999999999999
  endloop
endfacet
facet normal -0.0 -0.0 1.0
  outer loop
    vertex -3.7 7.1 0.9999999999999999
    vertex 3.7436560997359543 7.80239744048838 0.9999999999999999
    vertex -3.7 10.5 0.9999999999999999
  endloop
endfacet
facet normal -0.0 -0.0 1.0
  outer loop
    vertex 3.7436560997359543 7.80239744048838 0.9999999999999999
    vertex -3.7 7.1 0.9999999999999999
    vertex 6.1 7.1 0.9999999999999999
  endloop
endfacet
facet normal -0.0 -0.0 1.0
  outer loop
    vertex -3.7 10.5 0.9999999999999999
    vertex 3.7436560997359543 7.80239744048838 0.9999999999999999
    vertex 3.582078630427538 7.882078630427539 0.9999999999999999
  endloop
endfacet
facet normal -0.0 -0.0 1.0
  outer loop
    vertex -3.7 10.5 0.9999999999999999
    vertex 3.582078630427538 7.882078630427539 0.9999999999999999
    vertex 3.499999999999999 8.080233973186711 0.9999999999999999
  endloop
endfacet
facet normal -0.0 -0.0 1.0
  outer loop
    vertex 3.7436560997359543 7.80239744048838 0.9999999999999999
    vertex 6.1 7.1 0.9999999999999999
    vertex 3.7802339731867116 7.8 0.9999999999999999
  endloop
endfacet
facet normal -0.0 -0.0 1.0
  outer loop
    vertex 3.7802339731867116 7.8 0.9999999999999999
    vertex 6.1 7.1 0.9999999999999999
    vertex 5.119766026813287 7.8 0.9999999999999999
  endloop
endfacet
facet normal -0.0 -0.0 1.0
  outer loop
    vertex 5.119766026813287 7.8 0.9999999999999999
    vertex 6.1 7.1 0.9999999999999999
    vertex 5.317921369572461 7.882078630427539 0.9999999999999999
  endloop
endfacet
facet normal -0.0 -0.0 1.0
  outer loop
    vertex 5.317921369572461 7.882078630427539 0.9999999999999999
    vertex 6.1 7.1 0.9999999999999999
    vertex 5.397602559511619 8.043656099735955 0.9999999999999999
  endloop
endfacet
facet normal -0.0 -0.0 1.0
  outer loop
    vertex 5.397602559511619 8.043656099735955 0.9999999999999999
    vertex 6.1 7.1 0.9999999999999999
    vertex 5.3999999999999995 8.080233973186711 0.9999999999999999
  endloop
endfacet
facet normal -0.0 -0.0 1.0
  outer loop
    vertex -3.7 10.5 0.9999999999999999
    vertex 3.7802339731867116 9.799999999999999 0.9999999999999999
    vertex 6.1 10.5 0.9999999999999999
  endloop
endfacet
facet normal -0.0 -0.0 1.0
  outer loop
    vertex 3.7802339731867116 9.799999999999999 0.9999999999999999
    vertex -3.7 10.5 0.9999999999999999
    vertex 3.582078630427538 9.71792136957246 0.9999999999999999
  endloop
endfacet
facet normal -0.0 -0.0 1.0
  outer loop
    vertex 3.582078630427538 9.71792136957246 0.9999999999999999
    vertex -3.7 10.5 0.9999999999999999
    vertex 3.5023974404883793 9.556343900264045 0.9999999999999999
  endloop
endfacet
facet normal -0.0 -0.0 1.0
  outer loop
    vertex 3.5023974404883793 9.556343900264045 0.9999999999999999
    vertex -3.7 10.5 0.9999999999999999
    vertex 3.499999999999999 9.519766026813286 0.9999999999999999
  endloop
endfacet
facet normal -0.0 -0.0 1.0
  outer loop
    vertex 3.499999999999999 9.519766026813286 0.9999999999999999
    vertex -3.7 10.5 0.9999999999999999
    vertex 3.499999999999999 8.080233973186711 0.9999999999999999
  endloop
endfacet
facet normal -0.0 -0.0 1.0
  outer loop
    vertex 6.1 10.5 0.9999999999999999
    vertex 3.7802339731867116 9.799999999999999 0.9999999999999999
    vertex 5.119766026813286 9.799999999999999 0.9999999999999999
  endloop
endfacet
facet normal -0.0 -0.0 1.0
  outer loop
    vertex 6.1 10.5 0.9999999999999999
    vertex 5.119766026813286 9.799999999999999 0.9999999999999999
    vertex 5.156343900264043 9.797602559511619 0.9999999999999999
  endloop
endfacet
facet normal -0.0 -0.0 1.0
  outer loop
    vertex 6.1 10.5 0.9999999999999999
    vertex 5.156343900264043 9.797602559511619 0.9999999999999999
    vertex 5.31792136957246 9.71792136957246 0.9999999999999999
  endloop
endfacet
facet normal -0.0 -0.0 1.0
  outer loop
    vertex 6.1 10.5 0.9999999999999999
    vertex 5.31792136957246 9.71792136957246 0.9999999999999999
    vertex 5.399999999999999 9.519766026813286 0.9999999999999999
  endloop
endfacet
facet normal -0.0 -0.0 1.0
  outer loop
    vertex 6.1 10.5 0.9999999999999999
    vertex 5.399999999999999 9.519766026813286 0.9999999999999999
    vertex 5.3999999999999995 8.080233973186711 0.9999999999999999
  endloop
endfacet
facet normal -0.0 -0.0 1.0
  outer loop
    vertex 6.1 10.5 0.9999999999999999
    vertex 5.3999999999999995 8.080233973186711 0.9999999999999999
    vertex 6.1 7.1 0.9999999999999999
  endloop
endfacet
facet normal -0.0 -0.0 1.0
  outer loop
    vertex -6.903365054899058 0.1899554761283477 2.2
    vertex -7.227890261067746 0.382534491649371 2.2
    vertex -8.903365054899037 0.18995547612834324 2.2000000000000006
  endloop
endfacet
facet normal -0.0 -0.0 1.0
  outer loop
    vertex -7.227890261067746 0.382534491649371 2.2
    vertex -6.903365054899058 0.1899554761283477 2.2
    vertex -6.903365054899058 0.382534491649371 2.2
  endloop
endfacet
facet normal -0.0 -0.0 1.0
  outer loop
    vertex -6.9033650548990515 2.3825344916493707 2.2
    vertex -7.227890261067746 7.796497134788647 2.2
    vertex -7.227890261067746 2.3825344916493707 2.2
  endloop
endfacet
facet normal -0.0 -0.0 1.0
  outer loop
    vertex -7.227890261067746 7.796497134788647 2.2
    vertex -6.9033650548990515 2.3825344916493707 2.2
    vertex -6.903365054899036 7.796497134788647 2.2
  endloop
endfacet
facet normal -0.0 -0.0 1.0
  outer loop
    vertex -8.903365054899043 10.489955476128333 2.2000000000000006
    vertex -7.227890261067746 9.796497134788646 2.2
    vertex -6.903365054899029 10.489955476128344 2.2
  endloop
endfacet
facet normal -0.0 -0.0 1.0
  outer loop
    vertex -7.227890261067746 9.796497134788646 2.2
    vertex -8.903365054899043 10.489955476128333 2.2000000000000006
    vertex -8.903365054899037 0.18995547612834324 2.2000000000000006
  endloop
endfacet
facet normal -0.0 -0.0 1.0
  outer loop
    vertex -7.227890261067746 9.796497134788646 2.2
    vertex -8.903365054899037 0.18995547612834324 2.2000000000000006
    vertex -7.227890261067746 0.382534491649371 2.2
  endloop
endfacet
facet normal -0.0 -0.0 1.0
  outer loop
    vertex -7.227890261067746 9.796497134788646 2.2
    vertex -7.227890261067746 0.382534491649371 2.2
    vertex -7.227890261067746 2.3825344916493707 2.2
  endloop
endfacet
facet normal -0.0 -0.0 1.0
  outer loop
    vertex -7.227890261067746 9.796497134788646 2.2
    vertex -7.227890261067746 2.3825344916493707 2.2
    vertex -7.227890261067746 7.796497134788647 2.2
  endloop
endfacet
facet normal -0.0 -0.0 1.0
  outer loop
    vertex -6.903365054899029 10.489955476128344 2.2
    vertex -7.227890261067746 9.796497134788646 2.2
    vertex -6.903365054899031 9.796497134788646 2.2
  endloop
endfacet
facet normal 0.0 0.0 -1.0
  outer loop
    vertex -6.903365054899031 9.796497134788646 2.2
    vertex -5.700000000000002 7.796497134788647 2.2
    vertex -6.903365054899036 7.796497134788647 2.2
  endloop
endfacet
facet normal 0.0 0.0 -1.0
  outer loop
    vertex -5.700000000000002 7.796497134788647 2.2
    vertex -6.903365054899031 9.796497134788646 2.2
    vertex -5.700000000000002 9.796497134788646 2.2
  endloop
endfacet
facet normal -0.0 1.0 -0.0
  outer loop
    vertex -7.227890261067746 9.796497134788646 3.1999999999999997
    vertex -6.903365054899031 9.796497134788646 2.2
    vertex -7.227890261067746 9.796497134788646 2.2
  endloop
endfacet
facet normal -0.0 1.0 -0.0
  outer loop
    vertex -6.903365054899031 9.796497134788646 2.2
    vertex -7.227890261067746 9.796497134788646 3.1999999999999997
    vertex -5.700000000000002 9.796497134788646 2.2
  endloop
endfacet
facet normal -0.0 1.0 -0.0
  outer loop
    vertex -5.700000000000002 9.796497134788646 2.2
    vertex -7.227890261067746 9.796497134788646 3.1999999999999997
    vertex -5.427890261067746 9.796497134788646 2.2
  endloop
endfacet
facet normal -0.0 1.0 -0.0
  outer loop
    vertex -5.427890261067746 9.796497134788646 2.2
    vertex -7.227890261067746 9.796497134788646 3.1999999999999997
    vertex -5.427890261067746 9.796497134788646 3.1999999999999997
  endloop
endfacet
facet normal 1.0 -0.0 0.0
  outer loop
    vertex -5.427890261067746 9.796497134788646 2.2
    vertex -5.427890261067746 7.796497134788647 3.1999999999999997
    vertex -5.427890261067746 7.796497134788647 2.2
  endloop
endfacet
facet normal 1.0 -0.0 0.0
  outer loop
    vertex -5.427890261067746 7.796497134788647 3.1999999999999997
    vertex -5.427890261067746 9.796497134788646 2.2
    vertex -5.427890261067746 9.796497134788646 3.1999999999999997
  endloop
endfacet
facet normal -0.0 -0.0 1.0
  outer loop
    vertex -5.427890261067746 7.796497134788647 3.1999999999999997
    vertex -7.227890261067746 9.796497134788646 3.1999999999999997
    vertex -7.227890261067746 7.796497134788647 3.1999999999999997
  endloop
endfacet
facet normal -0.0 -0.0 1.0
  outer loop
    vertex -7.227890261067746 9.796497134788646 3.1999999999999997
    vertex -5.427890261067746 7.796497134788647 3.1999999999999997
    vertex -5.427890261067746 9.796497134788646 3.1999999999999997
  endloop
endfacet
facet normal -1.0 -0.0 -0.0
  outer loop
    vertex -7.227890261067746 9.796497134788646 3.1999999999999997
    vertex -7.227890261067746 7.796497134788647 2.2
    vertex -7.227890261067746 7.796497134788647 3.1999999999999997
  endloop
endfacet
facet normal -1.0 -0.0 -0.0
  outer loop
    vertex -7.227890261067746 7.796497134788647 2.2
    vertex -7.227890261067746 9.796497134788646 3.1999999999999997
    vertex -7.227890261067746 9.796497134788646 2.2
  endloop
endfacet
facet normal 0.0 -1.0 0.0
  outer loop
    vertex -5.427890261067746 7.796497134788647 3.1999999999999997
    vertex -5.700000000000002 7.796497134788647 2.2
    vertex -5.427890261067746 7.796497134788647 2.2
  endloop
endfacet
facet normal 0.0 -1.0 0.0
  outer loop
    vertex -5.700000000000002 7.796497134788647 2.2
    vertex -5.427890261067746 7.796497134788647 3.1999999999999997
    vertex -6.903365054899036 7.796497134788647 2.2
  endloop
endfacet
facet normal 0.0 -1.0 0.0
  outer loop
    vertex -6.903365054899036 7.796497134788647 2.2
    vertex -5.427890261067746 7.796497134788647 3.1999999999999997
    vertex -7.227890261067746 7.796497134788647 2.2
  endloop
endfacet
facet normal 0.0 -1.0 0.0
  outer loop
    vertex -7.227890261067746 7.796497134788647 2.2
    vertex -5.427890261067746 7.796497134788647 3.1999999999999997
    vertex -7.227890261067746 7.796497134788647 3.1999999999999997
  endloop
endfacet
facet normal 0.0 0.0 -1.0
  outer loop
    vertex -6.9033650548990515 2.3825344916493707 2.2
    vertex -5.700000000000001 0.382534491649371 2.2
    vertex -6.903365054899058 0.382534491649371 2.2
  endloop
endfacet
facet normal 0.0 0.0 -1.0
  outer loop
    vertex -5.700000000000001 0.382534491649371 2.2
    vertex -6.9033650548990515 2.3825344916493707 2.2
    vertex -5.700000000000001 2.382534491649371 2.2
  endloop
endfacet
facet normal 0.0 -1.0 0.0
  outer loop
    vertex -5.427890261067746 0.382534491649371 3.1999999999999997
    vertex -5.700000000000001 0.382534491649371 2.2
    vertex -5.427890261067746 0.382534491649371 2.2
  endloop
endfacet
facet normal 0.0 -1.0 0.0
  outer loop
    vertex -5.700000000000001 0.382534491649371 2.2
    vertex -5.427890261067746 0.382534491649371 3.1999999999999997
    vertex -6.903365054899058 0.382534491649371 2.2
  endloop
endfacet
facet normal 0.0 -1.0 0.0
  outer loop
    vertex -6.903365054899058 0.382534491649371 2.2
    vertex -5.427890261067746 0.382534491649371 3.1999999999999997
    vertex -7.227890261067746 0.382534491649371 2.2
  endloop
endfacet
facet normal 0.0 -1.0 0.0
  outer loop
    vertex -7.227890261067746 0.382534491649371 2.2
    vertex -5.427890261067746 0.382534491649371 3.1999999999999997
    vertex -7.227890261067746 0.382534491649371 3.1999999999999997
  endloop
endfacet
facet normal -0.0 -0.0 1.0
  outer loop
    vertex -5.427890261067746 0.382534491649371 3.1999999999999997
    vertex -7.227890261067746 2.3825344916493707 3.1999999999999997
    vertex -7.227890261067746 0.382534491649371 3.1999999999999997
  endloop
endfacet
facet normal -0.0 -0.0 1.0
  outer loop
    vertex -7.227890261067746 2.3825344916493707 3.1999999999999997
    vertex -5.427890261067746 0.382534491649371 3.1999999999999997
    vertex -5.427890261067746 2.3825344916493707 3.1999999999999997
  endloop
endfacet
facet normal -1.0 -0.0 -0.0
  outer loop
    vertex -7.227890261067746 2.3825344916493707 3.1999999999999997
    vertex -7.227890261067746 0.382534491649371 2.2
    vertex -7.227890261067746 0.382534491649371 3.1999999999999997
  endloop
endfacet
facet normal -1.0 -0.0 -0.0
  outer loop
    vertex -7.227890261067746 0.382534491649371 2.2
    vertex -7.227890261067746 2.3825344916493707 3.1999999999999997
    vertex -7.227890261067746 2.3825344916493707 2.2
  endloop
endfacet
facet normal 1.0 -0.0 0.0
  outer loop
    vertex -5.427890261067746 2.3825344916493707 2.2
    vertex -5.427890261067746 0.382534491649371 3.1999999999999997
    vertex -5.427890261067746 0.382534491649371 2.2
  endloop
endfacet
facet normal 1.0 -0.0 0.0
  outer loop
    vertex -5.427890261067746 0.382534491649371 3.1999999999999997
    vertex -5.427890261067746 2.3825344916493707 2.2
    vertex -5.427890261067746 2.3825344916493707 3.1999999999999997
  endloop
endfacet
facet normal -8.616364253748221e-17 1.0 -1.246995708633699e-17
  outer loop
    vertex -7.227890261067746 2.3825344916493707 3.1999999999999997
    vertex -6.9033650548990515 2.3825344916493707 2.2
    vertex -7.227890261067746 2.3825344916493707 2.2
  endloop
endfacet
facet normal -8.616364253748221e-17 1.0 -1.246995708633699e-17
  outer loop
    vertex -6.9033650548990515 2.3825344916493707 2.2
    vertex -7.227890261067746 2.3825344916493707 3.1999999999999997
    vertex -5.700000000000001 2.382534491649371 2.2
  endloop
endfacet
facet normal -8.616364253748221e-17 1.0 -1.246995708633699e-17
  outer loop
    vertex -5.700000000000001 2.382534491649371 2.2
    vertex -7.227890261067746 2.3825344916493707 3.1999999999999997
    vertex -5.427890261067746 2.3825344916493707 2.2
  endloop
endfacet
facet normal -8.616364253748221e-17 1.0 -1.246995708633699e-17
  outer loop
    vertex -5.427890261067746 2.3825344916493707 2.2
    vertex -7.227890261067746 2.3825344916493707 3.1999999999999997
    vertex -5.427890261067746 2.3825344916493707 3.1999999999999997
  endloop
endfacet
facet normal 0.0 0.0 1.0
  outer loop
    vertex 3.582078630427538 7.882078630427539 4.200000000000001
    vertex 3.499999999999999 9.519766026813286 4.200000000000001
    vertex 3.499999999999999 8.080233973186711 4.200000000000001
  endloop
endfacet
facet normal 0.0 0.0 1.0
  outer loop
    vertex 3.499999999999999 9.519766026813286 4.200000000000001
    vertex 3.582078630427538 7.882078630427539 4.200000000000001
    vertex 3.5023974404883793 9.556343900264045 4.200000000000001
  endloop
endfacet
facet normal 0.0 0.0 1.0
  outer loop
    vertex 3.5023974404883793 9.556343900264045 4.200000000000001
    vertex 3.582078630427538 7.882078630427539 4.200000000000001
    vertex 3.582078630427538 9.71792136957246 4.200000000000001
  endloop
endfacet
facet normal 0.0 0.0 1.0
  outer loop
    vertex 3.582078630427538 9.71792136957246 4.200000000000001
    vertex 3.582078630427538 7.882078630427539 4.200000000000001
    vertex 3.7436560997359543 7.80239744048838 4.200000000000001
  endloop
endfacet
facet normal 0.0 0.0 1.0
  outer loop
    vertex 3.582078630427538 9.71792136957246 4.200000000000001
    vertex 3.7436560997359543 7.80239744048838 4.200000000000001
    vertex 3.7802339731867116 9.799999999999999 4.200000000000001
  endloop
endfacet
facet normal 0.0 0.0 1.0
  outer loop
    vertex 3.7802339731867116 9.799999999999999 4.200000000000001
    vertex 3.7436560997359543 7.80239744048838 4.200000000000001
    vertex 3.7802339731867116 7.8 4.200000000000001
  endloop
endfacet
facet normal 0.0 0.0 1.0
  outer loop
    vertex 3.7802339731867116 9.799999999999999 4.200000000000001
    vertex 3.7802339731867116 7.8 4.200000000000001
    vertex 5.119766026813287 7.8 4.200000000000001
  endloop
endfacet
facet normal 0.0 0.0 1.0
  outer loop
    vertex 3.7802339731867116 9.799999999999999 4.200000000000001
    vertex 5.119766026813287 7.8 4.200000000000001
    vertex 5.119766026813286 9.799999999999999 4.200000000000001
  endloop
endfacet
facet normal 0.0 0.0 1.0
  outer loop
    vertex 5.119766026813286 9.799999999999999 4.200000000000001
    vertex 5.119766026813287 7.8 4.200000000000001
    vertex 5.156343900264043 9.797602559511619 4.200000000000001
  endloop
endfacet
facet normal 0.0 0.0 1.0
  outer loop
    vertex 5.156343900264043 9.797602559511619 4.200000000000001
    vertex 5.119766026813287 7.8 4.200000000000001
    vertex 5.317921369572461 7.882078630427539 4.200000000000001
  endloop
endfacet
facet normal 0.0 0.0 1.0
  outer loop
    vertex 5.156343900264043 9.797602559511619 4.200000000000001
    vertex 5.317921369572461 7.882078630427539 4.200000000000001
    vertex 5.31792136957246 9.71792136957246 4.200000000000001
  endloop
endfacet
facet normal 0.0 0.0 1.0
  outer loop
    vertex 5.31792136957246 9.71792136957246 4.200000000000001
    vertex 5.317921369572461 7.882078630427539 4.200000000000001
    vertex 5.399999999999999 9.519766026813286 4.200000000000001
  endloop
endfacet
facet normal 0.0 0.0 1.0
  outer loop
    vertex 5.399999999999999 9.519766026813286 4.200000000000001
    vertex 5.317921369572461 7.882078630427539 4.200000000000001
    vertex 5.397602559511619 8.043656099735955 4.200000000000001
  endloop
endfacet
facet normal 0.0 0.0 1.0
  outer loop
    vertex 5.399999999999999 9.519766026813286 4.200000000000001
    vertex 5.397602559511619 8.043656099735955 4.200000000000001
    vertex 5.3999999999999995 8.080233973186711 4.200000000000001
  endloop
endfacet
facet normal 0.0 -1.0 0.0
  outer loop
    vertex 5.119766026813287 7.8 4.200000000000001
    vertex 3.7802339731867116 7.8 0.9999999999999999
    vertex 5.119766026813287 7.8 0.9999999999999999
  endloop
endfacet
facet normal 0.0 -1.0 0.0
  outer loop
    vertex 3.7802339731867116 7.8 0.9999999999999999
    vertex 5.119766026813287 7.8 4.200000000000001
    vertex 3.7802339731867116 7.8 4.200000000000001
  endloop
endfacet
facet normal 0.3826834323650911 -0.9238795325112864 0.0
  outer loop
    vertex 5.317921369572461 7.882078630427539 4.200000000000001
    vertex 5.119766026813287 7.8 0.9999999999999999
    vertex 5.317921369572461 7.882078630427539 0.9999999999999999
  endloop
endfacet
facet normal 0.3826834323650911 -0.9238795325112864 0.0
  outer loop
    vertex 5.119766026813287 7.8 0.9999999999999999
    vertex 5.317921369572461 7.882078630427539 4.200000000000001
    vertex 5.119766026813287 7.8 4.200000000000001
  endloop
endfacet
facet normal 0.8968727415326885 -0.4422886902190012 0.0
  outer loop
    vertex 5.397602559511619 8.043656099735955 0.9999999999999999
    vertex 5.317921369572461 7.882078630427539 4.200000000000001
    vertex 5.317921369572461 7.882078630427539 0.9999999999999999
  endloop
endfacet
facet normal 0.8968727415326885 -0.4422886902190012 0.0
  outer loop
    vertex 5.317921369572461 7.882078630427539 4.200000000000001
    vertex 5.397602559511619 8.043656099735955 0.9999999999999999
    vertex 5.397602559511619 8.043656099735955 4.200000000000001
  endloop
endfacet
facet normal 0.9978589232386038 -0.06540312923014031 0.0
  outer loop
    vertex 5.3999999999999995 8.080233973186711 0.9999999999999999
    vertex 5.397602559511619 8.043656099735955 4.200000000000001
    vertex 5.397602559511619 8.043656099735955 0.9999999999999999
  endloop
endfacet
facet normal 0.9978589232386038 -0.06540312923014031 0.0
  outer loop
    vertex 5.397602559511619 8.043656099735955 4.200000000000001
    vertex 5.3999999999999995 8.080233973186711 0.9999999999999999
    vertex 5.3999999999999995 8.080233973186711 4.200000000000001
  endloop
endfacet
facet normal 1.0 4.897366605077726e-16 0.0
  outer loop
    vertex 5.399999999999999 9.519766026813286 0.9999999999999999
    vertex 5.3999999999999995 8.080233973186711 4.200000000000001
    vertex 5.3999999999999995 8.080233973186711 0.9999999999999999
  endloop
endfacet
facet normal 1.0 4.897366605077726e-16 0.0
  outer loop
    vertex 5.3999999999999995 8.080233973186711 4.200000000000001
    vertex 5.399999999999999 9.519766026813286 0.9999999999999999
    vertex 5.399999999999999 9.519766026813286 4.200000000000001
  endloop
endfacet
facet normal 0.923879532511287 0.38268343236508934 0.0
  outer loop
    vertex 5.31792136957246 9.71792136957246 0.9999999999999999
    vertex 5.399999999999999 9.519766026813286 4.200000000000001
    vertex 5.399999999999999 9.519766026813286 0.9999999999999999
  endloop
endfacet
facet normal 0.923879532511287 0.38268343236508934 0.0
  outer loop
    vertex 5.399999999999999 9.519766026813286 4.200000000000001
    vertex 5.31792136957246 9.71792136957246 0.9999999999999999
    vertex 5.31792136957246 9.71792136957246 4.200000000000001
  endloop
endfacet
facet normal 0.4422886902190028 0.8968727415326877 0.0
  outer loop
    vertex 5.156343900264043 9.797602559511619 4.200000000000001
    vertex 5.31792136957246 9.71792136957246 0.9999999999999999
    vertex 5.156343900264043 9.797602559511619 0.9999999999999999
  endloop
endfacet
facet normal 0.4422886902190028 0.8968727415326877 0.0
  outer loop
    vertex 5.31792136957246 9.71792136957246 0.9999999999999999
    vertex 5.156343900264043 9.797602559511619 4.200000000000001
    vertex 5.31792136957246 9.71792136957246 4.200000000000001
  endloop
endfacet
facet normal 0.06540312923014031 0.9978589232386038 0.0
  outer loop
    vertex 5.119766026813286 9.799999999999999 4.200000000000001
    vertex 5.156343900264043 9.797602559511619 0.9999999999999999
    vertex 5.119766026813286 9.799999999999999 0.9999999999999999
  endloop
endfacet
facet normal 0.06540312923014031 0.9978589232386038 0.0
  outer loop
    vertex 5.156343900264043 9.797602559511619 0.9999999999999999
    vertex 5.119766026813286 9.799999999999999 4.200000000000001
    vertex 5.156343900264043 9.797602559511619 4.200000000000001
  endloop
endfacet
facet normal 0.0 1.0 0.0
  outer loop
    vertex 3.7802339731867116 9.799999999999999 4.200000000000001
    vertex 5.119766026813286 9.799999999999999 0.9999999999999999
    vertex 3.7802339731867116 9.799999999999999 0.9999999999999999
  endloop
endfacet
facet normal 0.0 1.0 0.0
  outer loop
    vertex 5.119766026813286 9.799999999999999 0.9999999999999999
    vertex 3.7802339731867116 9.799999999999999 4.200000000000001
    vertex 5.119766026813286 9.799999999999999 4.200000000000001
  endloop
endfacet
facet normal -0.3826834323650911 0.9238795325112864 0.0
  outer loop
    vertex 3.582078630427538 9.71792136957246 4.200000000000001
    vertex 3.7802339731867116 9.799999999999999 0.9999999999999999
    vertex 3.582078630427538 9.71792136957246 0.9999999999999999
  endloop
endfacet
facet normal -0.3826834323650911 0.9238795325112864 0.0
  outer loop
    vertex 3.7802339731867116 9.799999999999999 0.9999999999999999
    vertex 3.582078630427538 9.71792136957246 4.200000000000001
    vertex 3.7802339731867116 9.799999999999999 4.200000000000001
  endloop
endfacet
facet normal -0.8968727415326885 0.4422886902190012 0.0
  outer loop
    vertex 3.582078630427538 9.71792136957246 4.200000000000001
    vertex 3.5023974404883793 9.556343900264045 0.9999999999999999
    vertex 3.5023974404883793 9.556343900264045 4.200000000000001
  endloop
endfacet
facet normal -0.8968727415326885 0.4422886902190012 0.0
  outer loop
    vertex 3.5023974404883793 9.556343900264045 0.9999999999999999
    vertex 3.582078630427538 9.71792136957246 4.200000000000001
    vertex 3.582078630427538 9.71792136957246 0.9999999999999999
  endloop
endfacet
facet normal -0.9978589232386038 0.06540312923014031 0.0
  outer loop
    vertex 3.5023974404883793 9.556343900264045 4.200000000000001
    vertex 3.499999999999999 9.519766026813286 0.9999999999999999
    vertex 3.499999999999999 9.519766026813286 4.200000000000001
  endloop
endfacet
facet normal -0.9978589232386038 0.06540312923014031 0.0
  outer loop
    vertex 3.499999999999999 9.519766026813286 0.9999999999999999
    vertex 3.5023974404883793 9.556343900264045 4.200000000000001
    vertex 3.5023974404883793 9.556343900264045 0.9999999999999999
  endloop
endfacet
facet normal -1.0 -0.0 -0.0
  outer loop
    vertex 3.499999999999999 9.519766026813286 4.200000000000001
    vertex 3.499999999999999 8.080233973186711 0.9999999999999999
    vertex 3.499999999999999 8.080233973186711 4.200000000000001
  endloop
endfacet
facet normal -1.0 -0.0 -0.0
  outer loop
    vertex 3.499999999999999 8.080233973186711 0.9999999999999999
    vertex 3.499999999999999 9.519766026813286 4.200000000000001
    vertex 3.499999999999999 9.519766026813286 0.9999999999999999
  endloop
endfacet
facet normal -0.923879532511287 -0.38268343236508934 -0.0
  outer loop
    vertex 3.499999999999999 8.080233973186711 4.200000000000001
    vertex 3.582078630427538 7.882078630427539 0.9999999999999999
    vertex 3.582078630427538 7.882078630427539 4.200000000000001
  endloop
endfacet
facet normal -0.923879532511287 -0.38268343236508934 -0.0
  outer loop
    vertex 3.582078630427538 7.882078630427539 0.9999999999999999
    vertex 3.499999999999999 8.080233973186711 4.200000000000001
    vertex 3.499999999999999 8.080233973186711 0.9999999999999999
  endloop
endfacet
facet normal -0.4422886902190028 -0.8968727415326877 -0.0
  outer loop
    vertex 3.7436560997359543 7.80239744048838 4.200000000000001
    vertex 3.582078630427538 7.882078630427539 0.9999999999999999
    vertex 3.7436560997359543 7.80239744048838 0.9999999999999999
  endloop
endfacet
facet normal -0.4422886902190028 -0.8968727415326877 -0.0
  outer loop
    vertex 3.582078630427538 7.882078630427539 0.9999999999999999
    vertex 3.7436560997359543 7.80239744048838 4.200000000000001
    vertex 3.582078630427538 7.882078630427539 4.200000000000001
  endloop
endfacet
facet normal -0.06540312923014031 -0.9978589232386038 -0.0
  outer loop
    vertex 3.7802339731867116 7.8 4.200000000000001
    vertex 3.7436560997359543 7.80239744048838 0.9999999999999999
    vertex 3.7802339731867116 7.8 0.9999999999999999
  endloop
endfacet
facet normal -0.06540312923014031 -0.9978589232386038 -0.0
  outer loop
    vertex 3.7436560997359543 7.80239744048838 0.9999999999999999
    vertex 3.7802339731867116 7.8 4.200000000000001
    vertex 3.7436560997359543 7.80239744048838 4.200000000000001
  endloop
endfacet
facet normal 5.925582546417333e-33 -4.7358623858063336e-32 1.0
  outer loop
    vertex 3.5820786304275387 0.9820786304275391 4.200000000000001
    vertex 3.5 2.6612237571239215 4.200000000000001
    vertex 3.499999999999999 1.180233973186712 4.200000000000001
  endloop
endfacet
facet normal 5.925582546417333e-33 -4.7358623858063336e-32 1.0
  outer loop
    vertex 3.5 2.6612237571239215 4.200000000000001
    vertex 3.5820786304275387 0.9820786304275391 4.200000000000001
    vertex 3.5020427638584453 2.6923903108991465 4.200000000000001
  endloop
endfacet
facet normal 5.925582546417333e-33 -4.7358623858063336e-32 1.0
  outer loop
    vertex 3.5020427638584453 2.6923903108991465 4.200000000000001
    vertex 3.5820786304275387 0.9820786304275391 4.200000000000001
    vertex 3.5699359423521573 2.830064057647843 4.200000000000001
  endloop
endfacet
facet normal 5.925582546417333e-33 -4.7358623858063336e-32 1.0
  outer loop
    vertex 3.5699359423521573 2.830064057647843 4.200000000000001
    vertex 3.5820786304275387 0.9820786304275391 4.200000000000001
    vertex 3.7387762428760785 2.9000000000000012 4.200000000000001
  endloop
endfacet
facet normal 5.925582546417333e-33 -4.7358623858063336e-32 1.0
  outer loop
    vertex 3.7387762428760785 2.9000000000000012 4.200000000000001
    vertex 3.5820786304275387 0.9820786304275391 4.200000000000001
    vertex 3.7436560997359543 0.9023974404883808 4.200000000000001
  endloop
endfacet
facet normal 5.925582546417333e-33 -4.7358623858063336e-32 1.0
  outer loop
    vertex 3.7387762428760785 2.9000000000000012 4.200000000000001
    vertex 3.7436560997359543 0.9023974404883808 4.200000000000001
    vertex 5.1612237571239215 2.9000000000000004 4.200000000000001
  endloop
endfacet
facet normal 5.925582546417333e-33 -4.7358623858063336e-32 1.0
  outer loop
    vertex 5.1612237571239215 2.9000000000000004 4.200000000000001
    vertex 3.7436560997359543 0.9023974404883808 4.200000000000001
    vertex 3.7802339731867116 0.9000000000000005 4.200000000000001
  endloop
endfacet
facet normal 5.925582546417333e-33 -4.7358623858063336e-32 1.0
  outer loop
    vertex 5.1612237571239215 2.9000000000000004 4.200000000000001
    vertex 3.7802339731867116 0.9000000000000005 4.200000000000001
    vertex 5.119766026813289 0.9000000000000002 4.200000000000001
  endloop
endfacet
facet normal 5.925582546417333e-33 -4.7358623858063336e-32 1.0
  outer loop
    vertex 5.1612237571239215 2.9000000000000004 4.200000000000001
    vertex 5.119766026813289 0.9000000000000002 4.200000000000001
    vertex 5.317921369572462 0.9820786304275391 4.200000000000001
  endloop
endfacet
facet normal 5.925582546417333e-33 -4.7358623858063336e-32 1.0
  outer loop
    vertex 5.1612237571239215 2.9000000000000004 4.200000000000001
    vertex 5.317921369572462 0.9820786304275391 4.200000000000001
    vertex 5.192390310899146 2.8979572361415546 4.200000000000001
  endloop
endfacet
facet normal 5.925582546417333e-33 -4.7358623858063336e-32 1.0
  outer loop
    vertex 5.192390310899146 2.8979572361415546 4.200000000000001
    vertex 5.317921369572462 0.9820786304275391 4.200000000000001
    vertex 5.330064057647842 2.8300640576478426 4.200000000000001
  endloop
endfacet
facet normal 5.925582546417333e-33 -4.7358623858063336e-32 1.0
  outer loop
    vertex 5.330064057647842 2.8300640576478426 4.200000000000001
    vertex 5.317921369572462 0.9820786304275391 4.200000000000001
    vertex 5.39760255951162 1.1436560997359544 4.200000000000001
  endloop
endfacet
facet normal 5.925582546417333e-33 -4.7358623858063336e-32 1.0
  outer loop
    vertex 5.330064057647842 2.8300640576478426 4.200000000000001
    vertex 5.39760255951162 1.1436560997359544 4.200000000000001
    vertex 5.4 2.6612237571239215 4.200000000000001
  endloop
endfacet
facet normal 5.925582546417333e-33 -4.7358623858063336e-32 1.0
  outer loop
    vertex 5.4 2.6612237571239215 4.200000000000001
    vertex 5.39760255951162 1.1436560997359544 4.200000000000001
    vertex 5.4 1.180233973186712 4.200000000000001
  endloop
endfacet
facet normal -1.3157423495920052e-16 -1.0 -4.7358623858063336e-32
  outer loop
    vertex 5.119766026813289 0.9000000000000002 4.200000000000001
    vertex 3.7802339731867116 0.9000000000000005 1.0000000000000002
    vertex 5.119766026813289 0.9000000000000002 1.0000000000000002
  endloop
endfacet
facet normal -1.3157423495920052e-16 -1.0 -4.7358623858063336e-32
  outer loop
    vertex 3.7802339731867116 0.9000000000000005 1.0000000000000002
    vertex 5.119766026813289 0.9000000000000002 4.200000000000001
    vertex 3.7802339731867116 0.9000000000000005 4.200000000000001
  endloop
endfacet
facet normal 0.38268343236509006 -0.9238795325112866 -4.602128553799107e-32
  outer loop
    vertex 5.317921369572462 0.9820786304275391 4.200000000000001
    vertex 5.119766026813289 0.9000000000000002 1.0000000000000002
    vertex 5.317921369572462 0.9820786304275391 1.0000000000000002
  endloop
endfacet
facet normal 0.38268343236509006 -0.9238795325112866 -4.602128553799107e-32
  outer loop
    vertex 5.119766026813289 0.9000000000000002 1.0000000000000002
    vertex 5.317921369572462 0.9820786304275391 4.200000000000001
    vertex 5.119766026813289 0.9000000000000002 4.200000000000001
  endloop
endfacet
facet normal 0.8968727415326884 -0.44228869021900163 -2.626067718034076e-32
  outer loop
    vertex 5.39760255951162 1.1436560997359544 1.0000000000000002
    vertex 5.317921369572462 0.9820786304275391 4.200000000000001
    vertex 5.317921369572462 0.9820786304275391 1.0000000000000002
  endloop
endfacet
facet normal 0.8968727415326884 -0.44228869021900163 -2.626067718034076e-32
  outer loop
    vertex 5.317921369572462 0.9820786304275391 4.200000000000001
    vertex 5.39760255951162 1.1436560997359544 1.0000000000000002
    vertex 5.39760255951162 1.1436560997359544 4.200000000000001
  endloop
endfacet
facet normal 0.9978589232386038 -0.06540312923014031 -9.010297615679985e-33
  outer loop
    vertex 5.4 1.180233973186712 1.0000000000000002
    vertex 5.39760255951162 1.1436560997359544 4.200000000000001
    vertex 5.39760255951162 1.1436560997359544 1.0000000000000002
  endloop
endfacet
facet normal 0.9978589232386038 -0.06540312923014031 -9.010297615679985e-33
  outer loop
    vertex 5.39760255951162 1.1436560997359544 4.200000000000001
    vertex 5.4 1.180233973186712 1.0000000000000002
    vertex 5.4 1.180233973186712 4.200000000000001
  endloop
endfacet
facet normal 1.0 0.0 -5.925582546417332e-33
  outer loop
    vertex 5.4 2.6612237571239215 1.0000000000000002
    vertex 5.4 1.180233973186712 4.200000000000001
    vertex 5.4 1.180233973186712 1.0000000000000002
  endloop
endfacet
facet normal 1.0 0.0 -5.925582546417332e-33
  outer loop
    vertex 5.4 1.180233973186712 4.200000000000001
    vertex 5.4 2.6612237571239215 1.0000000000000002
    vertex 5.4 2.6612237571239215 4.200000000000001
  endloop
endfacet
facet normal 0.9238795325112864 0.3826834323650908 1.264883629724987e-32
  outer loop
    vertex 5.330064057647842 2.8300640576478426 1.0000000000000002
    vertex 5.4 2.6612237571239215 4.200000000000001
    vertex 5.4 2.6612237571239215 1.0000000000000002
  endloop
endfacet
facet normal 0.9238795325112864 0.3826834323650908 1.264883629724987e-32
  outer loop
    vertex 5.4 2.6612237571239215 4.200000000000001
    vertex 5.330064057647842 2.8300640576478426 1.0000000000000002
    vertex 5.330064057647842 2.8300640576478426 4.200000000000001
  endloop
endfacet
facet normal 0.4422886902190028 0.8968727415326876 3.98538406715571e-32
  outer loop
    vertex 5.192390310899146 2.8979572361415546 4.200000000000001
    vertex 5.330064057647842 2.8300640576478426 1.0000000000000002
    vertex 5.192390310899146 2.8979572361415546 1.0000000000000002
  endloop
endfacet
facet normal 0.4422886902190028 0.8968727415326876 3.98538406715571e-32
  outer loop
    vertex 5.330064057647842 2.8300640576478426 1.0000000000000002
    vertex 5.192390310899146 2.8979572361415546 4.200000000000001
    vertex 5.330064057647842 2.8300640576478426 4.200000000000001
  endloop
endfacet
facet normal 0.06540312923014241 0.9978589232386036 4.686967376802191e-32
  outer loop
    vertex 5.1612237571239215 2.9000000000000004 4.200000000000001
    vertex 5.192390310899146 2.8979572361415546 1.0000000000000002
    vertex 5.1612237571239215 2.9000000000000004 1.0000000000000002
  endloop
endfacet
facet normal 0.06540312923014241 0.9978589232386036 4.686967376802191e-32
  outer loop
    vertex 5.192390310899146 2.8979572361415546 1.0000000000000002
    vertex 5.1612237571239215 2.9000000000000004 4.200000000000001
    vertex 5.192390310899146 2.8979572361415546 4.200000000000001
  endloop
endfacet
facet normal 4.956187230639281e-16 1.0 4.7358623858063336e-32
  outer loop
    vertex 3.7387762428760785 2.9000000000000012 4.200000000000001
    vertex 5.1612237571239215 2.9000000000000004 1.0000000000000002
    vertex 3.7387762428760785 2.9000000000000012 1.0000000000000002
  endloop
endfacet
facet normal 4.956187230639281e-16 1.0 4.7358623858063336e-32
  outer loop
    vertex 5.1612237571239215 2.9000000000000004 1.0000000000000002
    vertex 3.7387762428760785 2.9000000000000012 4.200000000000001
    vertex 5.1612237571239215 2.9000000000000004 4.200000000000001
  endloop
endfacet
facet normal -0.3826834323650924 0.9238795325112856 4.602128553799104e-32
  outer loop
    vertex 3.5699359423521573 2.830064057647843 4.200000000000001
    vertex 3.7387762428760785 2.9000000000000012 1.0000000000000002
    vertex 3.5699359423521573 2.830064057647843 1.0000000000000002
  endloop
endfacet
facet normal -0.3826834323650924 0.9238795325112856 4.602128553799104e-32
  outer loop
    vertex 3.7387762428760785 2.9000000000000012 1.0000000000000002
    vertex 3.5699359423521573 2.830064057647843 4.200000000000001
    vertex 3.7387762428760785 2.9000000000000012 4.200000000000001
  endloop
endfacet
facet normal -0.8968727415326871 0.44228869021900374 2.626067718034085e-32
  outer loop
    vertex 3.5699359423521573 2.830064057647843 4.200000000000001
    vertex 3.5020427638584453 2.6923903108991465 1.0000000000000002
    vertex 3.5020427638584453 2.6923903108991465 4.200000000000001
  endloop
endfacet
facet normal -0.8968727415326871 0.44228869021900374 2.626067718034085e-32
  outer loop
    vertex 3.5020427638584453 2.6923903108991465 1.0000000000000002
    vertex 3.5699359423521573 2.830064057647843 4.200000000000001
    vertex 3.5699359423521573 2.830064057647843 1.0000000000000002
  endloop
endfacet
facet normal -0.9978589232386045 0.06540312923013118 9.010297615679558e-33
  outer loop
    vertex 3.5020427638584453 2.6923903108991465 4.200000000000001
    vertex 3.5 2.6612237571239215 1.0000000000000002
    vertex 3.5 2.6612237571239215 4.200000000000001
  endloop
endfacet
facet normal -0.9978589232386045 0.06540312923013118 9.010297615679558e-33
  outer loop
    vertex 3.5 2.6612237571239215 1.0000000000000002
    vertex 3.5020427638584453 2.6923903108991465 4.200000000000001
    vertex 3.5020427638584453 2.6923903108991465 1.0000000000000002
  endloop
endfacet
facet normal -1.0 4.760273354234456e-16 5.9255825464173554e-33
  outer loop
    vertex 3.5 2.6612237571239215 4.200000000000001
    vertex 3.499999999999999 1.180233973186712 1.0000000000000002
    vertex 3.499999999999999 1.180233973186712 4.200000000000001
  endloop
endfacet
facet normal -1.0 4.760273354234456e-16 5.9255825464173554e-33
  outer loop
    vertex 3.499999999999999 1.180233973186712 1.0000000000000002
    vertex 3.5 2.6612237571239215 4.200000000000001
    vertex 3.5 2.6612237571239215 1.0000000000000002
  endloop
endfacet
facet normal -0.9238795325112857 -0.3826834323650925 -1.2648836297249957e-32
  outer loop
    vertex 3.499999999999999 1.180233973186712 4.200000000000001
    vertex 3.5820786304275387 0.9820786304275391 1.0000000000000002
    vertex 3.5820786304275387 0.9820786304275391 4.200000000000001
  endloop
endfacet
facet normal -0.9238795325112857 -0.3826834323650925 -1.2648836297249957e-32
  outer loop
    vertex 3.5820786304275387 0.9820786304275391 1.0000000000000002
    vertex 3.499999999999999 1.180233973186712 4.200000000000001
    vertex 3.499999999999999 1.180233973186712 1.0000000000000002
  endloop
endfacet
facet normal -0.4422886902190004 -0.8968727415326888 -3.985384067155718e-32
  outer loop
    vertex 3.7436560997359543 0.9023974404883808 4.200000000000001
    vertex 3.5820786304275387 0.9820786304275391 1.0000000000000002
    vertex 3.7436560997359543 0.9023974404883808 1.0000000000000002
  endloop
endfacet
facet normal -0.4422886902190004 -0.8968727415326888 -3.985384067155718e-32
  outer loop
    vertex 3.5820786304275387 0.9820786304275391 1.0000000000000002
    vertex 3.7436560997359543 0.9023974404883808 4.200000000000001
    vertex 3.5820786304275387 0.9820786304275391 4.200000000000001
  endloop
endfacet
facet normal -0.06540312923014509 -0.9978589232386035 -4.686967376802189e-32
  outer loop
    vertex 3.7802339731867116 0.9000000000000005 4.200000000000001
    vertex 3.7436560997359543 0.9023974404883808 1.0000000000000002
    vertex 3.7802339731867116 0.9000000000000005 1.0000000000000002
  endloop
endfacet
facet normal -0.06540312923014509 -0.9978589232386035 -4.686967376802189e-32
  outer loop
    vertex 3.7436560997359543 0.9023974404883808 1.0000000000000002
    vertex 3.7802339731867116 0.9000000000000005 4.200000000000001
    vertex 3.7436560997359543 0.9023974404883808 4.200000000000001
  endloop
endfacet
facet normal 0.0 0.0 1.0
  outer loop
    vertex -17.942020012873183 0.9613450420258475 4.2
    vertex -18.00336505489903 2.690554925530995 4.2
    vertex -18.00336505489903 1.1094450744690023 4.2
  endloop
endfacet
facet normal 0.0 0.0 1.0
  outer loop
    vertex -18.00336505489903 2.690554925530995 4.2
    vertex -17.942020012873183 0.9613450420258475 4.2
    vertex -17.942020012873183 2.838654957974149 4.2
  endloop
endfacet
facet normal 0.0 0.0 1.0
  outer loop
    vertex -17.942020012873183 2.838654957974149 4.2
    vertex -17.942020012873183 0.9613450420258475 4.2
    vertex -17.79391998043003 0.8999999999999959 4.2
  endloop
endfacet
facet normal 0.0 0.0 1.0
  outer loop
    vertex -17.942020012873183 2.838654957974149 4.2
    vertex -17.79391998043003 0.8999999999999959 4.2
    vertex -17.79391998043003 2.8999999999999986 4.2
  endloop
endfacet
facet normal 0.0 0.0 1.0
  outer loop
    vertex -17.79391998043003 2.8999999999999986 4.2
    vertex -17.79391998043003 0.8999999999999959 4.2
    vertex -16.312810129368035 0.8999999999999987 4.2
  endloop
endfacet
facet normal 0.0 0.0 1.0
  outer loop
    vertex -17.79391998043003 2.8999999999999986 4.2
    vertex -16.312810129368035 0.8999999999999987 4.2
    vertex -16.312810129368035 2.8999999999999986 4.2
  endloop
endfacet
facet normal 0.0 0.0 1.0
  outer loop
    vertex -16.312810129368035 2.8999999999999986 4.2
    vertex -16.312810129368035 0.8999999999999987 4.2
    vertex -16.164710096924882 0.9613450420258484 4.2
  endloop
endfacet
facet normal 0.0 0.0 1.0
  outer loop
    vertex -16.312810129368035 2.8999999999999986 4.2
    vertex -16.164710096924882 0.9613450420258484 4.2
    vertex -16.164710096924882 2.838654957974149 4.2
  endloop
endfacet
facet normal 0.0 0.0 1.0
  outer loop
    vertex -16.164710096924882 2.838654957974149 4.2
    vertex -16.164710096924882 0.9613450420258484 4.2
    vertex -16.10336505489903 1.1094450744690023 4.2
  endloop
endfacet
facet normal 0.0 0.0 1.0
  outer loop
    vertex -16.164710096924882 2.838654957974149 4.2
    vertex -16.10336505489903 1.1094450744690023 4.2
    vertex -16.103365054899033 2.690554925530995 4.2
  endloop
endfacet
facet normal -1.0 -0.0 -0.0
  outer loop
    vertex -18.00336505489903 2.690554925530995 4.2
    vertex -18.00336505489903 1.1094450744690023 0.9999999999999998
    vertex -18.00336505489903 1.1094450744690023 4.2
  endloop
endfacet
facet normal -1.0 -0.0 -0.0
  outer loop
    vertex -18.00336505489903 1.1094450744690023 0.9999999999999998
    vertex -18.00336505489903 2.690554925530995 4.2
    vertex -18.00336505489903 2.690554925530995 0.9999999999999998
  endloop
endfacet
facet normal -0.9238795325112864 -0.3826834323650911 -0.0
  outer loop
    vertex -18.00336505489903 1.1094450744690023 4.2
    vertex -17.942020012873183 0.9613450420258475 0.9999999999999998
    vertex -17.942020012873183 0.9613450420258475 4.2
  endloop
endfacet
facet normal -0.9238795325112864 -0.3826834323650911 -0.0
  outer loop
    vertex -17.942020012873183 0.9613450420258475 0.9999999999999998
    vertex -18.00336505489903 1.1094450744690023 4.2
    vertex -18.00336505489903 1.1094450744690023 0.9999999999999998
  endloop
endfacet
facet normal -0.3826834323651011 -0.9238795325112821 -0.0
  outer loop
    vertex -17.79391998043003 0.8999999999999959 4.2
    vertex -17.942020012873183 0.9613450420258475 0.9999999999999998
    vertex -17.79391998043003 0.8999999999999959 0.9999999999999998
  endloop
endfacet
facet normal -0.3826834323651011 -0.9238795325112821 -0.0
  outer loop
    vertex -17.942020012873183 0.9613450420258475 0.9999999999999998
    vertex -17.79391998043003 0.8999999999999959 4.2
    vertex -17.942020012873183 0.9613450420258475 4.2
  endloop
endfacet
facet normal 1.9039549838426318e-15 -1.0 0.0
  outer loop
    vertex -16.312810129368035 0.8999999999999987 4.2
    vertex -17.79391998043003 0.8999999999999959 0.9999999999999998
    vertex -16.312810129368035 0.8999999999999987 0.9999999999999998
  endloop
endfacet
facet normal 1.9039549838426318e-15 -1.0 0.0
  outer loop
    vertex -17.79391998043003 0.8999999999999959 0.9999999999999998
    vertex -16.312810129368035 0.8999999999999987 4.2
    vertex -17.79391998043003 0.8999999999999959 4.2
  endloop
endfacet
facet normal 0.3826834323650908 -0.9238795325112864 0.0
  outer loop
    vertex -16.164710096924882 0.9613450420258484 4.2
    vertex -16.312810129368035 0.8999999999999987 0.9999999999999998
    vertex -16.164710096924882 0.9613450420258484 0.9999999999999998
  endloop
endfacet
facet normal 0.3826834323650908 -0.9238795325112864 0.0
  outer loop
    vertex -16.312810129368035 0.8999999999999987 0.9999999999999998
    vertex -16.164710096924882 0.9613450420258484 4.2
    vertex -16.312810129368035 0.8999999999999987 4.2
  endloop
endfacet
facet normal 0.9238795325112794 -0.3826834323651081 0.0
  outer loop
    vertex -16.10336505489903 1.1094450744690023 0.9999999999999998
    vertex -16.164710096924882 0.9613450420258484 4.2
    vertex -16.164710096924882 0.9613450420258484 0.9999999999999998
  endloop
endfacet
facet normal 0.9238795325112794 -0.3826834323651081 0.0
  outer loop
    vertex -16.164710096924882 0.9613450420258484 4.2
    vertex -16.10336505489903 1.1094450744690023 0.9999999999999998
    vertex -16.10336505489903 1.1094450744690023 4.2
  endloop
endfacet
facet normal 1.0 1.7835360905845953e-15 0.0
  outer loop
    vertex -16.103365054899033 2.690554925530995 0.9999999999999998
    vertex -16.10336505489903 1.1094450744690023 4.2
    vertex -16.10336505489903 1.1094450744690023 0.9999999999999998
  endloop
endfacet
facet normal 1.0 1.7835360905845953e-15 0.0
  outer loop
    vertex -16.10336505489903 1.1094450744690023 4.2
    vertex -16.103365054899033 2.690554925530995 0.9999999999999998
    vertex -16.103365054899033 2.690554925530995 4.2
  endloop
endfacet
facet normal 0.9238795325112855 0.382683432365093 0.0
  outer loop
    vertex -16.164710096924882 2.838654957974149 0.9999999999999998
    vertex -16.103365054899033 2.690554925530995 4.2
    vertex -16.103365054899033 2.690554925530995 0.9999999999999998
  endloop
endfacet
facet normal 0.9238795325112855 0.382683432365093 0.0
  outer loop
    vertex -16.103365054899033 2.690554925530995 4.2
    vertex -16.164710096924882 2.838654957974149 0.9999999999999998
    vertex -16.164710096924882 2.838654957974149 4.2
  endloop
endfacet
facet normal 0.3826834323650908 0.9238795325112864 0.0
  outer loop
    vertex -16.312810129368035 2.8999999999999986 4.2
    vertex -16.164710096924882 2.838654957974149 0.9999999999999998
    vertex -16.312810129368035 2.8999999999999986 0.9999999999999998
  endloop
endfacet
facet normal 0.3826834323650908 0.9238795325112864 0.0
  outer loop
    vertex -16.164710096924882 2.838654957974149 0.9999999999999998
    vertex -16.312810129368035 2.8999999999999986 4.2
    vertex -16.164710096924882 2.838654957974149 4.2
  endloop
endfacet
facet normal 0.0 1.0 0.0
  outer loop
    vertex -17.79391998043003 2.8999999999999986 4.2
    vertex -16.312810129368035 2.8999999999999986 0.9999999999999998
    vertex -17.79391998043003 2.8999999999999986 0.9999999999999998
  endloop
endfacet
facet normal 0.0 1.0 0.0
  outer loop
    vertex -16.312810129368035 2.8999999999999986 0.9999999999999998
    vertex -17.79391998043003 2.8999999999999986 4.2
    vertex -16.312810129368035 2.8999999999999986 4.2
  endloop
endfacet
facet normal -0.3826834323650908 0.9238795325112864 0.0
  outer loop
    vertex -17.942020012873183 2.838654957974149 4.2
    vertex -17.79391998043003 2.8999999999999986 0.9999999999999998
    vertex -17.942020012873183 2.838654957974149 0.9999999999999998
  endloop
endfacet
facet normal -0.3826834323650908 0.9238795325112864 0.0
  outer loop
    vertex -17.79391998043003 2.8999999999999986 0.9999999999999998
    vertex -17.942020012873183 2.838654957974149 4.2
    vertex -17.79391998043003 2.8999999999999986 4.2
  endloop
endfacet
facet normal -0.9238795325112855 0.382683432365093 0.0
  outer loop
    vertex -17.942020012873183 2.838654957974149 4.2
    vertex -18.00336505489903 2.690554925530995 0.9999999999999998
    vertex -18.00336505489903 2.690554925530995 4.2
  endloop
endfacet
facet normal -0.9238795325112855 0.382683432365093 0.0
  outer loop
    vertex -18.00336505489903 2.690554925530995 0.9999999999999998
    vertex -17.942020012873183 2.838654957974149 4.2
    vertex -17.942020012873183 2.838654957974149 0.9999999999999998
  endloop
endfacet
facet normal 0.0 0.0 1.0
  outer loop
    vertex -17.93665486188492 7.86671019301411 4.200000000000001
    vertex -18.00336505489903 9.572237154262696 4.200000000000001
    vertex -18.00336505489903 8.027762845737303 4.200000000000001
  endloop
endfacet
facet normal 0.0 0.0 1.0
  outer loop
    vertex -18.00336505489903 9.572237154262696 4.200000000000001
    vertex -17.93665486188492 7.86671019301411 4.200000000000001
    vertex -17.93665486188492 9.733289806985887 4.200000000000001
  endloop
endfacet
facet normal 0.0 0.0 1.0
  outer loop
    vertex -17.93665486188492 9.733289806985887 4.200000000000001
    vertex -17.93665486188492 7.86671019301411 4.200000000000001
    vertex -17.77560220916173 7.8 4.200000000000001
  endloop
endfacet
facet normal 0.0 0.0 1.0
  outer loop
    vertex -17.93665486188492 9.733289806985887 4.200000000000001
    vertex -17.77560220916173 7.8 4.200000000000001
    vertex -17.77560220916173 9.799999999999995 4.200000000000001
  endloop
endfacet
facet normal 0.0 0.0 1.0
  outer loop
    vertex -17.77560220916173 9.799999999999995 4.200000000000001
    vertex -17.77560220916173 7.8 4.200000000000001
    vertex -16.331127900636336 7.8 4.200000000000001
  endloop
endfacet
facet normal 0.0 0.0 1.0
  outer loop
    vertex -17.77560220916173 9.799999999999995 4.200000000000001
    vertex -16.331127900636336 7.8 4.200000000000001
    vertex -16.331127900636336 9.799999999999999 4.200000000000001
  endloop
endfacet
facet normal 0.0 0.0 1.0
  outer loop
    vertex -16.331127900636336 9.799999999999999 4.200000000000001
    vertex -16.331127900636336 7.8 4.200000000000001
    vertex -16.170075247913143 7.866710193014111 4.200000000000001
  endloop
endfacet
facet normal 0.0 0.0 1.0
  outer loop
    vertex -16.331127900636336 9.799999999999999 4.200000000000001
    vertex -16.170075247913143 7.866710193014111 4.200000000000001
    vertex -16.170075247913143 9.733289806985887 4.200000000000001
  endloop
endfacet
facet normal 0.0 0.0 1.0
  outer loop
    vertex -16.170075247913143 9.733289806985887 4.200000000000001
    vertex -16.170075247913143 7.866710193014111 4.200000000000001
    vertex -16.103365054899033 8.027762845737303 4.200000000000001
  endloop
endfacet
facet normal 0.0 0.0 1.0
  outer loop
    vertex -16.170075247913143 9.733289806985887 4.200000000000001
    vertex -16.103365054899033 8.027762845737303 4.200000000000001
    vertex -16.103365054899037 9.572237154262696 4.200000000000001
  endloop
endfacet
facet normal -1.952244125010912e-15 1.0 0.0
  outer loop
    vertex -17.77560220916173 9.799999999999995 4.200000000000001
    vertex -16.331127900636336 9.799999999999999 0.9999999999999999
    vertex -17.77560220916173 9.799999999999995 0.9999999999999999
  endloop
endfacet
facet normal -1.952244125010912e-15 1.0 0.0
  outer loop
    vertex -16.331127900636336 9.799999999999999 0.9999999999999999
    vertex -17.77560220916173 9.799999999999995 4.200000000000001
    vertex -16.331127900636336 9.799999999999999 4.200000000000001
  endloop
endfacet
facet normal -0.3826834323650809 0.9238795325112904 0.0
  outer loop
    vertex -17.93665486188492 9.733289806985887 4.200000000000001
    vertex -17.77560220916173 9.799999999999995 0.9999999999999999
    vertex -17.93665486188492 9.733289806985887 0.9999999999999999
  endloop
endfacet
facet normal -0.3826834323650809 0.9238795325112904 0.0
  outer loop
    vertex -17.77560220916173 9.799999999999995 0.9999999999999999
    vertex -17.93665486188492 9.733289806985887 4.200000000000001
    vertex -17.77560220916173 9.799999999999995 4.200000000000001
  endloop
endfacet
facet normal -0.9238795325112849 0.3826834323650948 0.0
  outer loop
    vertex -17.93665486188492 9.733289806985887 4.200000000000001
    vertex -18.00336505489903 9.572237154262696 0.9999999999999999
    vertex -18.00336505489903 9.572237154262696 4.200000000000001
  endloop
endfacet
facet normal -0.9238795325112849 0.3826834323650948 0.0
  outer loop
    vertex -18.00336505489903 9.572237154262696 0.9999999999999999
    vertex -17.93665486188492 9.733289806985887 4.200000000000001
    vertex -17.93665486188492 9.733289806985887 0.9999999999999999
  endloop
endfacet
facet normal -1.0 -0.0 -0.0
  outer loop
    vertex -18.00336505489903 9.572237154262696 4.200000000000001
    vertex -18.00336505489903 8.027762845737303 0.9999999999999999
    vertex -18.00336505489903 8.027762845737303 4.200000000000001
  endloop
endfacet
facet normal -1.0 -0.0 -0.0
  outer loop
    vertex -18.00336505489903 8.027762845737303 0.9999999999999999
    vertex -18.00336505489903 9.572237154262696 4.200000000000001
    vertex -18.00336505489903 9.572237154262696 0.9999999999999999
  endloop
endfacet
facet normal -0.9238795325112861 -0.38268343236509195 -0.0
  outer loop
    vertex -18.00336505489903 8.027762845737303 4.200000000000001
    vertex -17.93665486188492 7.86671019301411 0.9999999999999999
    vertex -17.93665486188492 7.86671019301411 4.200000000000001
  endloop
endfacet
facet normal -0.9238795325112861 -0.38268343236509195 -0.0
  outer loop
    vertex -17.93665486188492 7.86671019301411 0.9999999999999999
    vertex -18.00336505489903 8.027762845737303 4.200000000000001
    vertex -18.00336505489903 8.027762845737303 0.9999999999999999
  endloop
endfacet
facet normal -0.3826834323650879 -0.9238795325112877 -0.0
  outer loop
    vertex -17.77560220916173 7.8 4.200000000000001
    vertex -17.93665486188492 7.86671019301411 0.9999999999999999
    vertex -17.77560220916173 7.8 0.9999999999999999
  endloop
endfacet
facet normal -0.3826834323650879 -0.9238795325112877 -0.0
  outer loop
    vertex -17.93665486188492 7.86671019301411 0.9999999999999999
    vertex -17.77560220916173 7.8 4.200000000000001
    vertex -17.93665486188492 7.86671019301411 4.200000000000001
  endloop
endfacet
facet normal 0.0 -1.0 0.0
  outer loop
    vertex -16.331127900636336 7.8 4.200000000000001
    vertex -17.77560220916173 7.8 0.9999999999999999
    vertex -16.331127900636336 7.8 0.9999999999999999
  endloop
endfacet
facet normal 0.0 -1.0 0.0
  outer loop
    vertex -17.77560220916173 7.8 0.9999999999999999
    vertex -16.331127900636336 7.8 4.200000000000001
    vertex -17.77560220916173 7.8 4.200000000000001
  endloop
endfacet
facet normal 0.3826834323650948 -0.9238795325112849 0.0
  outer loop
    vertex -16.170075247913143 7.866710193014111 4.200000000000001
    vertex -16.331127900636336 7.8 0.9999999999999999
    vertex -16.170075247913143 7.866710193014111 0.9999999999999999
  endloop
endfacet
facet normal 0.3826834323650948 -0.9238795325112849 0.0
  outer loop
    vertex -16.331127900636336 7.8 0.9999999999999999
    vertex -16.170075247913143 7.866710193014111 4.200000000000001
    vertex -16.331127900636336 7.8 4.200000000000001
  endloop
endfacet
facet normal 0.9238795325112849 -0.3826834323650948 0.0
  outer loop
    vertex -16.103365054899033 8.027762845737303 0.9999999999999999
    vertex -16.170075247913143 7.866710193014111 4.200000000000001
    vertex -16.170075247913143 7.866710193014111 0.9999999999999999
  endloop
endfacet
facet normal 0.9238795325112849 -0.3826834323650948 0.0
  outer loop
    vertex -16.170075247913143 7.866710193014111 4.200000000000001
    vertex -16.103365054899033 8.027762845737303 0.9999999999999999
    vertex -16.103365054899033 8.027762845737303 4.200000000000001
  endloop
endfacet
facet normal 1.0 1.82584227331065e-15 0.0
  outer loop
    vertex -16.103365054899037 9.572237154262696 0.9999999999999999
    vertex -16.103365054899033 8.027762845737303 4.200000000000001
    vertex -16.103365054899033 8.027762845737303 0.9999999999999999
  endloop
endfacet
facet normal 1.0 1.82584227331065e-15 0.0
  outer loop
    vertex -16.103365054899033 8.027762845737303 4.200000000000001
    vertex -16.103365054899037 9.572237154262696 0.9999999999999999
    vertex -16.103365054899037 9.572237154262696 4.200000000000001
  endloop
endfacet
facet normal 0.9238795325112904 0.3826834323650809 0.0
  outer loop
    vertex -16.170075247913143 9.733289806985887 0.9999999999999999
    vertex -16.103365054899037 9.572237154262696 4.200000000000001
    vertex -16.103365054899037 9.572237154262696 0.9999999999999999
  endloop
endfacet
facet normal 0.9238795325112904 0.3826834323650809 0.0
  outer loop
    vertex -16.103365054899037 9.572237154262696 4.200000000000001
    vertex -16.170075247913143 9.733289806985887 0.9999999999999999
    vertex -16.170075247913143 9.733289806985887 4.200000000000001
  endloop
endfacet
facet normal 0.3826834323650948 0.9238795325112849 0.0
  outer loop
    vertex -16.331127900636336 9.799999999999999 4.200000000000001
    vertex -16.170075247913143 9.733289806985887 0.9999999999999999
    vertex -16.331127900636336 9.799999999999999 0.9999999999999999
  endloop
endfacet
facet normal 0.3826834323650948 0.9238795325112849 0.0
  outer loop
    vertex -16.170075247913143 9.733289806985887 0.9999999999999999
    vertex -16.331127900636336 9.799999999999999 4.200000000000001
    vertex -16.170075247913143 9.733289806985887 4.200000000000001
  endloop
endfacet
endsolid Sensor Buttons
