<?xml version="1.0" encoding="UTF-8"?>
<svg width="410px" height="416px" viewBox="0 0 410 416" version="1.1" xmlns="http://www.w3.org/2000/svg" xmlns:xlink="http://www.w3.org/1999/xlink">
    <!-- Generator: Sketch 41.2 (35397) - http://www.bohemiancoding.com/sketch -->
    <title>Artboard</title>
    <desc>Created with Sketch.</desc>
    <defs>
        <path d="M163.238354,289.99337 C163.396341,287.787893 165.314678,286 167.525322,286 L242.474678,286 C244.684319,286 246.603542,287.786254 246.761646,289.99337 L255,405 L155,405 L163.238354,289.99337 Z" id="path-1"></path>
        <mask id="mask-2" maskContentUnits="userSpaceOnUse" maskUnits="objectBoundingBox" x="0" y="0" width="100" height="119" fill="white">
            <use xlink:href="#path-1"></use>
        </mask>
        <polygon id="path-3" points="196.605638 286 213.394362 286 218 376 192 376"></polygon>
        <mask id="mask-4" maskContentUnits="userSpaceOnUse" maskUnits="objectBoundingBox" x="0" y="0" width="26" height="90" fill="white">
            <use xlink:href="#path-3"></use>
        </mask>
        <rect id="path-5" x="4" y="5" width="147" height="161" rx="22"></rect>
        <mask id="mask-6" maskContentUnits="userSpaceOnUse" maskUnits="objectBoundingBox" x="0" y="0" width="147" height="161" fill="white">
            <use xlink:href="#path-5"></use>
        </mask>
        <rect id="path-7" x="4" y="0" width="147" height="156" rx="22"></rect>
        <mask id="mask-8" maskContentUnits="userSpaceOnUse" maskUnits="objectBoundingBox" x="0" y="0" width="147" height="156" fill="white">
            <use xlink:href="#path-7"></use>
        </mask>
        <rect id="path-9" x="27" y="28" width="100" height="66" rx="7"></rect>
        <mask id="mask-10" maskContentUnits="userSpaceOnUse" maskUnits="objectBoundingBox" x="0" y="0" width="100" height="66" fill="white">
            <use xlink:href="#path-9"></use>
        </mask>
        <rect id="path-11" x="0" y="0" width="6" height="14" rx="2"></rect>
        <mask id="mask-12" maskContentUnits="userSpaceOnUse" maskUnits="objectBoundingBox" x="0" y="0" width="6" height="14" fill="white">
            <use xlink:href="#path-11"></use>
        </mask>
        <rect id="path-13" x="149" y="0" width="6" height="14" rx="2"></rect>
        <mask id="mask-14" maskContentUnits="userSpaceOnUse" maskUnits="objectBoundingBox" x="0" y="0" width="6" height="14" fill="white">
            <use xlink:href="#path-13"></use>
        </mask>
        <rect id="path-15" x="0" y="37" width="6" height="14" rx="2"></rect>
        <mask id="mask-16" maskContentUnits="userSpaceOnUse" maskUnits="objectBoundingBox" x="0" y="0" width="6" height="14" fill="white">
            <use xlink:href="#path-15"></use>
        </mask>
        <rect id="path-17" x="149" y="37" width="6" height="14" rx="2"></rect>
        <mask id="mask-18" maskContentUnits="userSpaceOnUse" maskUnits="objectBoundingBox" x="0" y="0" width="6" height="14" fill="white">
            <use xlink:href="#path-17"></use>
        </mask>
        <rect id="path-19" x="0" y="36" width="6" height="14" rx="2"></rect>
        <mask id="mask-20" maskContentUnits="userSpaceOnUse" maskUnits="objectBoundingBox" x="0" y="0" width="6" height="14" fill="white">
            <use xlink:href="#path-19"></use>
        </mask>
        <rect id="path-21" x="149" y="36" width="6" height="14" rx="2"></rect>
        <mask id="mask-22" maskContentUnits="userSpaceOnUse" maskUnits="objectBoundingBox" x="0" y="0" width="6" height="14" fill="white">
            <use xlink:href="#path-21"></use>
        </mask>
        <rect id="path-23" x="0" y="73" width="6" height="14" rx="2"></rect>
        <mask id="mask-24" maskContentUnits="userSpaceOnUse" maskUnits="objectBoundingBox" x="0" y="0" width="6" height="14" fill="white">
            <use xlink:href="#path-23"></use>
        </mask>
        <rect id="path-25" x="149" y="73" width="6" height="14" rx="2"></rect>
        <mask id="mask-26" maskContentUnits="userSpaceOnUse" maskUnits="objectBoundingBox" x="0" y="0" width="6" height="14" fill="white">
            <use xlink:href="#path-25"></use>
        </mask>
        <circle id="path-27" cx="205" cy="208" r="143"></circle>
        <mask id="mask-28" maskContentUnits="userSpaceOnUse" maskUnits="objectBoundingBox" x="-60" y="-60" width="406" height="406">
            <rect x="2" y="5" width="406" height="406" fill="white"></rect>
            <use xlink:href="#path-27" fill="black"></use>
        </mask>
        <path d="M163.177027,33.9937032 C163.368883,31.7880418 165.314678,30 167.525322,30 L242.474678,30 C244.684319,30 246.63082,31.7846305 246.822973,33.9937032 L255,128 L155,128 L163.177027,33.9937032 Z" id="path-29"></path>
        <mask id="mask-30" maskContentUnits="userSpaceOnUse" maskUnits="objectBoundingBox" x="0" y="0" width="100" height="98" fill="white">
            <use xlink:href="#path-29"></use>
        </mask>
        <polygon id="path-31" points="196.605638 30 213.394362 30 218 128 192 128"></polygon>
        <mask id="mask-32" maskContentUnits="userSpaceOnUse" maskUnits="objectBoundingBox" x="0" y="0" width="26" height="98" fill="white">
            <use xlink:href="#path-31"></use>
        </mask>
        <path d="M163.177027,33.9937032 C163.368883,31.7880418 165.314678,30 167.525322,30 L242.474678,30 C244.684319,30 246.63082,31.7846305 246.822973,33.9937032 L255,128 L155,128 L163.177027,33.9937032 Z" id="path-33"></path>
        <mask id="mask-34" maskContentUnits="userSpaceOnUse" maskUnits="objectBoundingBox" x="0" y="0" width="100" height="98" fill="white">
            <use xlink:href="#path-33"></use>
        </mask>
        <text id="text-35" font-family="Orbitron-Regular, Orbitron" font-size="28" font-weight="normal" letter-spacing="0.466666788" fill="#FFFFFF">
            <tspan x="159" y="208">12:00</tspan>
        </text>
        <filter x="-50%" y="-50%" width="200%" height="200%" filterUnits="objectBoundingBox" id="filter-36">
            <feOffset dx="0" dy="2" in="SourceAlpha" result="shadowOffsetOuter1"></feOffset>
            <feColorMatrix values="0 0 0 0 0.607892215   0 0 0 0 0.607803345   0 0 0 0 0.607922554  0 0 0 1 0" type="matrix" in="shadowOffsetOuter1"></feColorMatrix>
        </filter>
    </defs>
    <g id="Page-1" stroke="none" stroke-width="1" fill="none" fill-rule="evenodd">
        <g id="Artboard">
            <circle id="Oval" stroke="#36465A" stroke-width="15" fill="#9fb5d2" cx="205" cy="208" r="143"></circle>
            <use id="Rectangle-4" stroke="#36465A" mask="url(#mask-2)" stroke-width="8" fill="#67778B" transform="translate(205.000000, 345.500000) rotate(180.000000) translate(-205.000000, -345.500000) " xlink:href="#path-1"></use>
            <use id="Rectangle-6" stroke="#962627" mask="url(#mask-4)" stroke-width="4" fill="#ce5554" transform="translate(205.000000, 331.000000) rotate(-180.000000) translate(-205.000000, -331.000000) " xlink:href="#path-3"></use>
            <g id="Watch" transform="translate(127.000000, 124.000000)">
                <use id="Rectangle" stroke="#36465A" mask="url(#mask-6)" stroke-width="8" fill="#777777" xlink:href="#path-5"></use>
                <use id="Rectangle" stroke="#36465A" mask="url(#mask-8)" stroke-width="8" fill="#D8D8D8" xlink:href="#path-7"></use>
                <use id="Rectangle-2" stroke="#36465A" mask="url(#mask-10)" stroke-width="6" fill="#262640" xlink:href="#path-9"></use>
                <g id="Secondbuttons" transform="translate(0.000000, 41.000000)" stroke="#36455A" stroke-width="4" fill="#777777">
                    <use id="Rectangle-3" mask="url(#mask-12)" xlink:href="#path-11"></use>
                    <use id="Rectangle-3" mask="url(#mask-14)" xlink:href="#path-13"></use>
                    <use id="Rectangle-3" mask="url(#mask-16)" xlink:href="#path-15"></use>
                    <use id="Rectangle-3" mask="url(#mask-18)" xlink:href="#path-17"></use>
                </g>
                <use id="Rectangle-3" stroke="#36455A" mask="url(#mask-20)" stroke-width="4" fill="#D8D8D8" xlink:href="#path-19"></use>
                <use id="Rectangle-3" stroke="#36455A" mask="url(#mask-22)" stroke-width="4" fill="#D8D8D8" xlink:href="#path-21"></use>
                <use id="Rectangle-3" stroke="#36455A" mask="url(#mask-24)" stroke-width="4" fill="#D8D8D8" xlink:href="#path-23"></use>
                <use id="Rectangle-3" stroke="#36455A" mask="url(#mask-26)" stroke-width="4" fill="#D8D8D8" xlink:href="#path-25"></use>
            </g>
            <circle id="Oval" stroke="#36465A" stroke-width="15" cx="205" cy="208" r="143"></circle>
            <use id="Oval" stroke="#BAC3CE" mask="url(#mask-28)" stroke-width="120" xlink:href="#path-27"></use>
            <use id="Rectangle-4" stroke="#36465A" mask="url(#mask-30)" stroke-width="8" fill="#67788B" xlink:href="#path-29"></use>
            <use id="Rectangle-6" stroke="#952326" mask="url(#mask-32)" stroke-width="4" fill="#ce5554" xlink:href="#path-31"></use>
            <use id="Rectangle-4" stroke="#36465A" mask="url(#mask-34)" stroke-width="8" xlink:href="#path-33"></use>
            <rect id="Rectangle-5" fill="#E82B8A" x="167" y="163" width="38" height="8" rx="4"></rect>
            <circle id="Oval-2" fill="#27AAA0" cx="230" cy="167" r="9"></circle>
            <g id="12:00" fill-opacity="1" fill="#FFFFFF">
                <use filter="url(#filter-36)" xlink:href="#text-35"></use>
                <use xlink:href="#text-35"></use>
            </g>
            <text id="TINY-WATCH" font-family="Bungee-Regular, Bungee" font-size="55" font-weight="normal" letter-spacing="0.916666865" fill="#36455A">
                <tspan x="21" y="403">TINY WATCH</tspan>
            </text>
            <path d="M158.73305,116.26776 C158.665673,114.06375 160.408356,112.277046 162.609126,112.277046 L245.612978,112.277046 C247.821053,112.277046 249.785725,114.058166 250.001607,116.259482 L250.769418,124.088745 L159,125 L158.73305,116.26776 Z" id="Rectangle-7" fill-opacity="0.249518795" fill="#37465A"></path>
            <path d="M167,34 L243.074401,34 L243.537879,42.0117187 C243.793101,46.4235247 240.415024,50 235.995609,50 L175.004391,50 C170.583688,50 167,46.4092877 167,42 L167,34 Z" id="Rectangle-7" fill-opacity="0.0545459692" fill="#FFFFFF"></path>
            <path d="M161.409914,325.97242 C161.177819,323.226228 163.227937,321 165.99071,321 L244.300145,321 C247.062143,321 249.094929,323.229992 248.840862,325.976908 L247.632753,339.03871 C247.632753,339.03871 227.44953,343.259401 205.13222,343.650391 C182.814911,344.04138 162.484046,338.681794 162.484046,338.681794 L161.409914,325.97242 Z" id="Rectangle-7" fill-opacity="0.25" fill="#37465A"></path>
        </g>
    </g>
</svg>